<svg width="80" height="80" viewBox="0 0 80 80" fill="none" xmlns="http://www.w3.org/2000/svg">
<rect width="80" height="80" rx="10" fill="#FF5A5A" fill-opacity="0.1"/>
<path d="M40 65C53.8071 65 65 53.8071 65 40C65 26.1929 53.8071 15 40 15C26.1929 15 15 26.1929 15 40C15 53.8071 26.1929 65 40 65Z" fill="#F1333F"/>
<path d="M65 40C65 38.7987 64.9133 37.6179 64.7496 36.4618L56.0807 27.793L23.9192 52.207L36.4618 64.7496C37.6178 64.9134 38.7987 65 40 65C53.8071 65 65 53.8071 65 40Z" fill="#AE283F"/>
<path d="M56.0801 27.793H23.9189V52.207H56.0801V27.793Z" fill="white"/>
<path d="M56.0811 27.793H40V52.207H56.0811V27.793Z" fill="#E0E0E0"/>
<path d="M56.0801 27.793H23.9189V30.9346H56.0801V27.793Z" fill="#E0E0E0"/>
<path d="M56.0811 27.793H40V30.9346H56.0811V27.793Z" fill="#C0C0C0"/>
<path d="M25.8565 30.234C26.3374 30.234 26.7273 29.8442 26.7273 29.3632C26.7273 28.8823 26.3374 28.4924 25.8565 28.4924C25.3755 28.4924 24.9857 28.8823 24.9857 29.3632C24.9857 29.8442 25.3755 30.234 25.8565 30.234Z" fill="#FF6838"/>
<path d="M28.4688 30.234C28.9497 30.234 29.3396 29.8442 29.3396 29.3632C29.3396 28.8823 28.9497 28.4924 28.4688 28.4924C27.9878 28.4924 27.598 28.8823 27.598 29.3632C27.598 29.8442 27.9878 30.234 28.4688 30.234Z" fill="#FF6838"/>
<path d="M31.0811 30.234C31.562 30.234 31.9519 29.8442 31.9519 29.3632C31.9519 28.8823 31.562 28.4924 31.0811 28.4924C30.6001 28.4924 30.2103 28.8823 30.2103 29.3632C30.2103 29.8442 30.6001 30.234 31.0811 30.234Z" fill="#FF6838"/>
<path d="M53.9585 43.1868L55.1519 41.9934C54.4696 41.0173 53.6196 40.1673 52.6436 39.4851L51.4502 40.6785C50.6023 40.1289 49.6498 39.7272 48.6291 39.5093V37.8209C48.0532 37.7191 47.4605 37.6658 46.8555 37.6658C46.2504 37.6658 45.6577 37.7191 45.0818 37.8209V39.5093C44.0611 39.7271 43.1087 40.1289 42.2607 40.6784L41.0674 39.485C40.0913 40.1672 39.2413 41.0172 38.5591 41.9933L39.7524 43.1867C39.2028 44.0345 38.8012 44.9871 38.5833 46.0078H36.8949C36.7931 46.5837 36.7397 47.1763 36.7397 47.7814C36.7397 48.3865 36.7931 48.9792 36.8949 49.5551H38.5833C38.8011 50.5758 39.2028 51.5282 39.7524 52.3761L38.5591 53.5695C39.2413 54.5456 40.0913 55.3956 41.0674 56.0778L42.2607 54.8845C43.1086 55.4341 44.0611 55.8357 45.0818 56.0536V57.742C45.6577 57.8438 46.2504 57.8972 46.8555 57.8972C47.4605 57.8972 48.0532 57.8438 48.6291 57.742V56.0536C49.6498 55.8358 50.6022 55.4341 51.4502 54.8845L52.6436 56.0778C53.6196 55.3956 54.4696 54.5456 55.1519 53.5695L53.9585 52.3761C54.5081 51.5282 54.9098 50.5758 55.1276 49.5551H56.816C56.9179 48.9792 56.9712 48.3865 56.9712 47.7814C56.9712 47.1763 56.9179 46.5837 56.816 46.0078H55.1276C54.9098 44.9872 54.5081 44.0347 53.9585 43.1868ZM46.8555 51.5175C44.7922 51.5175 43.1195 49.8448 43.1195 47.7815C43.1195 45.7182 44.7922 44.0456 46.8555 44.0456C48.9188 44.0456 50.5914 45.7182 50.5914 47.7815C50.5914 49.8448 48.9187 51.5175 46.8555 51.5175Z" fill="#005C83"/>
<path d="M56.8159 49.5552C56.9178 48.9794 56.9711 48.3867 56.9711 47.7815C56.9711 47.1764 56.9178 46.5838 56.8159 46.0079H55.1276C54.9098 44.9872 54.508 44.0346 53.9585 43.1868L55.1519 41.9934C54.4697 41.0173 53.6197 40.1673 52.6436 39.4851L51.4502 40.6785C50.6024 40.1289 49.6498 39.7271 48.6291 39.5093V37.8209C48.0532 37.7191 47.4606 37.6658 46.8555 37.6658C46.8162 37.6658 46.7775 37.6679 46.7384 37.6683V44.0485C46.7774 44.0473 46.8162 44.0456 46.8555 44.0456C48.9188 44.0456 50.5914 45.7181 50.5914 47.7814C50.5914 49.8447 48.9189 51.5174 46.8555 51.5174C46.8162 51.5174 46.7774 51.5156 46.7384 51.5144V57.8946C46.7776 57.895 46.8163 57.8972 46.8555 57.8972C47.4607 57.8972 48.0532 57.8438 48.6291 57.742V56.0536C49.6498 55.8358 50.6023 55.4341 51.4502 54.8845L52.6436 56.0778C53.6197 55.3956 54.4697 54.5456 55.1519 53.5694L53.9585 52.3761C54.5081 51.5281 54.9098 50.5757 55.1276 49.555H56.8159V49.5552Z" fill="#00263F"/>
<path d="M25.1712 39.0448L27.5875 32.7607H28.7647L31.1721 39.0448H29.6319L29.1452 37.6375H27.1892L26.7112 39.0448H25.1712ZM28.1717 34.3008L27.4193 36.6374H28.8975L28.1717 34.3008Z" fill="#005C83"/>
<path d="M31.7473 39.0448V32.7607H34.4291C34.73 32.7607 35.0058 32.8227 35.2567 32.9466C35.5073 33.0705 35.7227 33.2328 35.9028 33.4334C36.0827 33.6341 36.2243 33.8612 36.3277 34.1149C36.4309 34.3687 36.4825 34.6254 36.4825 34.885C36.4825 35.1624 36.4338 35.4279 36.3365 35.6815C36.2392 35.9354 36.1033 36.1625 35.9293 36.3631C35.7553 36.5638 35.5444 36.723 35.2966 36.841C35.0487 36.9591 34.7743 37.0181 34.4735 37.0181H33.1988V39.0449H31.7473V39.0448ZM33.1987 35.7522H34.3849C34.5559 35.7522 34.7035 35.6785 34.8274 35.531C34.9513 35.3835 35.0132 35.1681 35.0132 34.8849C35.0132 34.7374 34.994 34.6104 34.9557 34.5043C34.9171 34.398 34.8656 34.3096 34.8007 34.2388C34.7358 34.168 34.662 34.1164 34.5794 34.0839C34.4967 34.0515 34.4142 34.0352 34.3317 34.0352H33.1987V35.7522H33.1987Z" fill="#005C83"/>
<path d="M37.2349 39.0448V32.7607H38.6863V39.0448H37.2349Z" fill="#005C83"/>
</svg>
