<svg width="50" height="50" viewBox="0 0 50 50" fill="none" xmlns="http://www.w3.org/2000/svg">
<circle opacity="0.2" cx="25" cy="25" r="25" fill="#97CBFF"/>
<path d="M29.9456 33.816L29.4118 32.1722L26.9606 31.816L25.8643 29.5947H24.1356L23.0393 31.816L20.5881 32.1722L20.0543 33.816L21.8281 35.5454L21.4093 37.9866L22.8074 39.0022L24.9999 37.8497L27.1924 39.0022L28.5906 37.9866L28.1718 35.5454L29.9456 33.816Z" fill="#FFEE00"/>
<path d="M28.1719 35.5454L28.5906 37.9866L27.1924 39.0022L25 37.8497V29.5947H25.8643L26.9606 31.816L29.4119 32.1722L29.9456 33.816L28.1719 35.5454Z" fill="#FFCC00"/>
<path d="M11.7532 39.0027L10.355 37.9868L10.7737 35.5454L9 33.8165L9.534 32.1727L11.9853 31.8165L13.0816 29.5952H14.8099L15.9061 31.8165L18.3574 32.1727L18.8915 33.8165L17.1178 35.5454L17.5365 37.9868L16.1382 39.0027L13.9457 37.85L11.7532 39.0027Z" fill="#FFEE00"/>
<path d="M38.2467 39.0027L36.0542 37.85L33.8617 39.0027L32.4634 37.9868L32.8821 35.5454L31.1084 33.8165L31.6425 32.1727L34.0938 31.8165L35.19 29.5952H36.9183L38.0146 31.8165L40.4659 32.1727L40.9999 33.8165L39.2262 35.5454L39.6449 37.9868L38.2467 39.0027Z" fill="#FFCC00"/>
<path d="M25 27.3105C29.5046 27.3105 33.1562 23.6589 33.1562 19.1543C33.1562 14.6497 29.5046 10.998 25 10.998C20.4954 10.998 16.8438 14.6497 16.8438 19.1543C16.8438 23.6589 20.4954 27.3105 25 27.3105Z" fill="#97CBFF"/>
<path d="M33.1562 19.1543C33.1562 23.6587 29.5044 27.3105 25 27.3105V10.998C29.5044 10.998 33.1562 14.6499 33.1562 19.1543Z" fill="#7F7CFF"/>
<path d="M29.073 17.4185L24.9999 21.4917L24.2756 22.216L20.9268 18.8672L22.253 17.5416L24.2756 19.5642L24.9999 18.8398L27.7468 16.0923L29.073 17.4185Z" fill="#F1F1F1"/>
<path d="M29.073 17.4185L24.9999 21.4917V18.8398L27.7468 16.0923L29.073 17.4185Z" fill="#D6D6EA"/>
</svg>
