<svg width="300" height="254" viewBox="0 0 300 254" fill="none" xmlns="http://www.w3.org/2000/svg">
<path d="M100.035 253H85.2344V227.301H100.035V231.766H90.6836V237.408H99.3848V241.873H90.6836V248.5H100.035V253ZM122.588 253H117.227V241.521C117.227 240.104 116.986 239.043 116.506 238.34C116.037 237.625 115.293 237.268 114.273 237.268C112.902 237.268 111.906 237.771 111.285 238.779C110.664 239.787 110.354 241.445 110.354 243.754V253H104.992V233.348H109.088L109.809 235.861H110.107C110.635 234.959 111.396 234.256 112.393 233.752C113.389 233.236 114.531 232.979 115.82 232.979C118.762 232.979 120.754 233.939 121.797 235.861H122.271C122.799 234.947 123.572 234.238 124.592 233.734C125.623 233.23 126.783 232.979 128.072 232.979C130.299 232.979 131.98 233.553 133.117 234.701C134.266 235.838 134.84 237.666 134.84 240.186V253H129.461V241.521C129.461 240.104 129.221 239.043 128.74 238.34C128.271 237.625 127.527 237.268 126.508 237.268C125.195 237.268 124.211 237.736 123.555 238.674C122.91 239.611 122.588 241.1 122.588 243.139V253ZM152.84 253L151.803 250.328H151.662C150.76 251.465 149.828 252.256 148.867 252.701C147.918 253.135 146.676 253.352 145.141 253.352C143.254 253.352 141.766 252.812 140.676 251.734C139.598 250.656 139.059 249.121 139.059 247.129C139.059 245.043 139.785 243.508 141.238 242.523C142.703 241.527 144.906 240.977 147.848 240.871L151.258 240.766V239.904C151.258 237.912 150.238 236.916 148.199 236.916C146.629 236.916 144.783 237.391 142.662 238.34L140.887 234.719C143.148 233.535 145.656 232.943 148.41 232.943C151.047 232.943 153.068 233.518 154.475 234.666C155.881 235.814 156.584 237.561 156.584 239.904V253H152.84ZM151.258 243.895L149.184 243.965C147.625 244.012 146.465 244.293 145.703 244.809C144.941 245.324 144.561 246.109 144.561 247.164C144.561 248.676 145.428 249.432 147.162 249.432C148.404 249.432 149.395 249.074 150.133 248.359C150.883 247.645 151.258 246.695 151.258 245.512V243.895ZM161.893 228.268C161.893 226.521 162.865 225.648 164.811 225.648C166.756 225.648 167.729 226.521 167.729 228.268C167.729 229.1 167.482 229.75 166.99 230.219C166.51 230.676 165.783 230.904 164.811 230.904C162.865 230.904 161.893 230.025 161.893 228.268ZM167.482 253H162.121V233.348H167.482V253ZM178.486 253H173.125V225.648H178.486V253ZM209.072 245.863C209.072 248.184 208.234 250.012 206.559 251.348C204.895 252.684 202.574 253.352 199.598 253.352C196.855 253.352 194.43 252.836 192.32 251.805V246.742C194.055 247.516 195.52 248.061 196.715 248.377C197.922 248.693 199.023 248.852 200.02 248.852C201.215 248.852 202.129 248.623 202.762 248.166C203.406 247.709 203.729 247.029 203.729 246.127C203.729 245.623 203.588 245.178 203.307 244.791C203.025 244.393 202.609 244.012 202.059 243.648C201.52 243.285 200.412 242.705 198.736 241.908C197.166 241.17 195.988 240.461 195.203 239.781C194.418 239.102 193.791 238.311 193.322 237.408C192.854 236.506 192.619 235.451 192.619 234.244C192.619 231.971 193.387 230.184 194.922 228.883C196.469 227.582 198.602 226.932 201.32 226.932C202.656 226.932 203.928 227.09 205.135 227.406C206.354 227.723 207.625 228.168 208.949 228.742L207.191 232.979C205.82 232.416 204.684 232.023 203.781 231.801C202.891 231.578 202.012 231.467 201.145 231.467C200.113 231.467 199.322 231.707 198.771 232.188C198.221 232.668 197.945 233.295 197.945 234.068C197.945 234.549 198.057 234.971 198.279 235.334C198.502 235.686 198.854 236.031 199.334 236.371C199.826 236.699 200.98 237.297 202.797 238.164C205.199 239.312 206.846 240.467 207.736 241.627C208.627 242.775 209.072 244.188 209.072 245.863ZM221.447 236.793C220.311 236.793 219.42 237.156 218.775 237.883C218.131 238.598 217.762 239.617 217.668 240.941H225.191C225.168 239.617 224.822 238.598 224.154 237.883C223.486 237.156 222.584 236.793 221.447 236.793ZM222.203 253.352C219.039 253.352 216.566 252.479 214.785 250.732C213.004 248.986 212.113 246.514 212.113 243.314C212.113 240.021 212.934 237.479 214.574 235.686C216.227 233.881 218.506 232.979 221.412 232.979C224.189 232.979 226.352 233.77 227.898 235.352C229.445 236.934 230.219 239.119 230.219 241.908V244.51H217.545C217.604 246.033 218.055 247.223 218.898 248.078C219.742 248.934 220.926 249.361 222.449 249.361C223.633 249.361 224.752 249.238 225.807 248.992C226.861 248.746 227.963 248.354 229.111 247.814V251.963C228.174 252.432 227.172 252.777 226.105 253C225.039 253.234 223.738 253.352 222.203 253.352ZM252.719 253H247.357V241.521C247.357 240.104 247.105 239.043 246.602 238.34C246.098 237.625 245.295 237.268 244.193 237.268C242.693 237.268 241.609 237.771 240.941 238.779C240.273 239.775 239.939 241.434 239.939 243.754V253H234.578V233.348H238.674L239.395 235.861H239.693C240.291 234.912 241.111 234.197 242.154 233.717C243.209 233.225 244.404 232.979 245.74 232.979C248.025 232.979 249.76 233.6 250.943 234.842C252.127 236.072 252.719 237.854 252.719 240.186V253ZM266.518 249.08C267.455 249.08 268.58 248.875 269.893 248.465V252.455C268.557 253.053 266.916 253.352 264.971 253.352C262.826 253.352 261.262 252.812 260.277 251.734C259.305 250.645 258.818 249.016 258.818 246.848V237.373H256.252V235.105L259.205 233.312L260.752 229.164H264.18V233.348H269.682V237.373H264.18V246.848C264.18 247.609 264.391 248.172 264.812 248.535C265.246 248.898 265.814 249.08 266.518 249.08Z" fill="#29C038"/>
<g clip-path="url(#clip0)">
<path d="M300 91.4611C300 99.2115 297.076 106.677 291.81 112.364C286.545 118.051 279.327 121.542 271.6 122.137C271.339 122.157 271.075 122.177 270.811 122.189V92.9876C270.811 92.6958 270.746 92.4076 270.62 92.1441C270.495 91.8807 270.312 91.6486 270.085 91.4651C270.059 91.4382 270.03 91.4143 269.998 91.3941C269.969 91.3708 269.939 91.3497 269.907 91.3309C269.63 91.1526 269.313 91.0465 268.984 91.0224C268.656 90.9983 268.326 91.0569 268.026 91.1929L267.698 90.475C268.056 90.312 268.445 90.2272 268.838 90.2265L246.371 70.8708C246.544 70.6736 246.726 70.4803 246.907 70.2871C251.143 65.822 256.62 62.7298 262.631 61.4099C268.643 60.0901 274.912 60.6032 280.628 62.8831C286.345 65.163 291.247 69.1048 294.7 74.1992C298.153 79.2937 299.999 85.3066 300 91.4611Z" fill="#F2F2F2"/>
<path d="M7.80139 112.44C7.68966 111.869 7.70445 111.281 7.84472 110.716C7.98499 110.152 8.24733 109.625 8.61327 109.173C8.9792 108.721 9.43982 108.354 9.96269 108.099C10.4856 107.845 11.058 107.707 11.6396 107.698L29.3749 86.5854L33.8026 92.2465L15.7278 111.895C15.6794 112.873 15.2739 113.8 14.5881 114.499C13.9023 115.198 12.9838 115.621 12.0068 115.688C11.0298 115.755 10.062 115.462 9.28695 114.863C8.51187 114.265 7.9833 113.403 7.80141 112.44H7.80139Z" fill="#FFB8B8"/>
<path d="M92.02 86.4549C91.8959 86.6344 91.7861 86.8234 91.6917 87.0202L72.3265 89.7883L69.3859 86.055L63.1716 89.7565L69.013 98.864L92.6308 91.9019C93.2541 92.4661 94.0343 92.8271 94.8678 92.9371C95.7012 93.047 96.5484 92.9006 97.2967 92.5173C98.0449 92.1341 98.6587 91.5321 99.0565 90.7915C99.4543 90.0508 99.6172 89.2067 99.5235 88.3712C99.4298 87.5358 99.084 86.7486 98.5321 86.1145C97.9801 85.4804 97.2482 85.0293 96.4337 84.8213C95.6191 84.6132 94.7606 84.6581 93.9721 84.9499C93.1837 85.2417 92.5028 85.7666 92.02 86.4549Z" fill="#FFB8B8"/>
<path d="M58.9409 156.994L62.3679 160.406L77.1598 148.813L72.1021 143.777L58.9409 156.994Z" fill="#FFB8B8"/>
<path d="M65.8083 170.169L55.0384 159.445L59.1817 155.284L65.7905 161.865C66.3369 162.409 66.7709 163.055 67.0675 163.767C67.3641 164.479 67.5177 165.242 67.5193 166.013C67.521 166.784 67.3707 167.548 67.0772 168.261C66.7836 168.974 66.3524 169.623 65.8083 170.169L65.8083 170.169Z" fill="#2F2E41"/>
<path d="M40.7254 189.722H45.5613L47.8618 171.07H40.7246L40.7254 189.722Z" fill="#FFB8B8"/>
<path d="M54.8875 194.212L39.689 194.213L39.6888 188.341L49.0151 188.34C49.7862 188.34 50.5498 188.492 51.2622 188.787C51.9747 189.082 52.6221 189.515 53.1674 190.06C53.7127 190.605 54.1452 191.253 54.4404 191.965C54.7355 192.678 54.8874 193.441 54.8875 194.212Z" fill="#2F2E41"/>
<path d="M39.6741 175.316L34.1658 134.693C33.3037 128.554 33.5713 122.309 34.9552 116.266C36.0855 111.409 37.6125 108.045 39.494 106.268C39.7909 105.989 40.171 105.815 40.576 105.773L58.7627 103.879C59.113 103.843 59.4663 103.908 59.7813 104.065C60.0963 104.222 60.36 104.466 60.5417 104.768L61.1395 105.764C61.2121 105.885 61.2706 106.014 61.314 106.148L65.1591 118.068C65.2165 118.249 65.3092 118.415 65.4316 118.559C65.5541 118.703 65.704 118.822 65.8725 118.907C71.9265 121.998 91.5919 132.432 90.4665 136.934C89.4091 141.163 79.509 148.021 76.4999 150.022C76.1935 150.227 75.8326 150.335 75.464 150.333C75.0954 150.33 74.7362 150.216 74.4329 150.007L69.438 146.589C69.1941 146.422 68.9937 146.2 68.8536 145.939C68.7135 145.679 68.6377 145.389 68.6325 145.094C68.6274 144.798 68.693 144.506 68.8239 144.241C68.9549 143.976 69.1474 143.747 69.3852 143.571L72.8298 141.033C73.0406 140.878 73.205 140.668 73.3054 140.426C73.4058 140.184 73.4383 139.919 73.3995 139.66C73.3607 139.401 73.252 139.158 73.0851 138.956C72.9182 138.754 72.6995 138.602 72.4524 138.515L53.9533 132.024C53.7456 131.951 53.5239 131.927 53.3053 131.953C53.0868 131.979 52.8771 132.055 52.6925 132.175C52.5078 132.295 52.3532 132.456 52.2403 132.645C52.1275 132.834 52.0595 133.046 52.0416 133.265L48.6307 174.954C48.5931 175.401 48.3948 175.819 48.0726 176.131C47.7505 176.443 47.3262 176.628 46.8782 176.652L41.6007 176.916C41.5686 176.917 41.5367 176.918 41.5049 176.918C41.057 176.92 40.6238 176.758 40.2868 176.463C39.9497 176.168 39.7318 175.76 39.6741 175.316Z" fill="#2F2E41"/>
<path d="M48.015 70.2454C53.3656 70.2454 57.7031 65.9079 57.7031 60.5574C57.7031 55.2068 53.3656 50.8693 48.015 50.8693C42.6644 50.8693 38.3269 55.2068 38.3269 60.5574C38.3269 65.9079 42.6644 70.2454 48.015 70.2454Z" fill="#FFB8B8"/>
<path d="M38.9533 104.608L31.822 78.5882L31.9441 78.5059C32.0973 78.4027 47.4683 68.2528 65.4646 76.4322L65.7909 76.6194L61.5652 103.626C61.473 104.243 61.1687 104.807 60.7047 105.223C60.2406 105.639 59.646 105.88 59.0233 105.905L41.6348 106.574C41.5998 106.575 41.5648 106.576 41.5301 106.576C40.9439 106.577 40.3737 106.385 39.9078 106.029C39.4419 105.673 39.1064 105.174 38.9533 104.608Z" fill="#CCCCCC"/>
<path d="M31.5507 95.5275L25.6113 88.6975C25.3253 88.3693 25.1642 87.9507 25.1565 87.5154C25.1489 87.0802 25.2951 86.6562 25.5694 86.3181L31.7783 78.6481L36.5445 79.948L39.0715 88.7923L34.464 95.3745C34.3033 95.6055 34.0918 95.7965 33.8457 95.9329C33.5996 96.0694 33.3255 96.1475 33.0445 96.1615C33.0112 96.1631 32.9782 96.1639 32.9451 96.1639C32.6806 96.1644 32.4191 96.1078 32.1784 95.998C31.9378 95.8882 31.7236 95.7277 31.5507 95.5275Z" fill="#CCCCCC"/>
<path d="M64.3947 94.1047C64.1136 94.0907 63.8395 94.0126 63.5934 93.8762C63.3473 93.7397 63.1358 93.5487 62.9751 93.3177L58.3677 86.7355L60.5838 77.4255L64.9723 76.2286L65.7911 76.6194L71.8698 84.2613C72.1441 84.5994 72.2903 85.0234 72.2826 85.4587C72.2749 85.8939 72.1138 86.3125 71.8278 86.6407L65.8885 93.4707C65.7155 93.6709 65.5014 93.8314 65.2607 93.9412C65.0201 94.051 64.7585 94.1076 64.494 94.1071C64.461 94.1071 64.4278 94.1062 64.3947 94.1047Z" fill="#CCCCCC"/>
<path d="M270.811 91.0548C270.814 91.153 270.781 91.249 270.716 91.3231C270.648 91.4026 270.551 91.4518 270.447 91.4599C270.343 91.4681 270.239 91.4344 270.16 91.3665L268.839 90.2265L246.371 70.8709L183.354 16.5749C182.994 16.2671 182.536 16.0983 182.063 16.0991C181.59 16.0998 181.132 16.27 180.774 16.5788L95.9119 90.3054L95.1467 90.9681C95.1173 90.9941 95.084 91.0154 95.0481 91.0312C94.9849 91.0591 94.9155 91.07 94.8468 91.0627C94.7483 91.0522 94.6571 91.0059 94.5905 90.9326C94.5562 90.8938 94.5299 90.8486 94.5132 90.7996C94.4964 90.7506 94.4894 90.6988 94.4927 90.6471C94.496 90.5955 94.5095 90.5449 94.5323 90.4985C94.5552 90.452 94.587 90.4105 94.6259 90.3764L94.7324 90.2817L180.257 15.9832C180.76 15.5516 181.4 15.3136 182.062 15.3121C182.725 15.3107 183.366 15.5459 183.87 15.9753L246.907 70.2871L270.673 90.7669C270.714 90.8029 270.748 90.847 270.772 90.8965C270.795 90.946 270.809 90.9999 270.811 91.0548Z" fill="#3F3D56"/>
<path d="M222.897 102.703L221.859 99.8471L218.286 89.9859L210.586 68.7527L201.979 45.0187L186.458 2.20905C186.153 1.37422 185.53 0.694201 184.725 0.317892C183.919 -0.0584172 182.998 -0.100341 182.162 0.201301L92.4209 32.7394C91.5859 33.0439 90.9056 33.667 90.5292 34.4723C90.1529 35.2775 90.1112 36.1991 90.4132 37.035L112.42 97.725L112.794 98.7624L135.893 109.231L142.386 112.174L143.439 112.651L170.928 125.112L171.993 124.725L190.024 118.189L217.221 108.328L220.885 106.999C221.721 106.694 222.402 106.071 222.779 105.266C223.156 104.461 223.198 103.539 222.897 102.703Z" fill="#E6E6E6"/>
<path d="M185.266 52.1503C184.819 50.9217 183.902 49.9207 182.718 49.3669C181.533 48.813 180.177 48.7515 178.947 49.1959L143.439 62.0747L126.292 68.2912C125.683 68.5114 125.123 68.8495 124.645 69.2862C124.166 69.7229 123.778 70.2497 123.504 70.8363C123.229 71.423 123.072 72.058 123.043 72.7052C123.014 73.3524 123.112 73.9989 123.333 74.608C123.554 75.217 123.893 75.7766 124.33 76.2546C124.767 76.7327 125.294 77.1199 125.881 77.3941C126.468 77.6684 127.103 77.8242 127.751 77.8528C128.398 77.8814 129.044 77.7822 129.653 77.5607L143.439 72.5631L182.312 58.4694C183.541 58.0217 184.542 57.1051 185.095 55.9205C185.649 54.736 185.711 53.3801 185.266 52.1503Z" fill="white"/>
<path d="M191.519 69.3956C191.071 68.167 190.154 67.166 188.97 66.6122C187.785 66.0583 186.429 65.9968 185.2 66.4412L179.184 68.6225L143.439 81.5841L132.545 85.5325C131.316 85.979 130.315 86.8951 129.761 88.0793C129.208 89.2635 129.147 90.6191 129.592 91.8481C130.038 93.0771 130.953 94.079 132.137 94.6336C133.32 95.1883 134.676 95.2503 135.905 94.806L143.439 92.0725L188.564 75.7107C188.667 75.6752 188.765 75.6318 188.864 75.5884C190.01 75.0858 190.921 74.1662 191.414 73.0163C191.907 71.8663 191.945 70.572 191.519 69.3956Z" fill="white"/>
<path d="M197.838 86.8224C197.391 85.594 196.475 84.593 195.291 84.0391C194.107 83.4852 192.752 83.4237 191.523 83.868L174.652 89.9859L161.592 94.7232L143.439 101.303L138.864 102.963C137.806 103.349 136.912 104.083 136.329 105.046C135.745 106.008 135.508 107.141 135.657 108.257C135.702 108.589 135.781 108.915 135.893 109.231L142.386 112.174L143.439 111.791H143.447L176.387 99.8471L194.883 93.1415C196.112 92.6948 197.114 91.7783 197.668 90.5934C198.222 89.4085 198.283 88.0522 197.838 86.8224H197.838Z" fill="white"/>
<path d="M160.866 35.1968C160.418 33.9682 159.502 32.9672 158.317 32.4134C157.132 31.8595 155.777 31.798 154.547 32.2424L134.154 39.6343C132.925 40.0809 131.924 40.9969 131.37 42.1811C130.817 43.3653 130.756 44.7209 131.202 45.9499C131.647 47.1789 132.562 48.1808 133.746 48.7354C134.93 49.2901 136.285 49.3521 137.514 48.9079L143.968 46.5688L148.239 45.0186L157.912 41.5119C159.14 41.0651 160.141 40.1493 160.695 38.9653C161.249 37.7814 161.31 36.4261 160.866 35.1968Z" fill="white"/>
<path d="M242.249 45.0186H146.792C146.229 45.0192 145.675 45.1615 145.181 45.4324C144.688 45.7033 144.27 46.0941 143.968 46.5688C143.622 47.1062 143.438 47.7322 143.439 48.3714V112.651L170.928 125.112L174.802 126.867L180.92 129.64C181.278 129.802 181.666 129.885 182.06 129.885C182.453 129.885 182.841 129.802 183.2 129.64L189.317 126.867L208.464 118.189L226.309 110.099L245.601 101.358V48.3714C245.601 47.4824 245.247 46.6299 244.619 46.0013C243.99 45.3726 243.138 45.0192 242.249 45.0186Z" fill="#29C038"/>
<path d="M222.526 89.9859H166.514C165.241 89.9866 164.017 90.4803 163.099 91.3634C162.181 92.2466 161.641 93.4506 161.591 94.7232C161.585 94.7874 161.582 94.852 161.584 94.9165C161.585 96.2236 162.105 97.4767 163.03 98.401C163.954 99.3252 165.207 99.8453 166.514 99.8471H222.526C223.834 99.8471 225.088 99.3277 226.013 98.403C226.937 97.4783 227.457 96.2242 227.457 94.9165C227.457 93.6088 226.937 92.3547 226.013 91.43C225.088 90.5054 223.834 89.9859 222.526 89.9859Z" fill="white"/>
<path d="M225.717 109.503C224.828 108.743 223.696 108.326 222.526 108.328H166.514C165.207 108.328 163.953 108.847 163.028 109.772C162.103 110.697 161.584 111.951 161.584 113.258C161.584 114.566 162.103 115.82 163.028 116.745C163.953 117.67 165.207 118.189 166.514 118.189H208.464L226.309 110.099C226.129 109.884 225.931 109.685 225.717 109.503Z" fill="white"/>
<path d="M174.802 126.867L180.92 129.64C181.278 129.802 181.666 129.885 182.06 129.885C182.453 129.885 182.841 129.802 183.2 129.64L189.317 126.867H174.802Z" fill="white"/>
<path d="M209.998 68.9657C209.651 68.0165 209.021 67.1969 208.193 66.6176C207.364 66.0384 206.378 65.7276 205.368 65.7272H183.673C182.726 65.7281 181.799 66.0016 181.003 66.515C180.207 67.0283 179.575 67.76 179.184 68.6225C178.892 69.2612 178.741 69.9555 178.742 70.6579C178.744 71.965 179.264 73.218 180.188 74.1423C181.113 75.0666 182.366 75.5866 183.673 75.5885H205.368C206.161 75.5886 206.942 75.3972 207.646 75.0308C208.349 74.6643 208.954 74.1336 209.408 73.4835C209.863 72.8335 210.154 72.0834 210.257 71.2969C210.359 70.5103 210.271 69.7106 209.998 68.9657Z" fill="white"/>
<path d="M206.551 118.189L187.404 126.867L182.872 128.922C182.617 129.037 182.34 129.097 182.06 129.097C181.779 129.097 181.502 129.037 181.247 128.922L176.715 126.867H174.802L180.92 129.64C181.278 129.802 181.666 129.885 182.06 129.885C182.453 129.885 182.841 129.802 183.2 129.64L189.317 126.867L208.464 118.189H206.551ZM206.551 118.189L187.404 126.867L182.872 128.922C182.617 129.037 182.34 129.097 182.06 129.097C181.779 129.097 181.502 129.037 181.247 128.922L176.715 126.867H174.802L180.92 129.64C181.278 129.802 181.666 129.885 182.06 129.885C182.453 129.885 182.841 129.802 183.2 129.64L189.317 126.867L208.464 118.189H206.551ZM206.551 118.189L187.404 126.867L182.872 128.922C182.617 129.037 182.34 129.097 182.06 129.097C181.779 129.097 181.502 129.037 181.247 128.922L176.715 126.867H174.802L180.92 129.64C181.278 129.802 181.666 129.885 182.06 129.885C182.453 129.885 182.841 129.802 183.2 129.64L189.317 126.867L208.464 118.189H206.551ZM270.811 91.0548C270.665 90.91 270.505 90.7805 270.333 90.6682C269.946 90.417 269.501 90.2676 269.041 90.2338C268.58 90.2 268.118 90.283 267.698 90.475L225.717 109.503L206.551 118.189L187.404 126.867L182.872 128.922C182.617 129.037 182.34 129.097 182.06 129.097C181.779 129.097 181.502 129.037 181.247 128.922L176.715 126.867L171.993 124.725L143.447 111.791L143.439 111.787L135.656 108.257L112.42 97.725L96.4207 90.475C96.2579 90.3997 96.0872 90.3428 95.9118 90.3054C95.5255 90.2088 95.1223 90.2007 94.7323 90.2817C94.1085 90.4094 93.5478 90.7483 93.1447 91.2412C92.7417 91.7341 92.5208 92.3509 92.5195 92.9876V192.046C92.5203 192.778 92.8115 193.48 93.3291 193.997C93.8468 194.515 94.5486 194.806 95.2807 194.807H268.839C269.571 194.806 270.272 194.515 270.79 193.997C271.308 193.48 271.599 192.778 271.6 192.046V92.9876C271.601 92.2647 271.318 91.5703 270.811 91.0548V91.0548ZM270.811 192.046C270.811 192.569 270.603 193.07 270.233 193.44C269.863 193.81 269.361 194.018 268.838 194.018H95.2807C94.7577 194.018 94.2561 193.81 93.8863 193.44C93.5165 193.07 93.3086 192.569 93.3084 192.046V92.9876C93.3086 92.658 93.3913 92.3337 93.5491 92.0443C93.7069 91.7549 93.9347 91.5096 94.2117 91.3309C94.4066 91.2061 94.6213 91.1154 94.8467 91.0627C94.9131 91.0483 94.9803 91.0378 95.048 91.0311C95.125 91.02 95.2028 91.0147 95.2807 91.0154C95.5611 91.0157 95.8382 91.0763 96.0932 91.1929L112.794 98.7624L135.893 109.231L142.386 112.174L143.439 112.651L170.928 125.112L174.802 126.867L180.92 129.64C181.278 129.802 181.666 129.885 182.06 129.885C182.453 129.885 182.841 129.802 183.2 129.64L189.317 126.867L208.464 118.189L226.309 110.099L268.026 91.1929C268.326 91.0569 268.656 90.9982 268.984 91.0224C269.313 91.0465 269.63 91.1526 269.907 91.3309C269.939 91.3496 269.969 91.3707 269.998 91.394C270.03 91.4143 270.059 91.4381 270.085 91.465C270.312 91.6486 270.495 91.8806 270.62 92.1441C270.746 92.4075 270.811 92.6958 270.811 92.9876L270.811 192.046ZM206.551 118.189L187.404 126.867L182.872 128.922C182.617 129.037 182.34 129.097 182.06 129.097C181.779 129.097 181.502 129.037 181.247 128.922L176.715 126.867H174.802L180.92 129.64C181.278 129.802 181.666 129.885 182.06 129.885C182.453 129.885 182.841 129.802 183.2 129.64L189.317 126.867L208.464 118.189H206.551ZM206.551 118.189L187.404 126.867L182.872 128.922C182.617 129.037 182.34 129.097 182.06 129.097C181.779 129.097 181.502 129.037 181.247 128.922L176.715 126.867H174.802L180.92 129.64C181.278 129.802 181.666 129.885 182.06 129.885C182.453 129.885 182.841 129.802 183.2 129.64L189.317 126.867L208.464 118.189H206.551ZM142.386 112.174L143.439 112.651V111.791L142.386 112.174ZM206.551 118.189L187.404 126.867L182.872 128.922C182.617 129.037 182.34 129.097 182.06 129.097C181.779 129.097 181.502 129.037 181.247 128.922L176.715 126.867H174.802L180.92 129.64C181.278 129.802 181.666 129.885 182.06 129.885C182.453 129.885 182.841 129.802 183.2 129.64L189.317 126.867L208.464 118.189H206.551Z" fill="#3F3D56"/>
<path d="M69.2363 194.807H24.6635C24.5589 194.807 24.4585 194.765 24.3846 194.691C24.3106 194.617 24.269 194.517 24.269 194.412C24.269 194.308 24.3106 194.208 24.3846 194.134C24.4585 194.06 24.5589 194.018 24.6635 194.018H69.2363C69.3409 194.018 69.4412 194.06 69.5152 194.134C69.5892 194.208 69.6307 194.308 69.6307 194.412C69.6307 194.517 69.5892 194.617 69.5152 194.691C69.4412 194.765 69.3409 194.807 69.2363 194.807Z" fill="#3F3D56"/>
<path d="M44.3314 67.6424C43.6037 67.2731 42.9987 66.7009 42.5894 65.9948C42.1802 65.2888 41.9844 64.4793 42.0257 63.6643C42.067 62.8493 42.3437 62.0638 42.8222 61.4028C43.3007 60.7417 43.9605 60.2336 44.7219 59.9398C47.6453 58.8116 50.9227 61.114 53.9872 60.4594C57.0415 59.807 58.8084 56.1554 58.0794 53.1185C57.3503 50.0815 54.6968 47.794 51.7708 46.7015C49.8599 45.9898 47.8133 45.717 45.7827 45.9031C43.752 46.0892 41.7892 46.7296 40.0394 47.7769C38.3078 48.8548 36.8655 50.3393 35.8382 52.1015C34.8109 53.8637 34.2295 55.8501 34.1445 57.8881C34.1048 59.9279 34.6031 61.9422 35.5895 63.7281C36.5758 65.514 38.0153 67.0086 39.7629 68.0612C40.5418 68.5102 41.4484 68.8706 42.3244 68.6685C43.0435 68.4349 43.721 68.0886 44.3314 67.6424Z" fill="#2F2E41"/>
<path d="M41.1917 47.5407C38.6138 44.1215 35.1339 41.3125 31.0845 39.9198C27.0352 38.5272 22.4077 38.639 18.6047 40.6071C14.8016 42.5752 11.9654 46.4839 11.6693 50.7558C11.1766 57.8656 17.2518 63.9092 17.8752 71.0088C18.0729 73.2591 17.7076 75.5233 16.8124 77.5973C15.9171 79.6713 14.5201 81.4901 12.747 82.8898C10.9739 84.2895 8.88043 85.2261 6.65523 85.6154C4.43003 86.0046 2.14296 85.8342 0 85.1196C1.52634 86.376 3.296 87.3032 5.19783 87.8429C7.09966 88.3826 9.09256 88.5232 11.0513 88.2559C13.0069 87.9624 14.8726 87.2374 16.5133 86.1334C18.1539 85.0294 19.5283 83.5742 20.5367 81.8732C21.904 79.4977 22.4654 76.7382 22.6835 74.0059C23.0261 69.6857 22.5622 65.3395 21.3157 61.189C20.6343 58.9244 19.7101 56.5939 20.1423 54.2689C20.3886 53.0595 20.9848 51.9491 21.8569 51.0758C22.7289 50.2025 23.8384 49.6046 25.0474 49.3565C27.0012 48.9904 28.9989 49.5867 30.8645 50.273C32.7301 50.9593 34.6111 51.7534 36.5984 51.7989C38.5857 51.8443 40.7503 50.9346 41.5183 49.1012L41.1917 47.5407Z" fill="#2F2E41"/>
</g>
<defs>
<clipPath id="clip0">
<rect width="300" height="194.807" fill="white"/>
</clipPath>
</defs>
</svg>
