<svg width="50" height="50" viewBox="0 0 50 50" fill="none" xmlns="http://www.w3.org/2000/svg">
<circle opacity="0.2" cx="25" cy="25" r="25" fill="#FCD462"/>
<path d="M19.7196 15.7412L15.6806 27.2603C15.4907 27.802 15.7759 28.3952 16.3176 28.5852L34.2922 34.8877C34.834 35.0777 35.4271 34.7925 35.6171 34.2507L39.6561 22.7317C39.846 22.1899 39.5609 21.5967 39.0191 21.4068L21.0445 15.1042C20.5027 14.9143 19.9096 15.1995 19.7196 15.7412Z" fill="#FCD462"/>
<path d="M39.6421 22.738L35.6075 34.2494C35.5628 34.3784 35.4931 34.4973 35.4024 34.5994C35.3117 34.7014 35.2017 34.7845 35.0787 34.844C34.9558 34.9035 34.8224 34.9381 34.686 34.9459C34.5497 34.9536 34.4132 34.9344 34.2843 34.8894L34.2065 34.8634C34.2229 34.8378 34.236 34.8102 34.2454 34.7813L38.2843 23.2656C38.3295 23.137 38.3489 23.0007 38.3414 22.8646C38.3339 22.7285 38.2996 22.5952 38.2406 22.4723C38.1816 22.3494 38.0989 22.2394 37.9973 22.1484C37.8958 22.0575 37.7773 21.9875 37.6486 21.9423L19.7502 15.6678C19.8549 15.4292 20.0459 15.2391 20.285 15.1357C20.524 15.0322 20.7934 15.023 21.0389 15.1099L39.0065 21.4105C39.2667 21.5023 39.4799 21.6937 39.5991 21.9427C39.7183 22.1916 39.7337 22.4777 39.6421 22.738Z" fill="#F7BE56"/>
<path d="M28.0876 25.5186C27.8157 25.5186 27.5477 25.4548 27.3049 25.3325C27.0621 25.2102 26.8514 25.0327 26.6895 24.8142L19.7581 15.5134C19.7237 15.4676 19.7089 15.4099 19.717 15.3531C19.7251 15.2964 19.7555 15.2451 19.8013 15.2107C19.8472 15.1763 19.9049 15.1615 19.9616 15.1697C20.0184 15.1778 20.0696 15.2081 20.104 15.254L27.0351 24.5556C27.191 24.767 27.4069 24.9266 27.6548 25.0135C27.9027 25.1005 28.1711 25.1107 28.4249 25.0429L39.6405 22.0592C39.6959 22.0444 39.755 22.0522 39.8046 22.081C39.8543 22.1097 39.8905 22.157 39.9053 22.2125C39.9201 22.2679 39.9123 22.327 39.8835 22.3766C39.8548 22.4263 39.8075 22.4625 39.752 22.4773L28.536 25.4611C28.3896 25.4993 28.2389 25.5186 28.0876 25.5186Z" fill="#323C6B"/>
<path d="M15.6698 28.2543C15.6212 28.2543 15.574 28.238 15.5359 28.2078C15.4977 28.1777 15.4708 28.1356 15.4595 28.0884C15.4482 28.0411 15.4532 27.9914 15.4736 27.9473C15.494 27.9032 15.5287 27.8672 15.5721 27.8453L25.525 22.8265C25.5762 22.8006 25.6356 22.7961 25.6901 22.814C25.7446 22.832 25.7897 22.8708 25.8156 22.922C25.8414 22.9732 25.8459 23.0326 25.828 23.0871C25.81 23.1416 25.7712 23.1867 25.72 23.2126L15.7671 28.2314C15.7369 28.2466 15.7036 28.2544 15.6698 28.2543Z" fill="#323C6B"/>
<path d="M35.0726 34.9543C35.0312 34.9543 34.9906 34.9424 34.9557 34.92C34.9208 34.8976 34.8931 34.8657 34.8759 34.828L30.2895 24.8107C30.2656 24.7585 30.2635 24.699 30.2835 24.6452C30.3035 24.5914 30.3441 24.5478 30.3963 24.524C30.4485 24.5001 30.508 24.498 30.5618 24.518C30.6155 24.538 30.6591 24.5786 30.683 24.6308L35.2694 34.6481C35.2845 34.681 35.291 34.7172 35.2884 34.7534C35.2859 34.7895 35.2742 34.8244 35.2547 34.8549C35.2351 34.8854 35.2081 34.9105 35.1763 34.9278C35.1445 34.9452 35.1089 34.9543 35.0726 34.9543Z" fill="#323C6B"/>
<path d="M16.8317 17.6007C16.8074 17.6008 16.7833 17.5967 16.7604 17.5886L10.2259 15.2967C10.198 15.2883 10.1721 15.2743 10.1497 15.2555C10.1273 15.2368 10.109 15.2137 10.0957 15.1877C10.0825 15.1617 10.0747 15.1333 10.0727 15.1042C10.0708 15.0751 10.0748 15.0459 10.0844 15.0183C10.094 14.9908 10.1091 14.9655 10.1288 14.9439C10.1485 14.9224 10.1723 14.9051 10.1989 14.893C10.2254 14.8809 10.2542 14.8743 10.2833 14.8736C10.3125 14.8729 10.3415 14.8781 10.3686 14.8889L16.9031 17.1808C16.9513 17.1977 16.992 17.231 17.018 17.275C17.0439 17.319 17.0535 17.3708 17.0449 17.4211C17.0364 17.4715 17.0103 17.5172 16.9713 17.5501C16.9322 17.5831 16.8828 17.6012 16.8317 17.6011V17.6007Z" fill="#323C6B"/>
<path d="M15.6396 21.0016C15.6153 21.0017 15.5912 20.9976 15.5682 20.9895L10.7142 19.2874C10.6863 19.279 10.6603 19.265 10.638 19.2463C10.6156 19.2275 10.5972 19.2045 10.584 19.1785C10.5708 19.1524 10.563 19.124 10.561 19.0949C10.5591 19.0658 10.563 19.0366 10.5727 19.0091C10.5823 18.9815 10.5974 18.9562 10.6171 18.9347C10.6368 18.9131 10.6606 18.8958 10.6872 18.8837C10.7137 18.8716 10.7425 18.865 10.7716 18.8643C10.8008 18.8636 10.8298 18.8688 10.8569 18.8797L15.7109 20.5817C15.7592 20.5986 15.7999 20.6319 15.8258 20.6759C15.8518 20.7199 15.8613 20.7717 15.8528 20.822C15.8442 20.8724 15.8181 20.9181 15.7791 20.951C15.7401 20.984 15.6907 21.002 15.6396 21.002V21.0016Z" fill="#323C6B"/>
<path d="M14.4487 24.4024C14.4244 24.4025 14.4002 24.3984 14.3773 24.3903L11.0952 23.2396C11.0672 23.2311 11.0413 23.2171 11.0189 23.1984C10.9966 23.1797 10.9782 23.1566 10.965 23.1306C10.9518 23.1046 10.944 23.0762 10.942 23.0471C10.9401 23.0179 10.944 22.9887 10.9537 22.9612C10.9633 22.9337 10.9784 22.9084 10.9981 22.8868C11.0178 22.8653 11.0416 22.8479 11.0682 22.8358C11.0947 22.8238 11.1234 22.8172 11.1526 22.8165C11.1818 22.8158 11.2108 22.821 11.2379 22.8318L14.52 23.9825C14.5683 23.9994 14.6089 24.0327 14.6349 24.0767C14.6609 24.1207 14.6704 24.1724 14.6619 24.2228C14.6533 24.2732 14.6272 24.3189 14.5882 24.3518C14.5492 24.3848 14.4998 24.4028 14.4487 24.4028V24.4024Z" fill="#323C6B"/>
<path d="M32.7794 35.952C32.7551 35.9521 32.731 35.948 32.7081 35.9399L29.5405 34.8294C29.5126 34.821 29.4866 34.807 29.4643 34.7882C29.4419 34.7695 29.4235 34.7465 29.4103 34.7204C29.3971 34.6944 29.3893 34.666 29.3873 34.6369C29.3854 34.6078 29.3893 34.5786 29.399 34.551C29.4086 34.5235 29.4237 34.4982 29.4434 34.4767C29.4631 34.4551 29.4869 34.4378 29.5135 34.4257C29.54 34.4136 29.5687 34.407 29.5979 34.4063C29.6271 34.4056 29.6561 34.4108 29.6832 34.4216L32.8499 35.5317C32.8981 35.5486 32.9388 35.5819 32.9648 35.6259C32.9907 35.6699 33.0003 35.7216 32.9917 35.772C32.9832 35.8223 32.9571 35.868 32.9181 35.901C32.879 35.934 32.8296 35.952 32.7785 35.952H32.7794Z" fill="#323C6B"/>
<path d="M28.5407 34.4658C28.5164 34.4659 28.4922 34.4618 28.4693 34.4537L28.2804 34.3875C28.2524 34.3791 28.2265 34.3651 28.2041 34.3464C28.1818 34.3276 28.1634 34.3046 28.1502 34.2785C28.137 34.2525 28.1291 34.2241 28.1272 34.195C28.1252 34.1659 28.1292 34.1367 28.1388 34.1092C28.1485 34.0816 28.1636 34.0563 28.1833 34.0348C28.2029 34.0132 28.2268 33.9959 28.2533 33.9838C28.2799 33.9717 28.3086 33.9651 28.3378 33.9644C28.367 33.9637 28.396 33.9689 28.4231 33.9798L28.6125 34.0459C28.6607 34.0628 28.7014 34.0961 28.7273 34.1401C28.7533 34.1841 28.7628 34.2359 28.7543 34.2862C28.7457 34.3366 28.7197 34.3823 28.6806 34.4152C28.6416 34.4482 28.5922 34.4662 28.5411 34.4662L28.5407 34.4658Z" fill="#323C6B"/>
<path d="M18.5594 15.3783C18.5235 15.3782 18.4882 15.3693 18.4566 15.3522C18.425 15.3351 18.3982 15.3105 18.3785 15.2804C18.3589 15.2504 18.347 15.2159 18.344 15.1802C18.341 15.1444 18.347 15.1084 18.3613 15.0756C18.5586 14.6199 18.8847 14.2318 19.2996 13.9589C19.7144 13.686 20.1999 13.5403 20.6964 13.5396C20.9431 13.5414 21.1882 13.5796 21.4238 13.6528C21.4518 13.6602 21.4781 13.6732 21.501 13.6909C21.5239 13.7086 21.543 13.7307 21.5572 13.756C21.5714 13.7812 21.5804 13.8091 21.5836 13.8379C21.5869 13.8667 21.5843 13.8958 21.576 13.9236C21.5677 13.9514 21.554 13.9772 21.5355 13.9995C21.5171 14.0219 21.4944 14.0403 21.4687 14.0537C21.443 14.0671 21.4149 14.0752 21.386 14.0775C21.3571 14.0798 21.328 14.0763 21.3006 14.0671C20.806 13.9122 20.2714 13.9475 19.8014 14.166C19.3314 14.3845 18.9599 14.7705 18.7596 15.2485C18.7426 15.2874 18.7146 15.3204 18.679 15.3435C18.6434 15.3666 18.6018 15.3787 18.5594 15.3783Z" fill="#323C6B"/>
<path d="M22.3332 14.4054C22.3087 14.4054 22.2845 14.4013 22.2614 14.3933L22.1715 14.3617C22.1441 14.3528 22.1187 14.3384 22.097 14.3196C22.0752 14.3007 22.0574 14.2777 22.0447 14.2518C22.0319 14.226 22.0245 14.1979 22.0227 14.1691C22.021 14.1403 22.025 14.1115 22.0346 14.0844C22.0442 14.0572 22.0591 14.0322 22.0784 14.0109C22.0978 13.9895 22.1212 13.9723 22.1474 13.9601C22.1735 13.948 22.2018 13.9412 22.2306 13.9401C22.2594 13.939 22.2881 13.9437 22.315 13.9539L22.405 13.9855C22.4532 14.0023 22.4939 14.0358 22.5199 14.0798C22.5458 14.1238 22.5554 14.1756 22.5468 14.226C22.5382 14.2764 22.512 14.3221 22.4729 14.355C22.4338 14.3879 22.3843 14.4059 22.3332 14.4058V14.4054Z" fill="#323C6B"/>
<path d="M34.625 35.1619C34.4839 35.1619 34.3438 35.1379 34.2107 35.091L16.2427 28.7922C15.9287 28.6818 15.6713 28.4513 15.5269 28.1514C15.3826 27.8514 15.3632 27.5064 15.473 27.1922L19.508 15.6769C19.6188 15.3632 19.8493 15.1061 20.1492 14.962C20.4491 14.8179 20.7939 14.7985 21.108 14.9081L39.0786 21.2073C39.3926 21.3177 39.6499 21.5482 39.7942 21.8482C39.9384 22.1482 39.9577 22.4931 39.8479 22.8073L35.8107 34.3225C35.7242 34.5679 35.5636 34.7804 35.3513 34.9307C35.1389 35.081 34.8852 35.1618 34.625 35.1619ZM19.918 15.8201L15.8808 27.3349C15.8089 27.5409 15.8216 27.7671 15.9162 27.9637C16.0108 28.1604 16.1796 28.3115 16.3854 28.3839L34.3534 34.6836C34.5596 34.7555 34.7858 34.7428 34.9825 34.6482C35.1792 34.5536 35.3304 34.3849 35.403 34.179L39.4401 22.6646C39.512 22.4586 39.4992 22.2325 39.4047 22.0359C39.3102 21.8393 39.1416 21.6881 38.9359 21.6155L20.9675 15.3158C20.7614 15.2439 20.5352 15.2566 20.3384 15.3512C20.1417 15.4458 19.9905 15.6146 19.918 15.8205V15.8201Z" fill="#323C6B"/>
<path d="M22.2709 26.2005L19.6763 27.4459C19.6456 27.4607 19.6123 27.4693 19.5782 27.4712C19.5442 27.473 19.5101 27.4682 19.478 27.4569C19.4458 27.4456 19.4162 27.4281 19.3908 27.4054C19.3654 27.3827 19.3447 27.3552 19.3299 27.3244C19.3152 27.2937 19.3066 27.2604 19.3047 27.2263C19.3028 27.1923 19.3077 27.1582 19.319 27.1261C19.3302 27.0939 19.3477 27.0643 19.3705 27.0389C19.3932 27.0135 19.4207 26.9928 19.4514 26.9781L22.046 25.7326C22.0768 25.7179 22.1101 25.7093 22.1441 25.7074C22.1782 25.7055 22.2122 25.7104 22.2444 25.7217C22.2766 25.7329 22.3062 25.7505 22.3316 25.7732C22.357 25.7959 22.3777 25.8234 22.3924 25.8542C22.4072 25.8849 22.4158 25.9182 22.4176 25.9522C22.4195 25.9863 22.4147 26.0204 22.4034 26.0525C22.3921 26.0847 22.3746 26.1143 22.3519 26.1397C22.3291 26.1651 22.3016 26.1858 22.2709 26.2005Z" fill="white"/>
<path d="M23.2102 25.7645L23.1111 25.8138C23.0804 25.8286 23.0471 25.8371 23.013 25.839C22.979 25.8409 22.9449 25.8361 22.9128 25.8248C22.8806 25.8135 22.851 25.796 22.8256 25.7733C22.8002 25.7505 22.7795 25.723 22.7648 25.6923C22.75 25.6616 22.7414 25.6282 22.7395 25.5942C22.7376 25.5602 22.7425 25.5261 22.7538 25.4939C22.7651 25.4618 22.7826 25.4321 22.8053 25.4067C22.828 25.3813 22.8555 25.3607 22.8863 25.3459L22.9853 25.2966C23.0473 25.2668 23.1187 25.2628 23.1836 25.2856C23.2486 25.3084 23.3019 25.3561 23.3317 25.4181C23.3615 25.4802 23.3654 25.5515 23.3427 25.6165C23.3199 25.6814 23.2722 25.7347 23.2102 25.7645Z" fill="white"/>
</svg>
