<svg width="20" height="20" viewBox="0 0 20 20" fill="none" xmlns="http://www.w3.org/2000/svg">
<path d="M18.9806 5.94095C20.3397 4.582 20.3398 2.37855 18.9809 1.01944C18.3282 0.366599 17.4428 -9.21515e-05 16.5197 1.43827e-05L18.9806 5.94095ZM18.9806 5.94095L7.00595 17.9155L18.9806 5.94095ZM16.5168 1.00001L16.5198 1.00001C17.1777 0.999938 17.8086 1.26126 18.2738 1.72649C19.2422 2.69504 19.2421 4.26533 18.2735 5.2338L18.2735 5.23384L6.31351 17.1937L1.05308 18.9472L2.80723 13.6847L14.7658 1.72717L14.7683 1.72474C15.2307 1.25912 15.8604 0.998118 16.5168 1.00001ZM6.29828 17.209C6.29847 17.2088 6.29866 17.2086 6.29885 17.2084L6.29828 17.209Z" fill="white" stroke="#4F4F4F" stroke-width="2"/>
</svg>
