<svg width="50" height="50" viewBox="0 0 50 50" fill="none" xmlns="http://www.w3.org/2000/svg">
<circle opacity="0.2" cx="25" cy="25" r="25" fill="#2FA8CC"/>
<g clip-path="url(#clip0)">
<path d="M30.158 20.3896H11.4407C10.2426 20.3896 9.27124 21.361 9.27124 22.5591V38.8304C9.27124 40.0285 10.2426 40.9998 11.4407 40.9998H36.3899C37.5881 40.9998 38.5594 40.0285 38.5594 38.8304V28.791L30.158 20.3896Z" fill="#2FA8CC"/>
<path d="M17.4068 33.9492H38.5594V37.7458H9.27124V33.9492H13.0679H17.4068Z" fill="#35495E"/>
<path d="M13.6103 26.3563C14.5089 26.3563 15.2374 25.6278 15.2374 24.7292C15.2374 23.8305 14.5089 23.1021 13.6103 23.1021C12.7116 23.1021 11.9832 23.8305 11.9832 24.7292C11.9832 25.6278 12.7116 26.3563 13.6103 26.3563Z" fill="#ECF0F1"/>
<path d="M16.8644 26.3563C17.7631 26.3563 18.4915 25.6278 18.4915 24.7292C18.4915 23.8305 17.7631 23.1021 16.8644 23.1021C15.9658 23.1021 15.2373 23.8305 15.2373 24.7292C15.2373 25.6278 15.9658 26.3563 16.8644 26.3563Z" fill="#E64C3C"/>
<path d="M34.7627 30.1524C38.0577 30.1524 40.7288 27.4813 40.7288 24.1863C40.7288 20.8913 38.0577 18.2202 34.7627 18.2202C31.4677 18.2202 28.7966 20.8913 28.7966 24.1863C28.7966 27.4813 31.4677 30.1524 34.7627 30.1524Z" fill="#F0C419"/>
<path d="M23.3729 22.5593C25.7693 22.5593 27.7119 20.6167 27.7119 18.2203C27.7119 15.824 25.7693 13.8813 23.3729 13.8813C20.9766 13.8813 19.0339 15.824 19.0339 18.2203C19.0339 20.6167 20.9766 22.5593 23.3729 22.5593Z" fill="#F0C419"/>
<path d="M32.0508 17.1359C31.7513 17.1359 31.5084 16.893 31.5084 16.5935V13.3392C31.5084 13.0397 31.7513 12.7969 32.0508 12.7969C32.3503 12.7969 32.5932 13.0397 32.5932 13.3392V16.5935C32.5932 16.893 32.3503 17.1359 32.0508 17.1359Z" fill="#F3D55B"/>
<path d="M32.0508 11.712C31.7513 11.712 31.5084 11.4691 31.5084 11.1696V10.0849C31.5084 9.78531 31.7513 9.54248 32.0508 9.54248C32.3503 9.54248 32.5932 9.78531 32.5932 10.0849V11.1696C32.5932 11.4691 32.3503 11.712 32.0508 11.712Z" fill="#F3D55B"/>
<path d="M35.3051 16.5932C35.0055 16.5932 34.7627 16.3504 34.7627 16.0508V9.54237C34.7627 9.24283 35.0055 9 35.3051 9C35.6046 9 35.8474 9.24283 35.8474 9.54237V16.0508C35.8474 16.3504 35.6046 16.5932 35.3051 16.5932Z" fill="#F3D55B"/>
<path d="M38.0169 17.1358C37.7173 17.1358 37.4745 16.893 37.4745 16.5934V15.5087C37.4745 15.2091 37.7173 14.9663 38.0169 14.9663C38.3164 14.9663 38.5592 15.2091 38.5592 15.5087V16.5934C38.5592 16.893 38.3164 17.1358 38.0169 17.1358Z" fill="#F3D55B"/>
<path d="M38.0169 13.8815C37.7173 13.8815 37.4745 13.6387 37.4745 13.3391V12.7968C37.4745 12.4972 37.7173 12.2544 38.0169 12.2544C38.3164 12.2544 38.5592 12.4972 38.5592 12.7968V13.3391C38.5592 13.6387 38.3164 13.8815 38.0169 13.8815Z" fill="#F3D55B"/>
<path d="M20.1187 11.1695C19.8191 11.1695 19.5763 10.9267 19.5763 10.6271V9.54237C19.5763 9.24283 19.8191 9 20.1187 9C20.4182 9 20.661 9.24283 20.661 9.54237V10.6271C20.661 10.9267 20.4182 11.1695 20.1187 11.1695Z" fill="#F3D55B"/>
<path d="M20.1187 13.339C19.8191 13.339 19.5763 13.0962 19.5763 12.7967V12.2543C19.5763 11.9547 19.8191 11.7119 20.1187 11.7119C20.4182 11.7119 20.661 11.9547 20.661 12.2543V12.7967C20.661 13.0962 20.4182 13.339 20.1187 13.339Z" fill="#F3D55B"/>
<path d="M23.3729 12.2542C23.0734 12.2542 22.8306 12.0114 22.8306 11.7119V9.54237C22.8306 9.24283 23.0734 9 23.3729 9C23.6725 9 23.9153 9.24283 23.9153 9.54237V11.7119C23.9153 12.0114 23.6725 12.2542 23.3729 12.2542Z" fill="#F3D55B"/>
<path d="M26.0847 13.3389C25.7852 13.3389 25.5424 13.0961 25.5424 12.7965V11.7118C25.5424 11.4123 25.7852 11.1694 26.0847 11.1694C26.3843 11.1694 26.6271 11.4123 26.6271 11.7118V12.7965C26.6271 13.0961 26.3843 13.3389 26.0847 13.3389Z" fill="#F3D55B"/>
<path d="M13.6103 31.2376H12.5255C12.226 31.2376 11.9832 30.9948 11.9832 30.6952C11.9832 30.3957 12.226 30.1528 12.5255 30.1528H13.6103C13.9098 30.1528 14.1526 30.3957 14.1526 30.6952C14.1526 30.9948 13.9098 31.2376 13.6103 31.2376Z" fill="#547580"/>
<path d="M20.1187 31.2376H15.7797C15.4801 31.2376 15.2373 30.9948 15.2373 30.6952C15.2373 30.3957 15.4801 30.1528 15.7797 30.1528H20.1187C20.4182 30.1528 20.661 30.3957 20.661 30.6952C20.661 30.9948 20.4182 31.2376 20.1187 31.2376Z" fill="#547580"/>
<path d="M34.7628 23.6442C34.2666 23.6458 33.8331 23.3094 33.7114 22.8285C33.5896 22.3475 33.8109 21.8454 34.248 21.6108C34.3043 21.8499 34.5177 22.0188 34.7633 22.0188C35.0089 22.0188 35.2222 21.8499 35.2785 21.6108C35.628 21.7985 35.8465 22.1627 35.8475 22.5594C35.8475 22.859 36.0903 23.1018 36.3899 23.1018C36.6894 23.1018 36.9322 22.859 36.9322 22.5594C36.9285 21.5732 36.2601 20.7135 35.3051 20.4669V19.8475C35.3051 19.548 35.0623 19.3052 34.7628 19.3052C34.4632 19.3052 34.2204 19.548 34.2204 19.8475V20.4669C33.1637 20.7389 32.4745 21.7547 32.6122 22.8371C32.75 23.9195 33.6716 24.7303 34.7628 24.7289C35.2589 24.7273 35.6924 25.0636 35.8141 25.5446C35.9359 26.0256 35.7146 26.5276 35.2775 26.7623C35.2212 26.5232 35.0078 26.3543 34.7622 26.3543C34.5166 26.3543 34.3033 26.5232 34.247 26.7623C33.8975 26.5746 33.679 26.2104 33.678 25.8137C33.678 25.5141 33.4352 25.2713 33.1356 25.2713C32.8361 25.2713 32.5933 25.5141 32.5933 25.8137C32.597 26.7999 33.2654 27.6596 34.2204 27.9061V28.5255C34.2204 28.8251 34.4632 29.0679 34.7628 29.0679C35.0623 29.0679 35.3051 28.8251 35.3051 28.5255V27.9061C36.3618 27.6342 37.051 26.6184 36.9133 25.536C36.7755 24.4536 35.8539 23.6428 34.7628 23.6442Z" fill="#E57E25"/>
<path d="M25 19.3053C25 18.4067 24.2715 17.6782 23.3729 17.6782C23.1058 17.6768 22.8795 17.4813 22.8394 17.2173C22.7993 16.9532 22.9573 16.6993 23.2119 16.6187C23.4665 16.5381 23.7419 16.6549 23.861 16.8939C23.9958 17.1617 24.3222 17.2695 24.59 17.1347C24.8578 16.9999 24.9656 16.6736 24.8308 16.4058C24.6413 16.0299 24.3129 15.7426 23.9153 15.6047V15.5087C23.9153 15.2091 23.6724 14.9663 23.3729 14.9663C23.0733 14.9663 22.8305 15.2091 22.8305 15.5087V15.6085C22.0839 15.8714 21.6358 16.6346 21.77 17.4147C21.9041 18.1948 22.5813 18.7644 23.3729 18.7629C23.6399 18.7642 23.8663 18.9598 23.9064 19.2238C23.9465 19.4878 23.7885 19.7418 23.5339 19.8224C23.2793 19.903 23.0039 19.7862 22.8848 19.5472C22.7976 19.374 22.6246 19.2604 22.4309 19.2493C22.2373 19.2382 22.0525 19.3312 21.9461 19.4934C21.8396 19.6555 21.8278 19.8621 21.915 20.0353C22.1045 20.4112 22.4328 20.6985 22.8305 20.8364V20.9324C22.8305 21.232 23.0733 21.4748 23.3729 21.4748C23.6724 21.4748 23.9153 21.232 23.9153 20.9324V20.8326C24.563 20.6036 24.9972 19.9924 25 19.3053Z" fill="#E57E25"/>
</g>
<defs>
<clipPath id="clip0">
<rect width="32" height="32" fill="white" transform="translate(9 9)"/>
</clipPath>
</defs>
</svg>
