<svg width="215" height="50" viewBox="0 0 215 50" fill="none" xmlns="http://www.w3.org/2000/svg">
<path d="M67.84 32.144C66.3573 32.144 65.232 31.7547 64.464 30.976C63.696 30.1867 63.312 29.04 63.312 27.536V20.72H64.624V27.472C64.624 29.808 65.696 30.976 67.84 30.976C69.9627 30.976 71.024 29.808 71.024 27.472V20.72H72.336V27.536C72.336 29.04 71.952 30.1867 71.184 30.976C70.4267 31.7547 69.312 32.144 67.84 32.144ZM77.4806 32.144C76.8726 32.144 76.2966 32.0587 75.7526 31.888C75.2086 31.7173 74.7606 31.4773 74.4086 31.168L74.8246 30.256C75.2086 30.5653 75.63 30.7947 76.0886 30.944C76.558 31.0827 77.0326 31.152 77.5126 31.152C78.1206 31.152 78.5793 31.04 78.8886 30.816C79.198 30.592 79.3526 30.288 79.3526 29.904C79.3526 29.6053 79.2513 29.3707 79.0486 29.2C78.846 29.0187 78.526 28.88 78.0886 28.784L76.6326 28.464C75.31 28.176 74.6486 27.4933 74.6486 26.416C74.6486 25.712 74.926 25.1467 75.4806 24.72C76.046 24.2933 76.782 24.08 77.6886 24.08C78.222 24.08 78.7286 24.1653 79.2086 24.336C79.6993 24.496 80.1046 24.736 80.4246 25.056L79.9926 25.968C79.6833 25.68 79.3206 25.4613 78.9046 25.312C78.4993 25.152 78.094 25.072 77.6886 25.072C77.0913 25.072 76.638 25.1893 76.3286 25.424C76.0193 25.6587 75.8646 25.968 75.8646 26.352C75.8646 26.9493 76.2593 27.3333 77.0486 27.504L78.5046 27.808C79.1873 27.9573 79.7046 28.1973 80.0566 28.528C80.4086 28.848 80.5846 29.2853 80.5846 29.84C80.5846 30.5547 80.302 31.12 79.7366 31.536C79.1713 31.9413 78.4193 32.144 77.4806 32.144ZM86.0638 32.144C84.8371 32.144 83.8664 31.7867 83.1518 31.072C82.4371 30.3467 82.0798 29.3653 82.0798 28.128C82.0798 27.328 82.2398 26.624 82.5598 26.016C82.8798 25.3973 83.3171 24.9227 83.8718 24.592C84.4371 24.2507 85.0878 24.08 85.8238 24.08C86.8798 24.08 87.7064 24.4213 88.3038 25.104C88.9011 25.776 89.1998 26.704 89.1998 27.888V28.384H83.3438C83.3864 29.2693 83.6424 29.9467 84.1118 30.416C84.5811 30.8747 85.2318 31.104 86.0638 31.104C86.5331 31.104 86.9811 31.0347 87.4078 30.896C87.8344 30.7467 88.2398 30.5067 88.6238 30.176L89.0718 31.088C88.7198 31.4187 88.2718 31.68 87.7278 31.872C87.1838 32.0533 86.6291 32.144 86.0638 32.144ZM85.8558 25.04C85.1198 25.04 84.5384 25.2693 84.1118 25.728C83.6851 26.1867 83.4344 26.7893 83.3598 27.536H88.0798C88.0478 26.7467 87.8398 26.1333 87.4558 25.696C87.0824 25.2587 86.5491 25.04 85.8558 25.04ZM91.0754 32V24.224H92.3394V25.616C92.7554 24.6773 93.6087 24.16 94.8994 24.064L95.3634 24.016L95.4594 25.136L94.6434 25.232C93.9074 25.296 93.3474 25.5307 92.9634 25.936C92.5794 26.3307 92.3874 26.8747 92.3874 27.568V32H91.0754ZM99.3556 32.144C98.7476 32.144 98.1716 32.0587 97.6276 31.888C97.0836 31.7173 96.6356 31.4773 96.2836 31.168L96.6996 30.256C97.0836 30.5653 97.505 30.7947 97.9636 30.944C98.433 31.0827 98.9076 31.152 99.3876 31.152C99.9956 31.152 100.454 31.04 100.764 30.816C101.073 30.592 101.228 30.288 101.228 29.904C101.228 29.6053 101.126 29.3707 100.924 29.2C100.721 29.0187 100.401 28.88 99.9636 28.784L98.5076 28.464C97.185 28.176 96.5236 27.4933 96.5236 26.416C96.5236 25.712 96.801 25.1467 97.3556 24.72C97.921 24.2933 98.657 24.08 99.5636 24.08C100.097 24.08 100.604 24.1653 101.084 24.336C101.574 24.496 101.98 24.736 102.3 25.056L101.868 25.968C101.558 25.68 101.196 25.4613 100.78 25.312C100.374 25.152 99.969 25.072 99.5636 25.072C98.9663 25.072 98.513 25.1893 98.2036 25.424C97.8943 25.6587 97.7396 25.968 97.7396 26.352C97.7396 26.9493 98.1343 27.3333 98.9236 27.504L100.38 27.808C101.062 27.9573 101.58 28.1973 101.932 28.528C102.284 28.848 102.46 29.2853 102.46 29.84C102.46 30.5547 102.177 31.12 101.612 31.536C101.046 31.9413 100.294 32.144 99.3556 32.144Z" fill="#4F4F4F"/>
<path d="M41.0711 27.9289C39.9819 26.8398 38.6855 26.0335 37.2711 25.5454C38.786 24.502 39.7812 22.7558 39.7812 20.7812C39.7812 17.5935 37.1878 15 34 15C30.8122 15 28.2188 17.5935 28.2188 20.7812C28.2188 22.7558 29.214 24.502 30.729 25.5454C29.3145 26.0335 28.0181 26.8398 26.9289 27.9289C25.0402 29.8177 24 32.3289 24 35H25.5625C25.5625 30.3475 29.3475 26.5625 34 26.5625C38.6525 26.5625 42.4375 30.3475 42.4375 35H44C44 32.3289 42.9598 29.8177 41.0711 27.9289ZM34 25C31.6738 25 29.7812 23.1075 29.7812 20.7812C29.7812 18.455 31.6738 16.5625 34 16.5625C36.3262 16.5625 38.2188 18.455 38.2188 20.7812C38.2188 23.1075 36.3262 25 34 25Z" fill="#4F4F4F"/>
</svg>
