<svg fill="none" xmlns="http://www.w3.org/2000/svg">
<path d="M698.26 -11H-18.6899V900H698.26V-11Z" fill="#CA49E9"/>
<path d="M698.68 79.3611V648.827C697.42 651.891 696.197 655.002 695.01 658.16C655.56 762.52 601.24 843.882 532.01 899.069H-20L-18.92 79.3611H698.68Z" fill="url(#paint0_linear)"/>
<path d="M700 -9.98779V236.387C585.85 326.93 533.66 359.767 489.52 510.041C412.8 771.053 224.89 847.213 -19.7002 709.49L-18.9702 -9.98779H700Z" fill="url(#paint1_linear)" stroke="#993399" stroke-miterlimit="10"/>
<path d="M449.93 212.235C526.12 396.176 399.93 573.406 193.25 508.027C104.18 479.857 107.48 403.394 -17.3604 394.253V-8.75291L419.58 -9.76514C383.95 88.8253 423.54 148.516 449.93 212.235Z" fill="url(#paint2_linear)"/>
<defs>
<linearGradient id="paint0_linear" x1="72.38" y1="21.1583" x2="569.723" y2="872.175" gradientUnits="userSpaceOnUse">
<stop offset="0.01" stop-color="#8362FB"/>
<stop offset="0.11" stop-color="#865CFB"/>
<stop offset="0.24" stop-color="#8F4DFA"/>
<stop offset="0.39" stop-color="#9E33FA"/>
<stop offset="0.49" stop-color="#AC1BF9"/>
<stop offset="0.65" stop-color="#C13EE1"/>
<stop offset="1" stop-color="#EE8AAD"/>
</linearGradient>
<linearGradient id="paint1_linear" x1="-4.6302" y1="718.296" x2="492.041" y2="-131.563" gradientUnits="userSpaceOnUse">
<stop offset="0.01" stop-color="#672FFE"/>
<stop offset="0.07" stop-color="#703EFD"/>
<stop offset="0.23" stop-color="#8460FB"/>
<stop offset="0.29" stop-color="#875BFB"/>
<stop offset="0.37" stop-color="#904CFA"/>
<stop offset="0.44" stop-color="#9E33FA"/>
<stop offset="0.51" stop-color="#AC1BF9"/>
<stop offset="0.59" stop-color="#C247CC"/>
<stop offset="0.7" stop-color="#D9769D"/>
<stop offset="0.78" stop-color="#E79280"/>
<stop offset="0.83" stop-color="#EC9D75"/>
<stop offset="0.99" stop-color="#F2A969"/>
</linearGradient>
<linearGradient id="paint2_linear" x1="184.22" y1="414.477" x2="237.889" y2="113.777" gradientUnits="userSpaceOnUse">
<stop offset="0.02" stop-color="#0CDDD0"/>
<stop offset="0.12" stop-color="#14D9D4"/>
<stop offset="0.29" stop-color="#29CDDD"/>
<stop offset="0.33" stop-color="#2FC9E0"/>
<stop offset="0.46" stop-color="#33BEE7"/>
<stop offset="0.54" stop-color="#36B4ED"/>
<stop offset="0.76" stop-color="#419AF6"/>
<stop offset="1" stop-color="#4C82FE"/>
</linearGradient>
</defs>
</svg>