<svg width="80" height="80" viewBox="0 0 80 80" fill="none" xmlns="http://www.w3.org/2000/svg">
<rect width="80" height="80" rx="10" fill="#FF5A5A" fill-opacity="0.1"/>
<g clip-path="url(#clip0)">
<path d="M18.3202 67.0225C19.6146 67.0225 20.6639 65.9732 20.6639 64.6789C20.6639 63.3845 19.6146 62.3352 18.3202 62.3352C17.0259 62.3352 15.9766 63.3845 15.9766 64.6789C15.9766 65.9732 17.0259 67.0225 18.3202 67.0225Z" fill="#78D2FA"/>
<path d="M61.6798 67.0225C62.9741 67.0225 64.0234 65.9732 64.0234 64.6789C64.0234 63.3845 62.9741 62.3352 61.6798 62.3352C60.3854 62.3352 59.3361 63.3845 59.3361 64.6789C59.3361 65.9732 60.3854 67.0225 61.6798 67.0225Z" fill="#F5C86E"/>
<path d="M18.3202 23.6648C19.6146 23.6648 20.6639 22.6156 20.6639 21.3212C20.6639 20.0268 19.6146 18.9775 18.3202 18.9775C17.0259 18.9775 15.9766 20.0268 15.9766 21.3212C15.9766 22.6156 17.0259 23.6648 18.3202 23.6648Z" fill="#FF5A5A"/>
<path d="M61.6798 23.6648C62.9741 23.6648 64.0234 22.6156 64.0234 21.3212C64.0234 20.0268 62.9741 18.9775 61.6798 18.9775C60.3854 18.9775 59.3361 20.0268 59.3361 21.3212C59.3361 22.6156 60.3854 23.6648 61.6798 23.6648Z" fill="#A5DC69"/>
<path d="M28.766 27.7208L31.741 29.5091L36.299 27.6202L37.1385 24.2507H42.8596L43.699 27.6202L48.257 29.5091L51.232 27.7208L55.2782 31.767L53.4899 34.742L55.3789 39.3L58.7482 40.1395V45.8606L55.3789 46.7L53.4899 51.2581L55.2782 54.233L51.232 58.2793L48.257 56.491L43.699 58.3799L42.8596 61.7493H37.1385L36.299 58.3799L31.741 56.491L28.766 58.2793L24.7198 54.233L26.5081 51.2581L24.6191 46.7L21.2497 45.8606V40.1395L24.6191 39.3L26.5081 34.742L24.7198 31.767L28.766 27.7208Z" fill="#6E87F5"/>
<path d="M39.999 54.5229C46.363 54.5229 51.522 49.364 51.522 43C51.522 36.6361 46.363 31.4771 39.999 31.4771C33.6351 31.4771 28.4761 36.6361 28.4761 43C28.4761 49.364 33.6351 54.5229 39.999 54.5229Z" fill="white"/>
<path d="M56.1152 53.7297L54.5807 51.1768L56.0926 47.5284L58.9844 46.8079C59.4195 46.6996 59.7249 46.3087 59.7249 45.8603V43.9764H64.0216C64.5609 43.9764 64.9981 43.5391 64.9981 42.9999C64.9981 42.4605 64.5609 42.0233 64.0216 42.0233H59.7249V40.1393C59.7249 39.6909 59.4195 39.3001 58.9844 39.1916L56.0926 38.4712L54.5807 34.8228L56.1152 32.2699C56.3463 31.8856 56.2858 31.3933 55.9688 31.0762L51.9225 27.0299C51.6053 26.7128 51.113 26.6525 50.7288 26.8834L48.1759 28.418L44.5274 26.9061L43.807 24.0143C43.6986 23.5792 43.3078 23.2738 42.8594 23.2738H40.9756V18.9773C40.9756 18.4379 40.5384 18.0007 39.999 18.0007C39.4597 18.0007 39.0225 18.4379 39.0225 18.9773V23.274H37.1385C36.69 23.274 36.2993 23.5793 36.1908 24.0145L35.4704 26.9063L31.822 28.4182L29.269 26.8836C28.8846 26.6526 28.3925 26.7129 28.0754 27.0301L24.0291 31.0764C23.712 31.3935 23.6517 31.8858 23.8826 32.2701L25.4172 34.823L23.9053 38.4714L21.0135 39.1918C20.5783 39.3002 20.2729 39.6911 20.2729 40.1395V42.0233H15.9766C15.4372 42.0233 15 42.4605 15 42.9999C15 43.5391 15.4372 43.9764 15.9766 43.9764H20.2732V45.8604C20.2732 46.3088 20.5786 46.6997 21.0138 46.808L23.9056 47.5285L25.4175 51.1769L23.8828 53.7297C23.6518 54.1141 23.7122 54.6064 24.0293 54.9235L28.0756 58.9698C28.3927 59.2868 28.885 59.3471 29.2693 59.1162L31.8222 57.5816L35.4706 59.0935L36.191 61.9852C36.2994 62.4204 36.6902 62.7257 37.1387 62.7257H39.0226V67.0224C39.0226 67.5617 39.4598 67.999 39.9991 67.999C40.5385 67.999 40.9757 67.5617 40.9757 67.0224V62.7257H42.8597C43.3081 62.7257 43.6988 62.4204 43.8073 61.9852L44.5277 59.0935L48.1762 57.5816L50.729 59.1162C51.1134 59.3471 51.6056 59.2868 51.9228 58.9698L55.969 54.9235C56.2857 54.6063 56.3462 54.114 56.1152 53.7297ZM52.653 51.761L54.0481 54.0819L51.0811 57.0491L48.7602 55.654C48.4946 55.4943 48.1692 55.4701 47.8831 55.5887L43.3251 57.4777C43.0391 57.5962 42.8263 57.8433 42.7514 58.1438L42.0964 60.7727H37.9015L37.2465 58.1438C37.1716 57.8433 36.9588 57.5962 36.6728 57.4777L32.1147 55.5887C31.8286 55.4701 31.5032 55.4943 31.2377 55.654L28.9168 57.0491L25.9497 54.0819L27.3448 51.761C27.5044 51.4955 27.5285 51.1701 27.41 50.884L25.5211 46.326C25.4025 46.04 25.1554 45.8272 24.855 45.7523L22.2261 45.0972V40.9023L24.8551 40.2473C25.1555 40.1724 25.4026 39.9596 25.5212 39.6736L27.4101 35.1156C27.5286 34.8294 27.5044 34.5041 27.3449 34.2386L25.9498 31.9177L28.9169 28.9506L31.2378 30.3458C31.5032 30.5053 31.8286 30.5295 32.1147 30.4109L36.6728 28.522C36.9588 28.4035 37.1716 28.1563 37.2465 27.8559L37.9015 25.2269H42.0964L42.7514 27.8559C42.8263 28.1563 43.0391 28.4035 43.3251 28.522L47.8831 30.4109C48.1693 30.5294 48.4946 30.5052 48.7601 30.3458L51.081 28.9506L54.048 31.9177L52.6529 34.2386C52.4934 34.5041 52.4692 34.8294 52.5878 35.1156L54.4767 39.6736C54.5952 39.9596 54.8424 40.1724 55.1428 40.2473L57.7718 40.9023V45.0972L55.1428 45.7523C54.8424 45.8272 54.5952 46.04 54.4767 46.326L52.5878 50.884C52.4692 51.1702 52.4935 51.4956 52.653 51.761Z" fill="black"/>
<path d="M44.3056 31.2626C43.7993 31.077 43.2382 31.3366 43.0524 31.8429C42.8666 32.3492 43.1265 32.9102 43.6327 33.0961C47.7675 34.6136 50.5455 38.5937 50.5455 43.0002C50.5455 48.8156 45.8144 53.5467 39.999 53.5467C34.1837 53.5467 29.4525 48.8155 29.4525 43.0001C29.4525 38.8306 31.9162 35.044 35.7288 33.3536C36.2219 33.135 36.4443 32.5581 36.2257 32.065C36.0071 31.5721 35.4301 31.3495 34.9372 31.5681C30.419 33.5714 27.4995 38.0587 27.4995 43C27.4995 49.8922 33.1067 55.4995 39.999 55.4995C46.8913 55.4995 52.4985 49.8923 52.4985 43.0001C52.4985 37.778 49.206 33.061 44.3056 31.2626Z" fill="black"/>
<path d="M39.999 32.4536L40.045 32.4537C40.046 32.4537 40.047 32.4537 40.0479 32.4537C40.5859 32.4537 41.0228 32.0184 41.0245 31.48C41.0261 30.9406 40.5901 30.5021 40.0508 30.5006L39.999 30.5005C39.4597 30.5005 39.0225 30.9377 39.0225 31.4771C39.0225 32.0164 39.4597 32.4536 39.999 32.4536Z" fill="black"/>
<path d="M47.7787 45.7837V40.0918C47.7787 39.5524 47.3415 39.1152 46.8021 39.1152C46.2628 39.1152 45.8256 39.5524 45.8256 40.0918V45.7837C45.8256 46.323 46.2628 46.7603 46.8021 46.7603C47.3415 46.7603 47.7787 46.323 47.7787 45.7837Z" fill="black"/>
<path d="M39.0779 40.0919V42.039V43.3712V45.7839C39.0779 46.3231 39.5151 46.7604 40.0545 46.7604C40.5939 46.7604 41.0311 46.3231 41.0311 45.7839V44.3478H42.0665C43.4288 44.3478 44.5372 43.2393 44.5372 41.8771V41.5862C44.5372 40.2239 43.4288 39.1155 42.0665 39.1155H40.0546C39.5151 39.1155 39.0779 39.5526 39.0779 40.0919ZM41.0311 41.0685H42.0665C42.352 41.0685 42.5842 41.3007 42.5842 41.5862V41.8771C42.5842 42.1626 42.352 42.3948 42.0665 42.3948H41.0311V42.0391V41.0685Z" fill="black"/>
<path d="M34.6281 39.1155C34.2376 39.1155 33.8847 39.3481 33.7307 39.707L31.2242 45.5482C31.0115 46.0438 31.2409 46.618 31.7366 46.8306C32.2323 47.0432 32.8065 46.8139 33.019 46.3183L34.628 42.5685L36.2371 46.3183C36.3959 46.6884 36.7563 46.9101 37.135 46.9101C37.2634 46.9101 37.394 46.8845 37.5195 46.8307C38.0151 46.618 38.2445 46.0438 38.0318 45.5483L35.5254 39.7071C35.3716 39.348 35.0187 39.1155 34.6281 39.1155Z" fill="black"/>
<path d="M55.7 28.2756C55.9499 28.2756 56.1999 28.1803 56.3905 27.9896L60.126 24.254C60.5899 24.5008 61.1188 24.6413 61.6798 24.6413C63.5106 24.6413 65 23.152 65 21.3211C65 19.4902 63.5106 18.001 61.6798 18.001C59.8489 18.001 58.3596 19.4903 58.3596 21.3212C58.3596 21.8813 58.4995 22.4092 58.7455 22.8724L55.0093 26.6085C54.6279 26.9898 54.6279 27.6082 55.0093 27.9896C55.2001 28.1803 55.4501 28.2756 55.7 28.2756ZM61.6798 19.954C62.4337 19.954 63.0469 20.5673 63.0469 21.3211C63.0469 22.0749 62.4336 22.6882 61.6798 22.6882C60.9259 22.6882 60.3127 22.0749 60.3127 21.3211C60.3127 20.5673 60.926 19.954 61.6798 19.954Z" fill="black"/>
<path d="M23.6076 58.0103L19.8729 61.7453C19.4092 61.4989 18.8809 61.3587 18.3203 61.3587C16.4894 61.3587 15 62.848 15 64.6788C15 66.5095 16.4894 67.999 18.3202 67.999C20.1511 67.999 21.6404 66.5096 21.6404 64.6788C21.6404 64.1181 21.5002 63.5898 21.2538 63.1262L24.9887 59.3913C25.37 59.0099 25.37 58.3916 24.9887 58.0102C24.6072 57.6291 23.9889 57.6291 23.6076 58.0103ZM18.3202 66.046C17.5663 66.046 16.9531 65.4327 16.9531 64.6789C16.9531 63.9251 17.5664 63.3118 18.3202 63.3118C19.074 63.3118 19.6873 63.9251 19.6873 64.6789C19.6873 65.4327 19.074 66.046 18.3202 66.046Z" fill="black"/>
<path d="M55.6996 57.7241C55.4427 57.7241 55.1908 57.8285 55.0092 58.0103C54.8275 58.1918 54.723 58.4438 54.723 58.7007C54.723 58.9575 54.8275 59.2095 55.0092 59.391C55.1908 59.5727 55.4427 59.6772 55.6996 59.6772C55.9574 59.6772 56.2084 59.5728 56.391 59.391C56.5726 59.2095 56.6761 58.9584 56.6761 58.7007C56.6761 58.4438 56.5726 58.1918 56.391 58.0103C56.2083 57.8286 55.9564 57.7241 55.6996 57.7241Z" fill="black"/>
<path d="M61.6798 61.3587C61.1186 61.3587 60.5898 61.4991 60.1259 61.746L58.4761 60.0962C58.0948 59.7151 57.4764 59.715 57.0952 60.0962C56.7138 60.4776 56.7137 61.0959 57.0952 61.4773L58.7456 63.1277C58.4997 63.5911 58.3596 64.1189 58.3596 64.6789C58.3596 66.5097 59.849 67.9991 61.6799 67.9991C63.5107 67.9991 65 66.5098 65 64.6789C65 62.8481 63.5106 61.3587 61.6798 61.3587ZM61.6798 66.046C60.9258 66.046 60.3127 65.4327 60.3127 64.6789C60.3127 63.9251 60.9259 63.3118 61.6798 63.3118C62.4337 63.3118 63.0468 63.9251 63.0468 64.6789C63.0468 65.4327 62.4337 66.046 61.6798 66.046Z" fill="black"/>
<path d="M18.3202 24.6413C18.8809 24.6413 19.4092 24.5011 19.8728 24.2547L23.6076 27.9895C23.7983 28.1802 24.0482 28.2755 24.2981 28.2755C24.548 28.2755 24.798 28.1802 24.9887 27.9895C25.37 27.6081 25.37 26.9897 24.9887 26.6084L21.2537 22.8737C21.5001 22.4101 21.6403 21.8817 21.6403 21.3212C21.6403 19.4904 20.151 18.001 18.3201 18.001C16.4893 18.001 15 19.4903 15 21.3212C15 23.1521 16.4894 24.6413 18.3202 24.6413ZM18.3202 19.954C19.0741 19.954 19.6873 20.5673 19.6873 21.3211C19.6873 22.0749 19.074 22.6882 18.3202 22.6882C17.5664 22.6882 16.9531 22.0749 16.9531 21.3211C16.9531 20.5673 17.5663 19.954 18.3202 19.954Z" fill="black"/>
</g>
<defs>
<clipPath id="clip0">
<rect width="50" height="50" fill="white" transform="translate(15 18)"/>
</clipPath>
</defs>
</svg>
