<svg width="215" height="50" viewBox="0 0 215 50" fill="none" xmlns="http://www.w3.org/2000/svg">
<path d="M63.392 30V18.72H67.2C69.024 18.72 70.432 19.2053 71.424 20.176C72.416 21.136 72.912 22.528 72.912 24.352C72.912 26.176 72.416 27.5733 71.424 28.544C70.432 29.5147 69.024 30 67.2 30H63.392ZM64.704 28.88H67.104C70.048 28.88 71.52 27.3707 71.52 24.352C71.52 21.344 70.048 19.84 67.104 19.84H64.704V28.88ZM77.539 30.144C77.0057 30.144 76.5257 30.0427 76.099 29.84C75.683 29.6267 75.3523 29.3387 75.107 28.976C74.8617 28.6133 74.739 28.208 74.739 27.76C74.739 27.1947 74.883 26.7467 75.171 26.416C75.4697 26.0853 75.955 25.8507 76.627 25.712C77.3097 25.5627 78.2377 25.488 79.411 25.488H79.923V24.992C79.923 24.3307 79.7843 23.856 79.507 23.568C79.2403 23.2693 78.8083 23.12 78.211 23.12C77.7417 23.12 77.2883 23.1893 76.851 23.328C76.4137 23.456 75.9657 23.6693 75.507 23.968L75.059 23.024C75.4643 22.736 75.955 22.5067 76.531 22.336C77.1177 22.1653 77.6777 22.08 78.211 22.08C79.2137 22.08 79.955 22.3253 80.435 22.816C80.9257 23.3067 81.171 24.0693 81.171 25.104V30H79.955V28.656C79.7523 29.1147 79.4377 29.4773 79.011 29.744C78.595 30.0107 78.1043 30.144 77.539 30.144ZM77.747 29.168C78.387 29.168 78.9097 28.9493 79.315 28.512C79.7203 28.064 79.923 27.4987 79.923 26.816V26.336H79.427C78.563 26.336 77.8803 26.3787 77.379 26.464C76.8883 26.5387 76.5417 26.6773 76.339 26.88C76.147 27.072 76.051 27.3387 76.051 27.68C76.051 28.1173 76.2003 28.4747 76.499 28.752C76.8083 29.0293 77.2243 29.168 77.747 29.168ZM86.1994 30.144C85.5914 30.144 85.0154 30.0587 84.4714 29.888C83.9274 29.7173 83.4794 29.4773 83.1274 29.168L83.5434 28.256C83.9274 28.5653 84.3487 28.7947 84.8074 28.944C85.2767 29.0827 85.7514 29.152 86.2314 29.152C86.8394 29.152 87.298 29.04 87.6074 28.816C87.9167 28.592 88.0714 28.288 88.0714 27.904C88.0714 27.6053 87.97 27.3707 87.7674 27.2C87.5647 27.0187 87.2447 26.88 86.8074 26.784L85.3514 26.464C84.0287 26.176 83.3674 25.4933 83.3674 24.416C83.3674 23.712 83.6447 23.1467 84.1994 22.72C84.7647 22.2933 85.5007 22.08 86.4074 22.08C86.9407 22.08 87.4474 22.1653 87.9274 22.336C88.418 22.496 88.8234 22.736 89.1434 23.056L88.7114 23.968C88.402 23.68 88.0394 23.4613 87.6234 23.312C87.218 23.152 86.8127 23.072 86.4074 23.072C85.81 23.072 85.3567 23.1893 85.0474 23.424C84.738 23.6587 84.5834 23.968 84.5834 24.352C84.5834 24.9493 84.978 25.3333 85.7674 25.504L87.2234 25.808C87.906 25.9573 88.4234 26.1973 88.7754 26.528C89.1274 26.848 89.3034 27.2853 89.3034 27.84C89.3034 28.5547 89.0207 29.12 88.4554 29.536C87.89 29.9413 87.138 30.144 86.1994 30.144ZM91.2785 30V18.72H92.5745V23.504C92.8305 23.0347 93.1878 22.6827 93.6465 22.448C94.1158 22.2027 94.6385 22.08 95.2145 22.08C97.0598 22.08 97.9825 23.104 97.9825 25.152V30H96.6865V25.232C96.6865 24.5067 96.5425 23.9787 96.2545 23.648C95.9772 23.3067 95.5292 23.136 94.9105 23.136C94.1958 23.136 93.6252 23.36 93.1985 23.808C92.7825 24.2453 92.5745 24.832 92.5745 25.568V30H91.2785ZM104.308 30.144C103.69 30.144 103.146 30.0053 102.676 29.728C102.218 29.4507 101.871 29.072 101.636 28.592V30H100.372V18.72H101.668V23.568C101.892 23.1093 102.239 22.7467 102.708 22.48C103.178 22.2133 103.711 22.08 104.308 22.08C105.002 22.08 105.604 22.2453 106.116 22.576C106.639 22.896 107.039 23.36 107.316 23.968C107.604 24.5653 107.748 25.28 107.748 26.112C107.748 26.9333 107.604 27.648 107.316 28.256C107.039 28.8533 106.639 29.3173 106.116 29.648C105.604 29.9787 105.002 30.144 104.308 30.144ZM104.036 29.104C104.762 29.104 105.343 28.848 105.78 28.336C106.218 27.8133 106.436 27.072 106.436 26.112C106.436 25.1413 106.218 24.4 105.78 23.888C105.343 23.376 104.762 23.12 104.036 23.12C103.311 23.12 102.73 23.376 102.292 23.888C101.855 24.4 101.636 25.1413 101.636 26.112C101.636 27.072 101.855 27.8133 102.292 28.336C102.73 28.848 103.311 29.104 104.036 29.104ZM112.932 30.144C112.175 30.144 111.519 29.9787 110.964 29.648C110.41 29.3173 109.978 28.8533 109.668 28.256C109.37 27.648 109.22 26.9333 109.22 26.112C109.22 25.2907 109.37 24.5813 109.668 23.984C109.978 23.376 110.41 22.9067 110.964 22.576C111.519 22.2453 112.175 22.08 112.932 22.08C113.679 22.08 114.33 22.2453 114.884 22.576C115.45 22.9067 115.882 23.376 116.18 23.984C116.49 24.5813 116.644 25.2907 116.644 26.112C116.644 26.9333 116.49 27.648 116.18 28.256C115.882 28.8533 115.45 29.3173 114.884 29.648C114.33 29.9787 113.679 30.144 112.932 30.144ZM112.932 29.104C113.658 29.104 114.239 28.848 114.676 28.336C115.114 27.8133 115.332 27.072 115.332 26.112C115.332 25.1413 115.114 24.4 114.676 23.888C114.239 23.376 113.658 23.12 112.932 23.12C112.196 23.12 111.61 23.376 111.172 23.888C110.746 24.4 110.532 25.1413 110.532 26.112C110.532 27.072 110.746 27.8133 111.172 28.336C111.61 28.848 112.196 29.104 112.932 29.104ZM121.039 30.144C120.506 30.144 120.026 30.0427 119.599 29.84C119.183 29.6267 118.852 29.3387 118.607 28.976C118.362 28.6133 118.239 28.208 118.239 27.76C118.239 27.1947 118.383 26.7467 118.671 26.416C118.97 26.0853 119.455 25.8507 120.127 25.712C120.81 25.5627 121.738 25.488 122.911 25.488H123.423V24.992C123.423 24.3307 123.284 23.856 123.007 23.568C122.74 23.2693 122.308 23.12 121.711 23.12C121.242 23.12 120.788 23.1893 120.351 23.328C119.914 23.456 119.466 23.6693 119.007 23.968L118.559 23.024C118.964 22.736 119.455 22.5067 120.031 22.336C120.618 22.1653 121.178 22.08 121.711 22.08C122.714 22.08 123.455 22.3253 123.935 22.816C124.426 23.3067 124.671 24.0693 124.671 25.104V30H123.455V28.656C123.252 29.1147 122.938 29.4773 122.511 29.744C122.095 30.0107 121.604 30.144 121.039 30.144ZM121.247 29.168C121.887 29.168 122.41 28.9493 122.815 28.512C123.22 28.064 123.423 27.4987 123.423 26.816V26.336H122.927C122.063 26.336 121.38 26.3787 120.879 26.464C120.388 26.5387 120.042 26.6773 119.839 26.88C119.647 27.072 119.551 27.3387 119.551 27.68C119.551 28.1173 119.7 28.4747 119.999 28.752C120.308 29.0293 120.724 29.168 121.247 29.168ZM127.075 30V22.224H128.339V23.616C128.755 22.6773 129.609 22.16 130.899 22.064L131.363 22.016L131.459 23.136L130.643 23.232C129.907 23.296 129.347 23.5307 128.963 23.936C128.579 24.3307 128.387 24.8747 128.387 25.568V30H127.075ZM135.676 30.144C134.983 30.144 134.375 29.9787 133.852 29.648C133.34 29.3173 132.94 28.8533 132.652 28.256C132.375 27.648 132.236 26.9333 132.236 26.112C132.236 25.28 132.375 24.5653 132.652 23.968C132.94 23.36 133.34 22.896 133.852 22.576C134.375 22.2453 134.983 22.08 135.676 22.08C136.284 22.08 136.817 22.2133 137.276 22.48C137.745 22.7467 138.092 23.1147 138.316 23.584V18.72H139.612V30H138.348V28.576C138.124 29.0667 137.777 29.4507 137.308 29.728C136.839 30.0053 136.295 30.144 135.676 30.144ZM135.948 29.104C136.673 29.104 137.255 28.848 137.692 28.336C138.129 27.8133 138.348 27.072 138.348 26.112C138.348 25.1413 138.129 24.4 137.692 23.888C137.255 23.376 136.673 23.12 135.948 23.12C135.212 23.12 134.625 23.376 134.188 23.888C133.761 24.4 133.548 25.1413 133.548 26.112C133.548 27.072 133.761 27.8133 134.188 28.336C134.625 28.848 135.212 29.104 135.948 29.104Z" fill="#4F4F4F"/>
<path fill-rule="evenodd" clip-rule="evenodd" d="M42 26H37C35.8954 26 35 26.8954 35 28V33C35 34.1046 35.8954 35 37 35H42C43.1046 35 44 34.1046 44 33V28C44 26.8954 43.1046 26 42 26ZM37 33V28H42V33H37ZM33 17V33C33 34.1046 32.1046 35 31 35H26C24.8954 35 24 34.1046 24 33V17C24 15.8954 24.8954 15 26 15H31C32.1046 15 33 15.8954 33 17ZM31 17H26V33H31V17ZM42 15H37C35.8954 15 35 15.8954 35 17V22C35 23.1046 35.8954 24 37 24H42C43.1046 24 44 23.1046 44 22V17C44 15.8954 43.1046 15 42 15ZM37 22V17H42V22H37Z" fill="#4F4F4F"/>
</svg>
