<svg width="50" height="50" viewBox="0 0 50 50" fill="none" xmlns="http://www.w3.org/2000/svg">
<circle opacity="0.2" cx="25" cy="25" r="25" fill="#8B7BEE"/>
<path d="M38.1901 14.4888H11.81C10.9746 14.4888 10.2974 15.166 10.2974 16.0014V33.9997C10.2974 34.8351 10.9746 35.5123 11.81 35.5123H38.1901C39.0255 35.5123 39.7028 34.8351 39.7028 33.9997V16.0014C39.7028 15.166 39.0255 14.4888 38.1901 14.4888Z" fill="#8B7BEE"/>
<path d="M39.7026 16.0014V33.9992C39.7026 34.4006 39.5431 34.7856 39.2593 35.0694C38.9755 35.3533 38.5905 35.5127 38.1891 35.5127H11.8107C11.4274 35.5125 11.0584 35.3669 10.7783 35.1053C10.4982 34.8436 10.3278 34.4854 10.3015 34.103C10.3229 34.1066 10.3447 34.108 10.3664 34.1073H36.7491C37.1505 34.1073 37.5355 33.9479 37.8193 33.664C38.1031 33.3802 38.2626 32.9952 38.2626 32.5938V14.596C38.2633 14.5613 38.2619 14.5267 38.2583 14.4922C38.6471 14.509 39.0145 14.6754 39.2836 14.9566C39.5527 15.2378 39.7028 15.6121 39.7026 16.0014Z" fill="#D3C2F8"/>
<path d="M25.0001 25.2163C24.5813 25.2172 24.1728 25.0863 23.8325 24.8423L10.6001 15.3815C10.5764 15.3652 10.5563 15.3444 10.5408 15.3202C10.5253 15.296 10.5148 15.269 10.5098 15.2407C10.5049 15.2124 10.5056 15.1834 10.512 15.1554C10.5184 15.1275 10.5303 15.101 10.547 15.0777C10.5637 15.0543 10.5849 15.0345 10.6093 15.0195C10.6338 15.0044 10.661 14.9944 10.6894 14.9899C10.7177 14.9855 10.7467 14.9867 10.7746 14.9936C10.8024 15.0005 10.8287 15.0128 10.8517 15.0299L24.0855 24.489C24.3527 24.6799 24.6729 24.7825 25.0013 24.7825C25.3298 24.7825 25.65 24.6799 25.9172 24.489L39.1466 15.0295C39.1933 14.9973 39.2507 14.9848 39.3066 14.9945C39.3624 15.0043 39.4122 15.0355 39.4452 15.0816C39.4782 15.1277 39.4918 15.1849 39.483 15.241C39.4742 15.297 39.4438 15.3473 39.3983 15.3811L26.1676 24.8406C25.8269 25.084 25.4188 25.2153 25.0001 25.2163Z" fill="white"/>
<path d="M34.802 37.0257H30.5136C30.4562 37.0257 30.4012 37.0029 30.3607 36.9624C30.3201 36.9218 30.2974 36.8668 30.2974 36.8095C30.2974 36.7521 30.3201 36.6971 30.3607 36.6566C30.4012 36.616 30.4562 36.5933 30.5136 36.5933H34.802C34.8593 36.5933 34.9143 36.616 34.9549 36.6566C34.9954 36.6971 35.0182 36.7521 35.0182 36.8095C35.0182 36.8668 34.9954 36.9218 34.9549 36.9624C34.9143 37.0029 34.8593 37.0257 34.802 37.0257Z" fill="white"/>
<path d="M29.3377 37.0257H29.1349C29.0776 37.0257 29.0226 37.0029 28.982 36.9624C28.9415 36.9218 28.9187 36.8668 28.9187 36.8095C28.9187 36.7521 28.9415 36.6971 28.982 36.6566C29.0226 36.616 29.0776 36.5933 29.1349 36.5933H29.3377C29.3951 36.5933 29.4501 36.616 29.4906 36.6566C29.5312 36.6971 29.5539 36.7521 29.5539 36.8095C29.5539 36.8668 29.5312 36.9218 29.4906 36.9624C29.4501 37.0029 29.3951 37.0257 29.3377 37.0257Z" fill="white"/>
<path d="M15.9548 13.407H12.4413C12.384 13.407 12.329 13.3843 12.2884 13.3437C12.2479 13.3032 12.2251 13.2482 12.2251 13.1908C12.2251 13.1335 12.2479 13.0785 12.2884 13.0379C12.329 12.9974 12.384 12.9746 12.4413 12.9746H15.9548C16.0122 12.9746 16.0672 12.9974 16.1077 13.0379C16.1483 13.0785 16.171 13.1335 16.171 13.1908C16.171 13.2482 16.1483 13.3032 16.1077 13.3437C16.0672 13.3843 16.0122 13.407 15.9548 13.407Z" fill="white"/>
<path d="M17.0541 13.407H16.8197C16.7624 13.407 16.7074 13.3843 16.6668 13.3437C16.6263 13.3032 16.6035 13.2482 16.6035 13.1908C16.6035 13.1335 16.6263 13.0785 16.6668 13.0379C16.7074 12.9974 16.7624 12.9746 16.8197 12.9746H17.0541C17.1115 12.9746 17.1664 12.9974 17.207 13.0379C17.2475 13.0785 17.2703 13.1335 17.2703 13.1908C17.2703 13.2482 17.2475 13.3032 17.207 13.3437C17.1664 13.3843 17.1115 13.407 17.0541 13.407Z" fill="white"/>
<path d="M38.1892 35.7283H11.8108C11.352 35.7283 10.9121 35.5461 10.5877 35.2217C10.2633 34.8973 10.0811 34.4573 10.0811 33.9986V16.0007C10.0811 15.542 10.2633 15.102 10.5877 14.7776C10.9121 14.4532 11.352 14.271 11.8108 14.271H38.1892C38.6479 14.271 39.0879 14.4532 39.4123 14.7776C39.7367 15.102 39.9189 15.542 39.9189 16.0007V33.9994C39.9187 34.458 39.7363 34.8978 39.412 35.222C39.0876 35.5462 38.6478 35.7283 38.1892 35.7283ZM11.8108 14.7043C11.4667 14.7043 11.1367 14.841 10.8935 15.0843C10.6502 15.3276 10.5135 15.6575 10.5135 16.0016V33.9994C10.5135 34.3435 10.6502 34.6735 10.8935 34.9168C11.1367 35.16 11.4667 35.2967 11.8108 35.2967H38.1892C38.5332 35.2967 38.8632 35.16 39.1065 34.9168C39.3498 34.6735 39.4865 34.3435 39.4865 33.9994V16.0007C39.4865 15.6567 39.3498 15.3267 39.1065 15.0834C38.8632 14.8401 38.5332 14.7034 38.1892 14.7034L11.8108 14.7043Z" fill="white"/>
<path d="M18.6432 19.0434L21.1081 20.8652C21.1634 20.9063 21.2001 20.9676 21.2101 21.0357C21.2202 21.1039 21.2028 21.1732 21.1617 21.2285C21.1206 21.2837 21.0593 21.3204 20.9912 21.3305C20.9231 21.3406 20.8537 21.3231 20.7984 21.2821L18.3336 19.4603C18.3062 19.4399 18.2831 19.4144 18.2656 19.3851C18.2481 19.3559 18.2365 19.3235 18.2315 19.2897C18.2266 19.256 18.2283 19.2216 18.2366 19.1886C18.2449 19.1555 18.2596 19.1244 18.28 19.097C18.3003 19.0696 18.3258 19.0465 18.3551 19.029C18.3843 19.0115 18.4167 19 18.4505 18.995C18.4842 18.99 18.5186 18.9917 18.5517 19C18.5847 19.0083 18.6158 19.0231 18.6432 19.0434Z" fill="white"/>
<path d="M17.8051 18.4101L17.9348 18.5057C17.9622 18.526 17.9853 18.5515 18.0028 18.5808C18.0203 18.61 18.0319 18.6424 18.0368 18.6762C18.0418 18.7099 18.0401 18.7443 18.0318 18.7773C18.0235 18.8104 18.0088 18.8415 17.9884 18.8689C17.9681 18.8963 17.9426 18.9194 17.9133 18.9369C17.8841 18.9544 17.8516 18.966 17.8179 18.9709C17.7842 18.9759 17.7498 18.9742 17.7167 18.9659C17.6837 18.9576 17.6526 18.9428 17.6252 18.9225L17.4955 18.827C17.4402 18.7859 17.4035 18.7246 17.3934 18.6564C17.3834 18.5883 17.4008 18.519 17.4418 18.4637C17.4829 18.4084 17.5442 18.3717 17.6123 18.3617C17.6805 18.3516 17.7498 18.369 17.8051 18.4101Z" fill="white"/>
</svg>
