<svg width="50" height="50" viewBox="0 0 50 50" fill="none" xmlns="http://www.w3.org/2000/svg">
<circle opacity="0.2" cx="25" cy="25" r="25" fill="#7B7A76"/>
<g clip-path="url(#clip0)">
<path d="M36.9058 31.28H13.0364C14.1301 31.28 14.7485 30.7078 15.0996 29.7593C16.7976 25.179 12.2747 11.8311 24.9714 11.8311C37.668 11.8311 33.1443 25.179 34.8425 29.7593C35.1941 30.7078 35.8127 31.28 36.9058 31.28Z" fill="#F7D360"/>
<path d="M39.2168 33.5911C39.2168 34.8674 38.1819 35.9021 36.9058 35.9021H13.0364C12.3982 35.9021 11.8203 35.6436 11.4021 35.2253C10.9839 34.8071 10.7253 34.2292 10.7253 33.5911C10.7253 32.3149 11.76 31.2803 13.0364 31.2803H36.9058C37.5439 31.2803 38.1218 31.5388 38.54 31.957C38.9583 32.3752 39.2168 32.9531 39.2168 33.5911Z" fill="#E58E13"/>
<path d="M34.8425 29.7593H22.4363C21.0989 29.7593 20.0293 28.6521 20.0708 27.3152C20.2456 21.6589 19.3435 11.9385 24.8784 11.8315C9.68506 11.9102 19.3972 31.28 13.0366 31.28H36.9058C35.8127 31.28 35.1941 30.7078 34.8425 29.7593Z" fill="#E58E13"/>
<path d="M39.2168 33.5911C39.2168 34.8674 38.1819 35.9021 36.9058 35.9021H19.7144C19.0764 35.9021 18.4985 35.6436 18.0803 35.2253C17.6621 34.8071 17.4036 34.2292 17.4036 33.5911C17.4036 32.3149 18.4382 31.2803 19.7144 31.2803H36.9058C37.5439 31.2803 38.1218 31.5388 38.54 31.957C38.9583 32.3752 39.2168 32.9531 39.2168 33.5911Z" fill="#F7D360"/>
<path d="M29.5933 35.9023C29.5933 38.0276 28.1592 39.8171 26.207 40.3577C25.8135 40.4666 25.3992 40.5249 24.9714 40.5249C22.4182 40.5249 20.3489 38.4553 20.3489 35.9023H29.5933Z" fill="#E58E13"/>
<path d="M29.3697 37.3281C28.8938 38.7969 27.7024 39.9438 26.2071 40.3577C25.2669 40.0977 24.4471 39.5481 23.8494 38.811C23.3677 38.2168 23.8023 37.3281 24.5672 37.3281H29.3697Z" fill="#F7D360"/>
<path d="M27.3203 12.0078C27.3254 11.9495 27.3274 11.8906 27.3274 11.8311C27.3274 10.53 26.2722 9.4751 24.9714 9.4751C23.6697 9.4751 22.6155 10.53 22.6155 11.8311C22.6155 11.8906 22.6172 11.9495 22.6223 12.0078" fill="#E58E13"/>
<path d="M36.9057 30.8046H36.9038C35.9836 30.8042 35.4641 30.3266 35.1667 29.2089C34.8627 28.0659 34.8525 26.4082 34.8417 24.653C34.8288 22.5266 34.8142 20.1164 34.2856 17.9609C34.2231 17.706 33.9655 17.55 33.7106 17.6125C33.456 17.675 33.3 17.9324 33.3623 18.1872C33.8645 20.2341 33.8786 22.5849 33.8913 24.6589C33.9025 26.4763 33.9128 28.1928 34.248 29.4531C34.3938 30.0012 34.6027 30.4516 34.8728 30.8046H15.0693C15.3393 30.4516 15.5483 30.0012 15.6941 29.4531C16.0293 28.1928 16.0398 26.4763 16.0508 24.6589C16.0676 21.8843 16.0869 18.7395 17.2222 16.3327C18.5 13.6235 21.0346 12.3064 24.9712 12.3064C27.133 12.3064 28.9021 12.7126 30.229 13.5142C31.3796 14.209 32.2243 15.1965 32.8115 16.5332C32.9169 16.7734 33.1975 16.8828 33.4377 16.7771C33.6779 16.6716 33.7873 16.3913 33.6818 16.1509C33.0224 14.6499 32.0261 13.489 30.7204 12.7004C29.8869 12.197 28.9082 11.834 27.7934 11.6128C27.6811 10.1536 26.4587 9 24.9712 9C23.4836 9 22.261 10.1538 22.1494 11.6133C21.0859 11.824 20.1457 12.1636 19.3388 12.6311C18.0405 13.3835 17.039 14.4927 16.3623 15.9272C15.1377 18.5237 15.1177 21.78 15.1003 24.653C15.0896 26.4082 15.0796 28.0659 14.7754 29.2089C14.478 30.3266 13.9585 30.8042 13.0383 30.8046H13.0364C11.5 30.8046 10.25 32.0546 10.25 33.5913C10.25 35.1276 11.5 36.3776 13.0364 36.3776H16.0444C16.3069 36.3776 16.5198 36.1647 16.5198 35.9023C16.5198 35.6398 16.3069 35.4272 16.0444 35.4272H13.0364C12.0242 35.4272 11.2004 34.6035 11.2004 33.5913C11.2004 32.5791 12.0239 31.7556 13.0361 31.7553H13.0364H13.0381H36.9038H36.9055H36.906C37.9179 31.7556 38.7414 32.5791 38.7414 33.5913C38.7414 34.6035 37.9177 35.4272 36.9055 35.4272H17.9455C17.6831 35.4272 17.4704 35.6398 17.4704 35.9023C17.4704 36.1647 17.6831 36.3776 17.9455 36.3776H19.8965C20.1369 38.9665 22.3205 40.9999 24.9712 40.9999C27.6215 40.9999 29.8051 38.9665 30.0456 36.3776H36.9057C38.4421 36.3776 39.6921 35.1276 39.6921 33.5913C39.6921 32.0546 38.4421 30.8046 36.9057 30.8046ZM24.9712 9.95044C25.8813 9.95044 26.6425 10.6006 26.8152 11.4607C26.2317 11.3918 25.6174 11.356 24.9712 11.356C24.3249 11.356 23.7107 11.3916 23.1274 11.4604C23.3 10.6003 24.061 9.95044 24.9712 9.95044ZM24.9712 40.0495C22.8452 40.0495 21.0886 38.4411 20.852 36.3776H29.0901C28.8535 38.4411 27.0969 40.0495 24.9712 40.0495Z" fill="black"/>
<path d="M32.602 11.9827C32.6105 11.9874 33.4567 12.4703 34.2893 13.5921C35.4045 15.0946 35.9697 16.9715 35.9697 19.171C35.9697 19.4334 36.1826 19.6463 36.445 19.6463C36.7075 19.6463 36.9204 19.4334 36.9204 19.171C36.9204 16.1431 35.8864 14.1334 35.019 12.9808C34.0659 11.7142 33.1037 11.1739 33.0632 11.1514C32.8339 11.025 32.5463 11.108 32.4189 11.3365C32.2915 11.5653 32.3737 11.8543 32.602 11.9827Z" fill="black"/>
<path d="M36.1877 12.1569C36.2642 12.2069 38.0608 13.4128 38.0608 16.4464C38.0608 16.7089 38.2737 16.9215 38.5361 16.9215C38.7986 16.9215 39.0112 16.7089 39.0112 16.4464C39.0112 12.8683 36.7947 11.4164 36.7002 11.3564C36.4797 11.216 36.1882 11.2809 36.0466 11.5009C35.905 11.7206 35.9687 12.0141 36.1877 12.1569Z" fill="black"/>
<path d="M13.4968 19.6464C13.7593 19.6464 13.9722 19.4335 13.9722 19.171C13.9722 16.9716 14.5376 15.0946 15.6526 13.5922C16.48 12.4774 17.3211 11.9936 17.3396 11.9828C17.5684 11.8556 17.6514 11.567 17.5247 11.3378C17.3975 11.1081 17.1084 11.0248 16.8787 11.1515C16.8381 11.174 15.876 11.7143 14.9229 12.9809C14.0557 14.1334 13.0217 16.1432 13.0217 19.171C13.0217 19.4335 13.2344 19.6464 13.4968 19.6464Z" fill="black"/>
<path d="M11.406 16.922C11.6685 16.922 11.8811 16.7094 11.8811 16.4469C11.8811 13.4157 13.675 12.2091 13.7542 12.1576C13.9739 12.0162 14.0383 11.7235 13.8979 11.5028C13.7571 11.2814 13.4634 11.2162 13.2417 11.3571C13.1475 11.4171 10.9307 12.8688 10.9307 16.4469C10.9307 16.7094 11.1436 16.922 11.406 16.922Z" fill="black"/>
</g>
<defs>
<clipPath id="clip0">
<rect width="32" height="32" fill="white" transform="translate(9 9)"/>
</clipPath>
</defs>
</svg>
