<svg width="215" height="50" viewBox="0 0 215 50" fill="none" xmlns="http://www.w3.org/2000/svg">
<path d="M67.04 30.144C66.1547 30.144 65.3547 30.032 64.64 29.808C63.9253 29.5733 63.3067 29.2373 62.784 28.8L63.248 27.744C63.792 28.16 64.3627 28.4693 64.96 28.672C65.5573 28.8747 66.2507 28.976 67.04 28.976C68 28.976 68.7093 28.8 69.168 28.448C69.6373 28.0853 69.872 27.6107 69.872 27.024C69.872 26.5547 69.7013 26.1813 69.36 25.904C69.0293 25.6267 68.4693 25.408 67.68 25.248L66.016 24.912C65.0133 24.6987 64.2613 24.352 63.76 23.872C63.2693 23.3813 63.024 22.7307 63.024 21.92C63.024 21.248 63.1947 20.6613 63.536 20.16C63.888 19.6587 64.3733 19.2693 64.992 18.992C65.6107 18.7147 66.3253 18.576 67.136 18.576C67.8933 18.576 68.5973 18.6987 69.248 18.944C69.8987 19.1787 70.448 19.52 70.896 19.968L70.432 20.992C69.952 20.5547 69.4453 20.24 68.912 20.048C68.3787 19.8453 67.7813 19.744 67.12 19.744C66.2773 19.744 65.6053 19.9413 65.104 20.336C64.6027 20.72 64.352 21.232 64.352 21.872C64.352 22.384 64.5067 22.7893 64.816 23.088C65.136 23.3867 65.6533 23.6053 66.368 23.744L68.032 24.096C69.1093 24.32 69.904 24.6613 70.416 25.12C70.9387 25.568 71.2 26.1813 71.2 26.96C71.2 27.5893 71.0293 28.144 70.688 28.624C70.3573 29.104 69.8773 29.4773 69.248 29.744C68.6293 30.0107 67.8933 30.144 67.04 30.144ZM76.5638 30.144C75.3371 30.144 74.3664 29.7867 73.6518 29.072C72.9371 28.3467 72.5798 27.3653 72.5798 26.128C72.5798 25.328 72.7398 24.624 73.0598 24.016C73.3798 23.3973 73.8171 22.9227 74.3718 22.592C74.9371 22.2507 75.5878 22.08 76.3238 22.08C77.3798 22.08 78.2064 22.4213 78.8038 23.104C79.4011 23.776 79.6998 24.704 79.6998 25.888V26.384H73.8438C73.8864 27.2693 74.1424 27.9467 74.6118 28.416C75.0811 28.8747 75.7318 29.104 76.5638 29.104C77.0331 29.104 77.4811 29.0347 77.9078 28.896C78.3344 28.7467 78.7398 28.5067 79.1238 28.176L79.5718 29.088C79.2198 29.4187 78.7718 29.68 78.2278 29.872C77.6838 30.0533 77.1291 30.144 76.5638 30.144ZM76.3558 23.04C75.6198 23.04 75.0384 23.2693 74.6118 23.728C74.1851 24.1867 73.9344 24.7893 73.8598 25.536H78.5798C78.5478 24.7467 78.3398 24.1333 77.9558 23.696C77.5824 23.2587 77.0491 23.04 76.3558 23.04ZM81.5754 30V22.224H82.8394V23.616C83.2554 22.6773 84.1087 22.16 85.3994 22.064L85.8634 22.016L85.9594 23.136L85.1434 23.232C84.4074 23.296 83.8474 23.5307 83.4634 23.936C83.0794 24.3307 82.8874 24.8747 82.8874 25.568V30H81.5754ZM90.0821 30L86.7381 22.224H88.1461L90.7221 28.528L93.3301 22.224H94.6581L91.2981 30H90.0821ZM95.8685 20.288V18.832H97.4685V20.288H95.8685ZM96.0285 30V22.224H97.3245V30H96.0285ZM103.043 30.144C102.265 30.144 101.593 29.9787 101.027 29.648C100.462 29.3067 100.025 28.832 99.7153 28.224C99.4166 27.6053 99.2673 26.8853 99.2673 26.064C99.2673 24.8267 99.6033 23.856 100.275 23.152C100.947 22.4373 101.87 22.08 103.043 22.08C103.523 22.08 103.998 22.1653 104.467 22.336C104.937 22.5067 105.326 22.7467 105.635 23.056L105.187 24C104.878 23.7013 104.537 23.4827 104.163 23.344C103.801 23.2053 103.454 23.136 103.123 23.136C102.313 23.136 101.689 23.392 101.251 23.904C100.814 24.4053 100.595 25.1307 100.595 26.08C100.595 27.008 100.814 27.744 101.251 28.288C101.689 28.8213 102.313 29.088 103.123 29.088C103.454 29.088 103.801 29.0187 104.163 28.88C104.537 28.7413 104.878 28.5173 105.187 28.208L105.635 29.152C105.326 29.4613 104.931 29.7067 104.451 29.888C103.982 30.0587 103.513 30.144 103.043 30.144ZM110.501 30.144C109.275 30.144 108.304 29.7867 107.589 29.072C106.875 28.3467 106.517 27.3653 106.517 26.128C106.517 25.328 106.677 24.624 106.997 24.016C107.317 23.3973 107.755 22.9227 108.309 22.592C108.875 22.2507 109.525 22.08 110.261 22.08C111.317 22.08 112.144 22.4213 112.741 23.104C113.339 23.776 113.637 24.704 113.637 25.888V26.384H107.781C107.824 27.2693 108.08 27.9467 108.549 28.416C109.019 28.8747 109.669 29.104 110.501 29.104C110.971 29.104 111.419 29.0347 111.845 28.896C112.272 28.7467 112.677 28.5067 113.061 28.176L113.509 29.088C113.157 29.4187 112.709 29.68 112.165 29.872C111.621 30.0533 111.067 30.144 110.501 30.144ZM110.293 23.04C109.557 23.04 108.976 23.2693 108.549 23.728C108.123 24.1867 107.872 24.7893 107.797 25.536H112.517C112.485 24.7467 112.277 24.1333 111.893 23.696C111.52 23.2587 110.987 23.04 110.293 23.04ZM118.137 30.144C117.529 30.144 116.953 30.0587 116.409 29.888C115.865 29.7173 115.417 29.4773 115.065 29.168L115.481 28.256C115.865 28.5653 116.286 28.7947 116.745 28.944C117.214 29.0827 117.689 29.152 118.169 29.152C118.777 29.152 119.236 29.04 119.545 28.816C119.854 28.592 120.009 28.288 120.009 27.904C120.009 27.6053 119.908 27.3707 119.705 27.2C119.502 27.0187 119.182 26.88 118.745 26.784L117.289 26.464C115.966 26.176 115.305 25.4933 115.305 24.416C115.305 23.712 115.582 23.1467 116.137 22.72C116.702 22.2933 117.438 22.08 118.345 22.08C118.878 22.08 119.385 22.1653 119.865 22.336C120.356 22.496 120.761 22.736 121.081 23.056L120.649 23.968C120.34 23.68 119.977 23.4613 119.561 23.312C119.156 23.152 118.75 23.072 118.345 23.072C117.748 23.072 117.294 23.1893 116.985 23.424C116.676 23.6587 116.521 23.968 116.521 24.352C116.521 24.9493 116.916 25.3333 117.705 25.504L119.161 25.808C119.844 25.9573 120.361 26.1973 120.713 26.528C121.065 26.848 121.241 27.2853 121.241 27.84C121.241 28.5547 120.958 29.12 120.393 29.536C119.828 29.9413 119.076 30.144 118.137 30.144Z" fill="#4F4F4F"/>
<path d="M33.6464 18.3536L33.7929 18.5H34H42C42.8255 18.5 43.5 19.1678 43.5 20V30C43.5 30.3978 43.342 30.7794 43.0607 31.0607C42.7794 31.342 42.3978 31.5 42 31.5H26C25.6022 31.5 25.2206 31.342 24.9393 31.0607C24.658 30.7794 24.5 30.3978 24.5 30V18C24.5 17.1661 25.1661 16.5 26 16.5H31.7929L33.6464 18.3536Z" stroke="#4F4F4F"/>
<path d="M36.8042 23.6167L36.9506 23.7632H37.1577H45.1577C45.9832 23.7632 46.6577 24.431 46.6577 25.2632V35.2632C46.6577 35.661 46.4997 36.0425 46.2184 36.3238C45.9371 36.6051 45.5555 36.7632 45.1577 36.7632H29.1577C28.7599 36.7632 28.3784 36.6051 28.0971 36.3238L27.7435 36.6774L28.0971 36.3238C27.8157 36.0425 27.6577 35.661 27.6577 35.2632V23.2632C27.6577 22.4293 28.3239 21.7632 29.1577 21.7632H34.9506L36.8042 23.6167Z" fill="white" stroke="#4F4F4F"/>
</svg>
