<svg width="34" height="34" viewBox="0 0 34 34" fill="none" xmlns="http://www.w3.org/2000/svg">
<path fill-rule="evenodd" clip-rule="evenodd" d="M22.2485 25.1838L24.1633 23.269L23.489 20.8189L23.7828 20.1172L26 18.8661V16.1583L23.7891 14.9019L23.5002 14.2015L24.183 11.7502L22.2668 9.83681L19.8166 10.511L19.1165 10.2175L17.8653 8H15.1574L13.9011 10.2109L13.2008 10.4998L10.7499 9.81606L8.8367 11.7293L9.511 14.1799L9.21745 14.88L7 16.1313V18.8383L9.20895 20.0975L9.49809 20.7985L8.81534 23.2494L10.7293 25.1633L13.1799 24.489L13.8801 24.7826L15.1314 26.9991H17.8385L19.0967 24.7901L19.7976 24.501L22.2485 25.1838ZM22.4181 18.9039L21.6652 20.7022L22.2312 22.7583L21.7403 23.2492L19.6885 22.6776L17.8895 23.4196L16.8344 25.2719H16.1397L15.0934 23.4184L13.2972 22.6652L11.2399 23.2313L10.7499 22.7412L11.3214 20.6895L10.5795 18.8906L8.7272 17.8347V17.1399L10.5815 16.0936L11.3347 14.2973L10.7686 12.24L11.2577 11.751L13.3094 12.3233L15.1091 11.5811L16.1625 9.72728H16.8565L17.9029 11.5816L19.6992 12.3348L21.7568 11.7686L22.2481 12.2592L21.6767 14.3106L22.4188 16.11L24.2726 17.1635V17.8575L22.4181 18.9039ZM16.4999 20.9545C14.592 20.9545 13.0453 19.4079 13.0453 17.5C13.0453 15.5921 14.592 14.0454 16.4999 14.0454C18.4078 14.0454 19.9544 15.5921 19.9544 17.5C19.9544 19.4079 18.4078 20.9545 16.4999 20.9545ZM18.2275 17.5C18.2275 18.4539 17.4542 19.2272 16.5002 19.2272C15.5463 19.2272 14.7729 18.4539 14.7729 17.5C14.7729 16.546 15.5463 15.7727 16.5002 15.7727C17.4542 15.7727 18.2275 16.546 18.2275 17.5Z" fill="#525252"/>
</svg>
