<svg width="400" height="298" viewBox="0 0 400 298" fill="none" xmlns="http://www.w3.org/2000/svg">
<g clip-path="url(#clip0)">
<path d="M375.574 20.8936H29.8042V242.121H375.574V20.8936Z" fill="#3F3D56"/>
<path d="M365.742 60.8374H210.063V241.916H365.742V60.8374Z" fill="#F2F2F2"/>
<path d="M15.851 229.741C20.5828 238.516 30.6253 242.283 30.6253 242.283C30.6253 242.283 32.9961 231.823 28.2643 223.048C23.5325 214.272 13.49 210.505 13.49 210.505C13.49 210.505 11.1192 220.966 15.851 229.741Z" fill="#3F3D56"/>
<path d="M19.1033 226.854C27.6461 231.994 30.9362 242.203 30.9362 242.203C30.9362 242.203 20.3757 244.078 11.8329 238.939C3.29012 233.799 0 223.59 0 223.59C0 223.59 10.5605 221.715 19.1033 226.854Z" fill="#29C038"/>
<path d="M357.138 77.6865H262.719V81.4937H357.138V77.6865Z" fill="white"/>
<path d="M357.138 86.0625H262.719V89.8697H357.138V86.0625Z" fill="white"/>
<path d="M294.7 94.438H262.719V98.2452H294.7V94.438Z" fill="white"/>
<path d="M163.251 191.987H68.8323V195.795H163.251V191.987Z" fill="white"/>
<path d="M163.251 200.363H68.8323V204.17H163.251V200.363Z" fill="white"/>
<path d="M100.813 208.739H68.8323V212.546H100.813V208.739Z" fill="white"/>
<path d="M335.015 124.39H240.596V128.197H335.015V124.39Z" fill="white"/>
<path d="M335.015 132.766H240.596V136.573H335.015V132.766Z" fill="white"/>
<path d="M335.015 140.959H240.596V144.767H335.015V140.959Z" fill="white"/>
<path d="M335.015 149.153H240.596V152.96H335.015V149.153Z" fill="white"/>
<path d="M335.015 157.347H240.596V161.154H335.015V157.347Z" fill="white"/>
<path d="M335.015 165.54H240.596V169.347H335.015V165.54Z" fill="white"/>
<path d="M335.015 173.734H240.596V177.541H335.015V173.734Z" fill="white"/>
<path d="M335.015 181.927H240.596V185.734H335.015V181.927Z" fill="white"/>
<path d="M335.015 190.121H240.596V193.928H335.015V190.121Z" fill="white"/>
<path d="M335.015 198.314H240.596V202.122H335.015V198.314Z" fill="white"/>
<path d="M335.015 206.508H240.596V210.316H335.015V206.508Z" fill="white"/>
<path d="M150.447 131.45C150.452 136.58 149.308 141.645 147.098 146.274C144.889 150.903 141.669 154.977 137.677 158.198C136.201 159.398 134.626 160.471 132.97 161.406C131.97 161.974 130.942 162.489 129.889 162.95C126.399 164.491 122.675 165.434 118.873 165.74C117.939 165.818 116.995 165.856 116.042 165.855C114.156 165.857 112.273 165.702 110.413 165.392C109.757 165.29 109.11 165.163 108.471 165.015C107.354 164.767 106.25 164.46 105.165 164.098C100.702 162.609 96.5923 160.219 93.0916 157.076C92.1898 156.276 91.3349 155.425 90.5311 154.527C86.7851 150.386 84.1037 145.394 82.7185 139.984C81.3333 134.575 81.2859 128.909 82.5804 123.476C83.8749 118.044 86.4724 113.009 90.1486 108.805C93.8247 104.601 98.469 101.355 103.68 99.3482C108.892 97.3411 114.513 96.6327 120.059 97.2843C125.606 97.936 130.91 99.928 135.514 103.088C140.118 106.249 143.884 110.483 146.485 115.424C149.087 120.365 150.447 125.866 150.447 131.45Z" fill="#29C038"/>
<path d="M252.801 93.0699C252.85 104.082 246.321 107.955 238.246 107.991C238.059 107.992 237.872 107.991 237.686 107.987C237.312 107.981 236.942 107.965 236.575 107.941C229.285 107.457 223.605 103.441 223.559 93.1997C223.512 82.6016 236.998 69.1669 238.009 68.1734L238.011 68.1725C238.05 68.1346 238.069 68.1157 238.069 68.1157C238.069 68.1157 252.753 82.059 252.801 93.0699Z" fill="#29C038"/>
<path d="M237.707 106.309L243.021 98.8139L237.697 107.13L237.686 107.987C237.312 107.981 236.942 107.966 236.575 107.941L237.102 96.9224L237.097 96.8372L237.107 96.821L237.157 95.7798L231.746 87.4911L237.17 94.9999L237.184 95.2206L237.583 86.8954L232.944 78.326L237.633 85.4324L238.009 68.1737L238.011 68.1162L238.011 68.1727L237.996 81.7819L242.552 76.3665L237.982 82.954L237.894 90.4073L242.14 83.2362L237.881 91.5031L237.832 95.6475L243.996 85.6644L237.815 97.0933L237.707 106.309Z" fill="#3F3D56"/>
<path d="M375.369 117.783C360.158 117.783 345.569 123.826 334.813 134.582C324.057 145.338 318.014 159.927 318.014 175.138V175.138C318.014 179.593 316.245 183.866 313.095 187.016C309.944 190.166 305.672 191.935 301.217 191.935H273.359C266.795 191.935 260.296 193.228 254.232 195.74C248.168 198.252 242.658 201.933 238.017 206.574C233.376 211.215 229.694 216.725 227.183 222.789C224.671 228.853 223.378 235.353 223.378 241.916V241.916H375.369V117.783H375.369Z" fill="#3F3D56"/>
<path d="M206.172 20.8936H198.797V242.121H206.172V20.8936Z" fill="#2F2E41"/>
<path d="M130.995 17.6164V11.8809C130.993 8.73116 129.741 5.71109 127.513 3.48458C125.285 1.25806 122.264 0.00732422 119.114 0.00732422C115.965 0.00732422 112.944 1.25806 110.716 3.48458C108.488 5.71109 107.236 8.73116 107.234 11.8809V17.6164H84.7014V30.3165H153.528V17.6164H130.995ZM119.114 3.27761C120.492 3.27761 121.838 3.68608 122.984 4.45135C124.129 5.21663 125.022 6.30434 125.549 7.57695C126.076 8.84956 126.214 10.2499 125.945 11.6009C125.676 12.9519 125.013 14.1928 124.039 15.1669C123.065 16.1409 121.824 16.8042 120.473 17.0729C119.122 17.3416 117.722 17.2037 116.449 16.6766C115.177 16.1495 114.089 15.2568 113.324 14.1115C112.558 12.9662 112.15 11.6196 112.15 10.2422C112.15 9.32757 112.33 8.42193 112.68 7.57695C113.03 6.73197 113.543 5.9642 114.19 5.31748C114.837 4.67077 115.604 4.15776 116.449 3.80776C117.294 3.45776 118.2 3.27761 119.114 3.27761Z" fill="#29C038"/>
<path d="M122.151 129.18C122.151 129.18 118.729 138.919 120.835 140.418C122.941 141.916 113.728 154.153 113.728 154.153L102.672 151.156L108.726 140.917C108.726 140.917 109.516 130.678 109.516 129.18C109.516 127.681 122.151 129.18 122.151 129.18Z" fill="#FFB8B8"/>
<path opacity="0.1" d="M122.151 129.18C122.151 129.18 118.729 138.919 120.835 140.418C122.941 141.916 113.728 154.153 113.728 154.153L102.672 151.156L108.726 140.917C108.726 140.917 109.516 130.678 109.516 129.18C109.516 127.681 122.151 129.18 122.151 129.18Z" fill="black"/>
<path d="M115.158 136.422C120.124 136.422 124.149 132.397 124.149 127.431C124.149 122.466 120.124 118.441 115.158 118.441C110.193 118.441 106.168 122.466 106.168 127.431C106.168 132.397 110.193 136.422 115.158 136.422Z" fill="#FFB8B8"/>
<path d="M108.471 165.015C107.354 164.766 106.25 164.46 105.165 164.097L106.886 152.298L107.418 148.66L110.147 149.685C110.515 149.82 110.933 149.98 111.413 150.156C111.779 150.299 112.171 150.366 112.564 150.352C112.957 150.338 113.343 150.243 113.699 150.074C116.337 148.865 117.906 144.162 117.906 144.162C117.906 144.162 118.012 145.481 118.152 147.714C118.402 151.635 118.762 158.378 118.873 165.74C117.939 165.818 116.995 165.856 116.042 165.855C114.156 165.857 112.273 165.702 110.413 165.392C109.757 165.289 109.11 165.162 108.471 165.015Z" fill="#D0CDE1"/>
<path d="M110.913 142.667L110.147 149.685L109.774 153.081L108.471 165.015C107.354 164.767 106.25 164.46 105.165 164.098C100.702 162.609 96.5923 160.219 93.0916 157.076L91.4324 151.156C91.4413 150.803 91.4769 150.451 91.5389 150.103C91.5386 150.101 91.5389 150.098 91.5396 150.096C91.5403 150.094 91.5415 150.092 91.543 150.091C91.5919 149.781 91.6603 149.474 91.7479 149.173C91.7501 149.169 91.7514 149.165 91.752 149.161C92.0459 148.034 92.6242 147.001 93.4316 146.162C95.4309 144.162 108.664 137.919 108.664 137.919L108.913 138.443L110.913 142.667Z" fill="#D0CDE1"/>
<path d="M114.967 114.726C116.96 114.654 119.093 114.619 120.773 115.693C121.547 116.232 122.225 116.896 122.78 117.658C124.417 119.727 125.831 122.33 125.223 124.897L124.517 124.622C124.517 125.307 124.669 125.984 124.963 126.603C124.863 126.314 124.53 126.781 124.62 127.073L125.397 129.625C125.076 129.526 124.737 129.496 124.403 129.536C124.07 129.576 123.748 129.686 123.459 129.858C123.17 130.03 122.921 130.261 122.727 130.536C122.533 130.811 122.399 131.123 122.334 131.453C122.245 128.489 121.937 125.091 119.533 123.355C118.32 122.48 116.786 122.213 115.309 121.976C113.947 121.757 112.52 121.548 111.215 121.996C109.91 122.445 108.8 123.779 109.095 125.127C108.784 125.056 108.459 125.095 108.173 125.236C107.887 125.377 107.658 125.612 107.524 125.901C107.272 126.488 107.162 127.126 107.202 127.763C106.561 128.216 105.831 127.317 105.57 126.576C104.956 124.838 104.411 122.988 104.741 121.175C105.072 119.362 106.549 117.629 108.392 117.623C108.169 117.377 108.049 117.054 108.06 116.722L109.579 116.594C109.193 116.539 108.838 116.352 108.575 116.065C109.185 116.736 113.981 114.761 114.967 114.726Z" fill="#2F2E41"/>
<path d="M135.887 149.16C135.653 151.033 134.318 156.322 132.97 161.406C131.97 161.974 130.942 162.489 129.889 162.95C126.399 164.491 122.675 165.434 118.873 165.74C117.939 165.818 116.995 165.856 116.042 165.855C114.156 165.857 112.273 165.702 110.413 165.392C111.109 162.704 112.047 158.276 112.924 153.937C113.19 152.626 113.453 151.319 113.698 150.074C114.661 145.166 115.407 141.168 115.407 141.168C115.407 141.168 118.398 138.234 120.171 137.554C120.412 137.447 120.675 137.403 120.938 137.427C122.4 137.669 124.399 141.168 124.399 141.168C124.399 141.168 133.371 144.158 135.469 147.555C135.788 148.026 135.936 148.593 135.887 149.16Z" fill="#D0CDE1"/>
<path d="M97.9259 149.16L97.4015 160.369C95.8796 159.387 94.4384 158.286 93.0916 157.075C92.1898 156.276 91.3349 155.425 90.5311 154.527C90.9613 152.638 91.3218 151.049 91.5389 150.102C91.5387 150.1 91.5389 150.098 91.5396 150.096C91.5403 150.094 91.5415 150.092 91.543 150.09C91.6577 149.566 91.7315 149.242 91.7479 149.172C91.7501 149.169 91.7515 149.164 91.752 149.16H97.9259Z" fill="#D0CDE1"/>
<path d="M137.677 158.198C136.201 159.397 134.626 160.47 132.97 161.406C131.97 161.974 130.942 162.489 129.889 162.95L128.894 157.149L129.893 146.162L135.469 147.555L135.887 147.661L137.677 158.198Z" fill="#D0CDE1"/>
<path d="M374.061 177.466C374.061 177.466 370.17 196.488 376.655 194.759C383.14 193.03 380.546 176.602 380.546 176.602L374.061 177.466Z" fill="#A0616A"/>
<path d="M392.218 98.7847H387.895C387.895 98.7847 383.14 102.243 383.572 106.134C384.004 110.025 375.79 143.745 375.79 148.069C375.79 152.392 374.061 153.689 374.061 156.283C374.061 158.877 374.926 160.606 374.061 161.903C373.196 163.2 371.467 170.981 371.899 174.008C372.151 176.017 372.151 178.05 371.899 180.06H382.707C382.707 180.06 390.489 153.689 392.218 152.392C393.948 151.095 394.812 148.933 394.812 147.636C394.812 146.339 393.948 146.339 396.109 144.61C398.271 142.881 396.974 135.099 396.974 135.099L400 127.317L392.218 98.7847Z" fill="#D0CDE1"/>
<path opacity="0.1" d="M392.218 98.7847H387.895C387.895 98.7847 383.14 102.243 383.572 106.134C384.004 110.025 375.79 143.745 375.79 148.069C375.79 152.392 374.061 153.689 374.061 156.283C374.061 158.877 374.926 160.606 374.061 161.903C373.196 163.2 371.467 170.981 371.899 174.008C372.151 176.017 372.151 178.05 371.899 180.06H382.707C382.707 180.06 390.489 153.689 392.218 152.392C393.948 151.095 394.812 148.933 394.812 147.636C394.812 146.339 393.948 146.339 396.109 144.61C398.271 142.881 396.974 135.099 396.974 135.099L400 127.317L392.218 98.7847Z" fill="black"/>
<path d="M331.694 166.874C331.694 166.874 327.803 185.896 334.288 184.167C340.773 182.438 338.179 166.01 338.179 166.01L331.694 166.874Z" fill="#A0616A"/>
<path d="M332.991 255.499L330.397 266.307L339.908 272.359L342.502 259.39L332.991 255.499Z" fill="#A0616A"/>
<path d="M377.952 268.901L373.196 275.386L378.817 281.87H386.598V268.901H377.952Z" fill="#A0616A"/>
<path d="M387.895 276.25H385.301C384.017 275.989 382.694 275.989 381.41 276.25C378.817 276.683 375.297 272.521 375.297 272.521L371.899 275.386C371.899 275.386 364.982 277.115 368.441 285.329L376.223 290.084C376.223 290.084 380.113 298.298 387.895 297.001C395.677 295.704 390.057 287.058 390.057 287.058L387.895 276.25Z" fill="#2F2E41"/>
<path d="M332.991 261.119L332.333 258.239L326.506 259.822C326.506 259.822 314.402 252.041 314.402 262.416C314.402 272.792 323.912 276.25 323.912 276.25C323.912 276.25 327.371 275.818 327.371 278.844C327.371 281.87 336.45 286.626 339.908 284.897C343.367 283.167 343.367 278.844 343.367 278.844L342.502 266.739L338.611 267.604C338.611 267.604 331.262 267.172 332.559 265.443C333.856 263.713 332.991 261.119 332.991 261.119Z" fill="#2F2E41"/>
<path d="M345.528 161.687C345.528 161.687 340.34 168.604 340.34 172.494C340.34 176.385 338.611 210.971 338.611 210.971C338.611 210.971 329.1 255.067 331.694 257.661C334.288 260.254 342.07 264.145 343.367 262.848C344.664 261.551 353.742 214.429 353.742 214.429L364.55 185.464L374.493 226.966C374.493 226.966 374.061 262.848 375.79 263.281C377.52 263.713 378.384 264.145 377.52 265.875C376.655 267.604 375.358 271.062 375.358 271.062C375.358 271.062 386.166 273.656 388.328 271.927C390.489 270.198 390.921 228.263 388.328 213.564C385.734 198.866 388.76 165.145 388.76 165.145L345.528 161.687Z" fill="#2F2E41"/>
<path d="M361.308 78.0337C368.471 78.0337 374.277 72.227 374.277 65.0642C374.277 57.9014 368.471 52.0947 361.308 52.0947C354.145 52.0947 348.338 57.9014 348.338 65.0642C348.338 72.227 354.145 78.0337 361.308 78.0337Z" fill="#A0616A"/>
<path d="M357.417 73.2782C357.417 73.2782 359.146 82.3568 357.417 84.9507C355.688 87.5446 380.762 85.8154 380.762 85.8154C380.762 85.8154 368.657 71.9812 369.954 69.3873C371.251 66.7935 357.417 73.2782 357.417 73.2782Z" fill="#A0616A"/>
<path d="M346.393 88.1931C346.393 88.1931 355.039 76.9529 365.847 79.1145C368.765 79.6981 371.431 80.2816 373.768 80.8227C382.003 82.7291 388.851 88.5981 391.664 96.5692C392.394 98.6362 392.759 100.622 392.434 102.243C391.137 108.728 391.786 159.957 391.786 159.957C391.786 159.957 388.327 161.254 388.76 162.984C389.192 164.713 392.218 166.875 389.192 166.875C386.166 166.875 340.34 165.145 341.205 163.848C342.07 162.551 346.393 88.1931 346.393 88.1931Z" fill="#D0CDE1"/>
<path d="M350.716 88.1929H346.393C346.393 88.1929 341.637 91.6514 342.07 95.5422C342.502 99.4331 334.288 133.154 334.288 137.477C334.288 141.8 332.559 143.097 332.559 145.691C332.559 148.285 333.423 150.014 332.559 151.311C331.694 152.608 329.965 160.39 330.397 163.416C330.649 165.425 330.649 167.459 330.397 169.468H341.205C341.205 169.468 348.987 143.097 350.716 141.8C352.445 140.503 353.31 138.341 353.31 137.045C353.31 135.748 352.445 135.748 354.607 134.018C356.768 132.289 355.471 124.507 355.471 124.507L358.498 116.726L350.716 88.1929Z" fill="#D0CDE1"/>
<path opacity="0.1" d="M344.413 163.278L357.417 134.667L350.915 165.095L344.413 163.278Z" fill="black"/>
<path d="M356.783 45.4513L356.79 44.3811C357.684 44.2674 358.59 44.2992 359.473 44.4751C359.483 43.8291 359.349 43.189 359.081 42.6011C359.971 42.7183 360.837 42.976 361.646 43.3647L361.944 41.377L369.688 44.0906C372.467 45.0647 375.405 46.1493 377.209 48.4775C379.22 51.0731 379.366 54.705 378.594 57.8965C377.822 61.0881 376.251 64.0202 375.079 67.0875C374.652 68.3972 374.101 69.6633 373.434 70.8687C371.094 74.6413 365.81 75.9877 361.67 74.3849C360.142 73.7933 358.699 72.8071 357.925 71.3632C357.528 70.4674 357.191 69.5467 356.915 68.6068C356.196 66.7007 355.145 62.7132 353.399 61.6641C352.63 61.2024 351.458 63.1844 350.794 62.5816C349.089 61.0325 349.079 58.3254 349.754 56.1224C350.39 53.9149 351.185 51.7563 352.133 49.6633C352.539 48.8188 356.784 45.3229 356.783 45.4513Z" fill="#2F2E41"/>
</g>
<defs>
<clipPath id="clip0">
<rect width="400" height="297.14" fill="white"/>
</clipPath>
</defs>
</svg>
