<svg width="80" height="80" viewBox="0 0 80 80" fill="none" xmlns="http://www.w3.org/2000/svg">
<rect width="80" height="80" rx="10" fill="#FF5A5A" fill-opacity="0.1"/>
<path d="M36.2119 49.5105C35.4607 48.7305 34.4891 48.1544 33.3773 47.888L29.3595 46.9252L29.3578 46.9279L29.3595 46.9252V44.4724H24.453V46.9332L20.4456 47.8905C17.8252 48.5165 15.9766 50.8585 15.9766 53.5527V60.1172H24.8596L36.2119 49.5105Z" fill="#78D2FA"/>
<path d="M29.4648 44.4724V46.9915L26.9186 53.0906L24.375 47.0001V44.4724H29.4648Z" fill="#FFB487"/>
<path d="M32.3784 36.0215V39.419C32.3784 42.4393 29.9299 44.8877 26.9095 44.8877C23.8891 44.8877 21.4405 42.4393 21.4405 39.419V36.0215H32.3784Z" fill="#FFCDAC"/>
<path d="M32.3784 37.0963V35.7798C32.3784 32.7595 29.9299 30.311 26.9095 30.311C23.8891 30.311 21.4405 32.7595 21.4405 35.7798V37.0963H25.2104C27.5711 37.0963 29.8876 36.4554 31.9126 35.242" fill="#878791"/>
<path d="M43.7881 49.5105C44.5393 48.7305 45.5109 48.1544 46.6227 47.888L50.6405 46.9252L50.6422 46.9279L50.6405 46.9252V44.4724H55.547V46.9332L59.5544 47.8905C62.1748 48.5165 64.0234 50.8585 64.0234 53.5527V60.1172H55.1404L43.7881 49.5105Z" fill="#A5DC69"/>
<path d="M36.5774 49.4143L30.9811 50.7553C27.3339 51.6293 24.7619 54.8904 24.7619 58.6408V64.0234H55.218V58.6455C55.218 54.8929 52.6432 51.6306 48.9932 50.7586L43.4114 49.4252L36.5774 49.4143Z" fill="#FF5A5A"/>
<path d="M55.625 44.4724V47.0001L53.0814 53.0906L50.5352 46.9915V44.4724H55.625Z" fill="#FFB487"/>
<path d="M40.001 57.2595L43.6445 48.9872C43.3741 48.5331 43.22 48.0046 43.22 47.445V46.6499H36.778V47.4451C36.778 48.0037 36.6245 48.5314 36.3549 48.9851L40.001 57.2595Z" fill="#FFB487"/>
<path d="M47.6173 33.7036V38.9594C47.6173 43.1662 44.2069 46.5767 40.0001 46.5767C35.7933 46.5767 32.3829 43.1663 32.3829 38.9594V33.7036H47.6173Z" fill="#FFCDAC"/>
<path d="M40 26.2732C35.7931 26.2732 32.3827 29.6835 32.3827 33.8904V35.7241H36.107C38.5827 35.7241 40.9314 34.6279 42.5215 32.7303L47.6171 35.7241V33.8904C47.6173 29.6835 44.2069 26.2732 40 26.2732Z" fill="#F5B955"/>
<path d="M47.6216 36.0215V39.419C47.6216 42.4393 50.0701 44.8877 53.0905 44.8877C56.1109 44.8877 58.5595 42.4393 58.5595 39.419V36.0215H47.6216Z" fill="#FFCDAC"/>
<path d="M47.6216 37.0963V35.7798C47.6216 32.7595 50.0701 30.311 53.0905 30.311C56.1109 30.311 58.5595 32.7595 58.5595 35.7798V37.0963H54.7896C52.4289 37.0963 50.1124 36.4554 48.0874 35.242" fill="#878791"/>
<path d="M39.9746 63.0469C39.7177 63.0469 39.4657 63.1514 39.2842 63.333C39.1025 63.5146 38.998 63.7666 38.998 64.0234C38.998 64.2803 39.1024 64.5322 39.2842 64.7139C39.4657 64.8955 39.7177 65 39.9746 65C40.2314 65 40.4834 64.8955 40.6649 64.7139C40.8466 64.5322 40.9512 64.2803 40.9512 64.0234C40.9512 63.7666 40.8467 63.5146 40.6649 63.333C40.4834 63.1514 40.2314 63.0469 39.9746 63.0469Z" fill="black"/>
<path d="M59.7812 46.9406L56.5236 46.1624V44.8702C58.3318 43.7273 59.5361 41.7118 59.5361 39.4192V35.7798C59.5361 32.2258 56.6447 29.3345 53.0906 29.3345C51.1734 29.3345 49.4501 30.1769 48.2684 31.5098C47.2334 27.9255 43.9231 25.2966 40.0102 25.2966H40.0101C36.0907 25.2966 32.776 27.9338 31.7468 31.5269C30.5647 30.1841 28.8351 29.3345 26.9097 29.3345C23.3556 29.3345 20.4642 32.2259 20.4642 35.7798V39.4192C20.4642 41.7119 21.6685 43.7274 23.4767 44.8702V46.1624L20.219 46.9406C17.1461 47.6746 15 50.3936 15 53.5527V60.1172C15 60.6566 15.4373 61.0938 15.9766 61.0938H23.7854V64.0235C23.7854 64.5628 24.2228 65 24.762 65H35.4753C36.0146 65 36.4519 64.5628 36.4519 64.0235C36.4519 63.4841 36.0146 63.0469 35.4753 63.0469H31.1156V58.7489C31.1156 58.2095 30.6783 57.7723 30.1391 57.7723C29.5998 57.7723 29.1625 58.2095 29.1625 58.7489V63.0469H25.7385V58.6409C25.7385 55.329 27.9879 52.4769 31.2087 51.7051L36.0117 50.5542L39.1021 57.585C39.258 57.9396 39.6087 58.1686 39.996 58.1686H39.9961C40.3834 58.1686 40.7342 57.9397 40.89 57.5851L43.9773 50.5645L48.7664 51.7085C51.9901 52.4786 54.2415 55.3312 54.2415 58.6455V59.7352C54.1916 59.8526 54.1639 59.9816 54.1639 60.1171C54.1639 60.2527 54.1916 60.3818 54.2415 60.4991V63.0469H50.8375V58.7489C50.8375 58.2095 50.4002 57.7723 49.8609 57.7723C49.3217 57.7723 48.8844 58.2095 48.8844 58.7489V63.0469H44.1017C43.5624 63.0469 43.1251 63.4841 43.1251 64.0235C43.1251 64.5628 43.5624 65 44.1017 65H55.2181C55.7573 65 56.1946 64.5628 56.1946 64.0235V61.0938H64.0234C64.5627 61.0938 65 60.6566 65 60.1172V53.5527C65 50.3936 62.8539 47.6746 59.7812 46.9406ZM54.5727 46.9859L53.0816 50.5561L51.6107 47.0329C51.6147 46.9974 51.6175 46.9618 51.6175 46.926C51.6175 46.9169 51.6174 46.9078 51.6171 46.8987V45.6926C52.0907 45.8039 52.5835 45.8645 53.0905 45.8645C53.5998 45.8645 54.0949 45.8033 54.5704 45.6911V46.9331C54.5704 46.9508 54.5717 46.9683 54.5727 46.9859ZM35.6009 47.7704C34.9878 47.3901 34.3151 47.1085 33.605 46.9384L30.336 46.1551V44.8744C31.149 44.362 31.8396 43.6733 32.3543 42.862C33.0905 44.3003 34.2205 45.5048 35.6009 46.3333V47.7704ZM33.3691 38.9595V36.7007H36.117C38.6096 36.7007 40.972 35.7156 42.7173 33.9721L46.6451 36.2796V39.1887C46.5236 42.7445 43.595 45.6002 40.0101 45.6002C36.3481 45.6001 33.3691 42.6211 33.3691 38.9595ZM44.3881 46.3517C45.777 45.526 46.9148 44.3207 47.6567 42.8791C48.1704 43.683 48.8568 44.3655 49.664 44.8744V46.1551L46.395 46.9384C45.6806 47.1096 45.0041 47.3937 44.388 47.7775V46.3517H44.3881ZM53.0905 43.9114C50.6135 43.9114 48.5981 41.8961 48.5981 39.4192V39.2598C48.6016 39.1601 48.604 36.634 48.604 36.634C50.5238 37.5782 52.6403 38.073 54.7897 38.073H57.583V39.4193C57.5829 41.8962 55.5676 43.9114 53.0905 43.9114ZM53.0905 31.2876C55.5676 31.2876 57.5829 33.3029 57.5829 35.7798V36.0216V36.1198H54.7896C52.6797 36.1198 50.6063 35.5658 48.7791 34.5157C49.3266 32.6522 51.0521 31.2876 53.0905 31.2876ZM33.3691 33.8905C33.3691 30.2288 36.3482 27.2499 40.0101 27.2499C43.6718 27.2499 46.6509 30.2289 46.6509 33.8905V34.0178L43.0264 31.8884C42.6151 31.6467 42.0896 31.7376 41.7832 32.1032C40.375 33.7836 38.3098 34.7475 36.1171 34.7475H33.3691V33.8905ZM22.4171 35.7798C22.4171 33.3028 24.4324 31.2876 26.9095 31.2876C28.9479 31.2876 30.6734 32.6522 31.2208 34.5158C29.3936 35.5658 27.3203 36.1199 25.2103 36.1199H22.4171V36.0217V35.7798ZM22.4171 38.0729H25.2104C27.3619 38.0729 29.4806 37.5772 31.4019 36.6312V39.4192C31.4019 41.8962 29.3865 43.9114 26.9095 43.9114C24.4324 43.9114 22.4171 41.8961 22.4171 39.4192V38.0729ZM26.9095 45.8645C27.4165 45.8645 27.9093 45.8038 28.3829 45.6926V46.8713C28.3818 46.8897 28.3813 46.9081 28.3813 46.9264C28.3813 46.9572 28.3843 46.9877 28.3872 47.0183L26.9097 50.5561L25.4266 47.0035C25.4282 46.9801 25.4296 46.9568 25.4296 46.9332V45.6912C25.9051 45.8033 26.4002 45.8645 26.9095 45.8645ZM23.7854 58.6409V59.1407H20.8594V54.8019C20.8594 54.2626 20.4221 53.8253 19.8828 53.8253C19.3436 53.8253 18.9062 54.2626 18.9062 54.8019V59.1407H16.9531V53.5527C16.9531 51.3012 18.4826 49.3634 20.6726 48.8403L23.7681 48.1007L25.7884 52.9401C24.5248 54.5098 23.7854 56.4995 23.7854 58.6409ZM30.7536 49.8058C30.177 49.944 29.6259 50.1363 29.1026 50.3734L30.0538 48.0958L33.1498 48.8377C33.3899 48.8953 33.6239 48.9713 33.8504 49.0637L30.7536 49.8058ZM39.9963 54.7656L37.554 49.2092V47.1952C38.3325 47.4278 39.1568 47.5533 40.01 47.5533C40.8518 47.5533 41.6655 47.431 42.4349 47.2043V49.2201L39.9963 54.7656ZM46.1317 49.0711C46.3638 48.9754 46.6037 48.8968 46.8502 48.8377L49.9387 48.0977L50.8937 50.3854C50.3638 50.144 49.8051 49.9488 49.2201 49.809L46.1317 49.0711ZM63.0469 59.1407H61.0938V54.8019C61.0938 54.2626 60.6564 53.8253 60.1172 53.8253C59.5779 53.8253 59.1406 54.2626 59.1406 54.8019V59.1407H56.1946V58.6456C56.1946 56.507 55.4577 54.5201 54.1978 52.9517L56.2244 48.099L59.3274 48.8403C61.5174 49.3634 63.0469 51.3012 63.0469 53.5527V59.1407Z" fill="black"/>
<path d="M36.7246 37.583C36.4678 37.583 36.2158 37.6875 36.0342 37.8691C35.8525 38.0508 35.748 38.3027 35.748 38.5596C35.748 38.8164 35.8524 39.0684 36.0342 39.25C36.2159 39.4316 36.4678 39.5361 36.7246 39.5361C36.9824 39.5361 37.2334 39.4316 37.4149 39.25C37.5976 39.0684 37.7012 38.8164 37.7012 38.5596C37.7012 38.3027 37.5976 38.0508 37.4149 37.8691C37.2334 37.6875 36.9814 37.583 36.7246 37.583Z" fill="black"/>
<path d="M43.2549 39.5361C43.5117 39.5361 43.7637 39.4316 43.9452 39.25C44.1278 39.0684 44.2314 38.8164 44.2314 38.5596C44.2314 38.3027 44.1278 38.0508 43.9452 37.8691C43.7637 37.6875 43.5117 37.583 43.2549 37.583C42.998 37.583 42.7461 37.6875 42.5645 37.8691C42.3828 38.0508 42.2783 38.3027 42.2783 38.5596C42.2783 38.8164 42.3827 39.0684 42.5645 39.25C42.7462 39.4316 42.998 39.5361 43.2549 39.5361Z" fill="black"/>
<path d="M41.8796 41.1564C41.4981 40.775 40.88 40.775 40.4984 41.1564C40.2097 41.4451 39.7398 41.4451 39.4511 41.1564C39.0696 40.775 38.4515 40.775 38.0699 41.1564C37.6886 41.5377 37.6886 42.1561 38.0699 42.5375C38.5951 43.0626 39.2849 43.3252 39.9747 43.3252C40.6645 43.3252 41.3543 43.0627 41.8795 42.5375C42.2609 42.1561 42.2609 41.5377 41.8796 41.1564Z" fill="black"/>
<path d="M54.709 22.2266H55.3788C55.9181 22.2266 56.3554 21.7894 56.3554 21.25C56.3554 20.7106 55.9181 20.2734 55.3788 20.2734H54.709C54.1697 20.2734 53.7324 20.7106 53.7324 21.25C53.7324 21.7894 54.1697 22.2266 54.709 22.2266Z" fill="black"/>
<path d="M59.4474 22.2266H60.1172C60.6564 22.2266 61.0937 21.7894 61.0937 21.25C61.0937 20.7106 60.6564 20.2734 60.1172 20.2734H59.4474C58.9081 20.2734 58.4708 20.7106 58.4708 21.25C58.4708 21.7894 58.908 22.2266 59.4474 22.2266Z" fill="black"/>
<path d="M57.4132 24.9306C57.9524 24.9306 58.3897 24.4934 58.3897 23.954V23.2842C58.3897 22.7448 57.9524 22.3076 57.4132 22.3076C56.8739 22.3076 56.4366 22.7448 56.4366 23.2842V23.954C56.4366 24.4934 56.8738 24.9306 57.4132 24.9306Z" fill="black"/>
<path d="M57.4132 20.1923C57.9524 20.1923 58.3897 19.7551 58.3897 19.2157V18.5459C58.3897 18.0065 57.9524 17.5693 57.4132 17.5693C56.8739 17.5693 56.4366 18.0065 56.4366 18.5459V19.2157C56.4366 19.7551 56.8738 20.1923 57.4132 20.1923Z" fill="black"/>
<path d="M19.8285 22.2266H20.4982C21.0375 22.2266 21.4748 21.7894 21.4748 21.25C21.4748 20.7106 21.0375 20.2734 20.4982 20.2734H19.8285C19.2893 20.2734 18.852 20.7106 18.852 21.25C18.852 21.7894 19.2893 22.2266 19.8285 22.2266Z" fill="black"/>
<path d="M24.5669 22.2266H25.2366C25.7759 22.2266 26.2132 21.7894 26.2132 21.25C26.2132 20.7106 25.7759 20.2734 25.2366 20.2734H24.5669C24.0276 20.2734 23.5903 20.7106 23.5903 21.25C23.5903 21.7894 24.0275 22.2266 24.5669 22.2266Z" fill="black"/>
<path d="M22.5326 24.9306C23.0719 24.9306 23.5092 24.4934 23.5092 23.954V23.2842C23.5092 22.7448 23.0719 22.3076 22.5326 22.3076C21.9934 22.3076 21.5561 22.7448 21.5561 23.2842V23.954C21.5561 24.4934 21.9933 24.9306 22.5326 24.9306Z" fill="black"/>
<path d="M22.5326 20.1923C23.0719 20.1923 23.5092 19.7551 23.5092 19.2157V18.5459C23.5092 18.0065 23.0719 17.5693 22.5326 17.5693C21.9934 17.5693 21.5561 18.0065 21.5561 18.5459V19.2157C21.5561 19.7551 21.9933 20.1923 22.5326 20.1923Z" fill="black"/>
<path d="M40 23.2419C40.5393 23.2419 40.9766 22.8047 40.9766 22.2654V19.696C40.9766 19.1567 40.5393 18.7195 40 18.7195C39.4607 18.7195 39.0234 19.1567 39.0234 19.696V22.2654C39.0234 22.8047 39.4607 23.2419 40 23.2419Z" fill="black"/>
<path d="M40 16.9531C40.2568 16.9531 40.5088 16.8486 40.6903 16.667C40.8721 16.4854 40.9766 16.2334 40.9766 15.9766C40.9766 15.7197 40.8721 15.4678 40.6903 15.2861C40.5088 15.1045 40.2568 15 40 15C39.7432 15 39.4912 15.1045 39.3096 15.2861C39.1278 15.4678 39.0234 15.7197 39.0234 15.9766C39.0234 16.2334 39.1278 16.4854 39.3096 16.667C39.4913 16.8486 39.7432 16.9531 40 16.9531Z" fill="black"/>
<path d="M35.1966 20.2991C35.3873 20.4899 35.6372 20.5852 35.8871 20.5852C36.137 20.5852 36.3869 20.4899 36.5776 20.2991C36.959 19.9178 36.959 19.2994 36.5776 18.918L35.1485 17.4889C34.7671 17.1075 34.1489 17.1075 33.7674 17.4889C33.386 17.8702 33.386 18.4886 33.7674 18.87L35.1966 20.2991Z" fill="black"/>
<path d="M44.065 20.579C44.315 20.579 44.5648 20.4837 44.7556 20.2929L46.2324 18.8161C46.6138 18.4347 46.6138 17.8164 46.2324 17.4349C45.851 17.0536 45.2328 17.0536 44.8513 17.4349L43.3744 18.9118C42.9931 19.2931 42.9931 19.9115 43.3744 20.2929C43.5652 20.4837 43.815 20.579 44.065 20.579Z" fill="black"/>
</svg>
