<svg width="300" height="200" viewBox="0 0 300 200" fill="none" xmlns="http://www.w3.org/2000/svg">
<g clip-path="url(#clip0)">
<path opacity="0.1" d="M174.866 39.8114C157.217 39.1842 140.408 33.4875 124.368 27.2672C108.327 21.047 92.4181 14.1258 75.1917 10.8234C64.1119 8.6991 51.4395 8.39913 42.514 14.3385C33.9212 20.0652 31.1451 29.9233 29.6535 39.0806C28.53 45.969 27.87 53.2174 30.9461 59.6667C33.084 64.1445 36.8746 67.9077 39.4979 72.1973C48.6252 87.1194 42.1731 105.521 32.285 120.092C27.6491 126.928 22.2633 133.454 18.6828 140.724C15.1022 147.994 13.4469 156.336 16.5802 163.759C19.6836 171.122 27.0819 176.641 35.0966 180.527C51.374 188.419 70.5476 190.68 89.2575 191.959C130.662 194.792 172.284 193.565 213.797 192.338C229.161 191.883 244.59 191.422 259.703 189.047C268.097 187.727 276.761 185.632 282.855 180.579C290.589 174.163 292.506 163.295 287.322 155.251C278.629 141.755 254.598 138.403 248.514 123.918C245.171 115.947 248.604 107.065 253.467 99.6718C263.895 83.8116 281.372 69.8957 282.291 51.7639C282.924 39.3124 274.522 26.8418 261.53 20.9488C247.914 14.7721 229.03 15.5493 218.989 25.7729C208.632 36.2882 190.451 40.3378 174.866 39.8114Z" fill="#29C038"/>
<path d="M46.7026 199.611C57.7287 199.611 66.667 197.892 66.667 195.771C66.667 193.651 57.7287 191.932 46.7026 191.932C35.6766 191.932 26.7383 193.651 26.7383 195.771C26.7383 197.892 35.6766 199.611 46.7026 199.611Z" fill="#29C038"/>
<path d="M46.3674 197.184C47.6505 197.184 48.6908 195.822 48.6908 194.141C48.6908 192.46 47.6505 191.098 46.3674 191.098C45.0842 191.098 44.0439 192.46 44.0439 194.141C44.0439 195.822 45.0842 197.184 46.3674 197.184Z" fill="#3F3D56"/>
<path d="M46.3674 193.464C47.6505 193.464 48.6908 192.102 48.6908 190.421C48.6908 188.74 47.6505 187.377 46.3674 187.377C45.0842 187.377 44.0439 188.74 44.0439 190.421C44.0439 192.102 45.0842 193.464 46.3674 193.464Z" fill="#3F3D56"/>
<path d="M46.3674 189.745C47.6505 189.745 48.6908 188.382 48.6908 186.702C48.6908 185.021 47.6505 183.658 46.3674 183.658C45.0842 183.658 44.0439 185.021 44.0439 186.702C44.0439 188.382 45.0842 189.745 46.3674 189.745Z" fill="#3F3D56"/>
<path d="M46.3674 186.028C47.6505 186.028 48.6908 184.665 48.6908 182.984C48.6908 181.303 47.6505 179.941 46.3674 179.941C45.0842 179.941 44.0439 181.303 44.0439 182.984C44.0439 184.665 45.0842 186.028 46.3674 186.028Z" fill="#3F3D56"/>
<path d="M46.3674 182.308C47.6505 182.308 48.6908 180.946 48.6908 179.265C48.6908 177.584 47.6505 176.222 46.3674 176.222C45.0842 176.222 44.0439 177.584 44.0439 179.265C44.0439 180.946 45.0842 182.308 46.3674 182.308Z" fill="#3F3D56"/>
<path d="M46.3674 178.589C47.6505 178.589 48.6908 177.226 48.6908 175.545C48.6908 173.864 47.6505 172.502 46.3674 172.502C45.0842 172.502 44.0439 173.864 44.0439 175.545C44.0439 177.226 45.0842 178.589 46.3674 178.589Z" fill="#3F3D56"/>
<path d="M46.3674 174.869C47.6505 174.869 48.6908 173.506 48.6908 171.826C48.6908 170.145 47.6505 168.782 46.3674 168.782C45.0842 168.782 44.0439 170.145 44.0439 171.826C44.0439 173.506 45.0842 174.869 46.3674 174.869Z" fill="#3F3D56"/>
<path d="M55.0686 146.374C55.387 145.971 55.6768 145.545 55.9358 145.101L49.8273 144.097L56.4321 144.146C57.0662 142.768 57.4121 141.274 57.4487 139.757C57.4853 138.24 57.2117 136.732 56.6448 135.325L47.7847 139.922L55.9657 133.923C55.1994 132.601 54.1692 131.451 52.9394 130.545C51.7095 129.638 50.3063 128.995 48.817 128.654C47.3277 128.313 45.7842 128.283 44.2825 128.564C42.7809 128.845 41.3532 129.433 40.0883 130.29C38.8235 131.147 37.7485 132.255 36.9304 133.545C36.1122 134.835 35.5683 136.28 35.3325 137.79C35.0967 139.299 35.1742 140.841 35.5599 142.319C35.9457 143.798 36.6316 145.181 37.5749 146.382C37.08 147.012 36.654 147.694 36.3041 148.414L44.2342 152.532L35.7805 149.696C35.1858 151.45 35.0384 153.325 35.3518 155.151C35.6651 156.977 36.4292 158.695 37.5749 160.151C36.2828 161.793 35.4791 163.766 35.2554 165.844C35.0318 167.921 35.3973 170.02 36.3102 171.9C37.223 173.779 38.6464 175.364 40.4176 176.473C42.1887 177.582 44.2362 178.17 46.3258 178.17C48.4154 178.17 50.4629 177.582 52.234 176.473C54.0052 175.364 55.4286 173.779 56.3415 171.9C57.2543 170.02 57.6198 167.921 57.3962 165.844C57.1725 163.766 56.3688 161.793 55.0767 160.151C56.6207 158.189 57.4601 155.764 57.4601 153.267C57.4601 150.77 56.6207 148.345 55.0767 146.382L55.0686 146.374Z" fill="#29C038"/>
<path opacity="0.1" d="M35.1953 153.255C35.192 155.752 36.0318 158.177 37.5787 160.137C36.2867 161.78 35.4829 163.753 35.2593 165.83C35.0356 167.908 35.4011 170.006 36.314 171.886C37.2269 173.766 38.6503 175.351 40.4214 176.459C42.1926 177.568 44.2401 178.156 46.3297 178.156C48.4193 178.156 50.4667 177.568 52.2379 176.459C54.0091 175.351 55.4324 173.766 56.3453 171.886C57.2582 170.006 57.6237 167.908 57.4001 165.83C57.1764 163.753 56.3726 161.78 55.0806 160.137C56.5641 158.248 35.1953 152.008 35.1953 153.255Z" fill="black"/>
<path d="M143.427 149.437C143.596 151.619 144.436 153.876 146.203 155.164C147.97 156.451 150.781 156.426 152.131 154.697C152.585 154.048 152.918 153.323 153.116 152.557C154.253 148.962 155.06 145.03 153.814 141.471C151.002 141.289 147.744 139.966 145.633 142.289C143.928 144.182 143.23 146.914 143.427 149.437Z" fill="#3F3D56"/>
<path d="M156.478 127.449C156.104 130.621 155.469 133.778 155.534 136.972C155.559 138.204 155.69 139.426 155.692 140.664C155.697 143.879 154.85 147.037 153.238 149.819C153.068 150.146 152.841 150.439 152.567 150.686C151.921 151.209 150.947 151.166 150.222 150.765C149.513 150.324 148.938 149.699 148.556 148.957C146.524 145.477 146.467 141.248 145.663 137.302C145.046 134.283 143.966 131.357 143.576 128.303C143.323 126.336 143.361 124.332 142.957 122.39C142.835 121.804 142.491 120.923 142.265 120.059C142.057 119.287 141.943 118.529 142.156 118.008C142.589 116.942 144.01 117.356 144.934 117.422C148.19 117.663 151.459 117.655 154.713 117.397C155.035 117.373 155.401 117.359 155.627 117.588C155.726 117.704 155.8 117.838 155.845 117.984C156.104 118.693 156.302 119.422 156.437 120.165C156.887 122.54 156.761 125.03 156.478 127.449Z" fill="#FABDBD"/>
<g opacity="0.1">
<path opacity="0.1" d="M155.224 117.398C155.056 117.38 154.887 117.38 154.719 117.398C153.159 117.523 151.597 117.586 150.037 117.594C151.766 117.598 153.495 117.532 155.224 117.398Z" fill="black"/>
<path opacity="0.1" d="M150.773 150.765C150.065 150.324 149.489 149.699 149.107 148.957C147.076 145.477 147.018 141.248 146.214 137.302C145.597 134.283 144.518 131.357 144.128 128.303C143.874 126.337 143.912 124.332 143.509 122.391C143.386 121.804 143.042 120.923 142.816 120.059C142.609 119.287 142.494 118.529 142.707 118.008C142.797 117.795 142.949 117.613 143.144 117.487C143.338 117.36 143.566 117.295 143.798 117.299C143.108 117.253 142.434 117.335 142.161 118.008C141.949 118.529 142.063 119.287 142.271 120.059C142.497 120.923 142.84 121.804 142.963 122.391C143.367 124.332 143.329 126.337 143.582 128.303C143.972 131.36 145.052 134.286 145.668 137.302C146.473 141.248 146.53 145.483 148.562 148.957C148.943 149.699 149.519 150.324 150.228 150.765C150.663 151.006 151.162 151.107 151.657 151.054C151.347 151.013 151.047 150.915 150.773 150.765Z" fill="black"/>
</g>
<path d="M166.789 144.174C165.152 147.446 165.425 152.082 165.425 152.082C165.698 162.99 161.335 185.897 161.335 185.897H157.517C157.517 185.897 156.971 160.536 157.517 158.354C158.062 156.173 157.244 148.537 156.426 137.902C155.818 129.993 157.473 122.827 158.362 119.683C158.668 118.592 158.88 117.995 158.88 117.995C158.88 117.995 165.152 108.723 168.698 113.086C169.516 114.1 169.949 116.148 170.099 118.734C170.585 127.264 168.043 141.662 166.789 144.174Z" fill="#FABDBD"/>
<path opacity="0.1" d="M170.099 118.733C169.949 116.148 169.521 114.098 168.698 113.086C167.907 112.115 166.98 111.821 166.02 111.949C166.764 112.072 167.431 112.48 167.88 113.086C168.698 114.1 169.131 116.148 169.281 118.733C169.767 127.264 167.225 141.662 165.971 144.174C164.334 147.446 164.607 152.082 164.607 152.082C164.88 162.99 160.517 185.897 160.517 185.897H161.335C161.335 185.897 165.698 162.99 165.425 152.082C165.425 152.082 165.153 147.446 166.789 144.174C168.043 141.662 170.585 127.264 170.099 118.733Z" fill="black"/>
<path d="M155.531 184.901C155.226 185.14 154.963 185.428 154.751 185.752C154.263 186.674 154.956 187.776 155.697 188.509C156.439 189.243 157.334 190.028 157.334 191.072C157.334 191.912 156.698 192.632 155.986 193.08C155.605 193.32 155.125 193.625 155.204 194.078C155.232 194.192 155.281 194.3 155.348 194.397C155.959 195.332 157.042 195.88 158.138 196.087C159.234 196.295 160.366 196.205 161.481 196.115C161.648 196.121 161.812 196.064 161.939 195.957C162.02 195.848 162.063 195.716 162.062 195.58C162.117 195.002 162.081 194.391 162.335 193.87C162.689 193.159 163.505 192.796 163.971 192.158C164.626 191.285 164.536 190.072 164.287 189.011C163.742 186.701 162.529 184.067 160.707 182.466C158.596 180.628 156.941 183.573 155.531 184.901Z" fill="#3F3D56"/>
<path d="M163.795 47.4472C165.316 45.1729 164.921 41.9932 163.366 39.7298C161.812 37.4664 159.314 36.0429 156.737 35.1239C153.263 33.8858 149.431 33.4632 145.862 34.3931C143.02 35.1321 140.468 36.6783 137.79 37.8727C133.052 39.9865 127.901 41.0116 122.715 40.8724C116.958 40.7115 110.651 39.2362 105.821 42.3832C96.9803 48.1344 100.913 63.7874 92.5489 70.1986C90.2937 71.9275 87.4549 72.6829 84.9461 74.0164C82.4372 75.3499 80.0593 77.6706 80.1193 80.5121C80.1465 81.8756 80.7465 83.1764 81.4828 84.3299C84.6188 89.3012 90.4819 92.3773 96.3531 92.32C102.224 92.2627 107.954 89.1403 111.338 84.3353C112.186 83.1327 112.933 81.7938 114.163 80.992C116.617 79.3831 119.852 80.5094 122.78 80.7493C129.301 81.2811 135.824 76.3861 137.122 69.9641C137.667 67.2234 137.572 63.9483 139.778 62.2276C141.559 60.8395 144.065 61.1367 146.323 60.8995C150.451 60.4714 153.71 57.8998 155.952 54.5401C156.98 52.9994 157.1 51.1587 158.501 49.9451C160.012 48.6116 162.349 49.5961 163.795 47.4472Z" fill="#3F3D56"/>
<g opacity="0.1">
<path opacity="0.1" d="M117.261 41.3988C119.652 41.4644 122.044 41.2816 124.397 40.8534C123.748 40.8724 123.094 40.8724 122.442 40.8534C117.923 40.7279 113.067 39.7953 108.851 40.9188C111.632 40.9461 114.509 41.3224 117.261 41.3988Z" fill="black"/>
<path opacity="0.1" d="M108.704 81.5347C107.474 82.3364 106.727 83.6754 105.879 84.878C103.272 88.5369 99.4621 91.1633 95.1152 92.2981C95.4343 92.3118 95.7533 92.32 96.0751 92.3172C101.952 92.26 107.676 89.1375 111.06 84.3326C111.908 83.13 112.655 81.791 113.885 80.9893L114.098 80.8584C112.173 80.5938 110.283 80.5011 108.704 81.5347Z" fill="black"/>
<path opacity="0.1" d="M163.091 39.7215C161.54 37.469 159.039 36.0346 156.462 35.1156C152.988 33.8775 149.156 33.4549 145.587 34.3848C145.505 34.4039 145.426 34.4284 145.347 34.4502C147.373 34.5632 149.372 34.9711 151.281 35.661C153.858 36.58 156.358 38.0144 157.91 40.2669C159.462 42.5194 159.86 45.7209 158.338 47.9843C156.893 50.1414 154.556 49.1569 153.026 50.485C151.624 51.6985 151.504 53.5392 150.476 55.08C148.548 57.9624 145.865 60.2613 142.524 61.1339C143.672 60.9976 144.883 61.0139 146.029 60.8939C150.157 60.4658 153.416 57.8942 155.658 54.5346C156.686 52.9938 156.806 51.1531 158.207 49.9396C159.737 48.6115 162.074 49.596 163.52 47.4389C165.044 45.1646 164.649 41.974 163.091 39.7215Z" fill="black"/>
<path opacity="0.1" d="M140.85 61.4395C138.606 61.674 136.1 61.3795 134.305 62.7675C132.099 64.4882 132.206 67.7634 131.649 70.504C130.692 75.2953 126.803 79.2468 122.187 80.7166L122.511 80.7466C129.031 81.2784 135.554 76.3834 136.852 69.9613C137.398 67.2207 137.302 63.9456 139.508 62.2248C140.015 61.8459 140.59 61.5681 141.202 61.4067C141.079 61.4095 140.967 61.4286 140.85 61.4395Z" fill="black"/>
</g>
<path d="M206.739 37.6842C206.739 37.6842 200.194 50.7738 198.013 55.6824C195.831 60.591 175.924 67.9539 173.197 68.2266C172.465 68.3268 171.784 68.6551 171.25 69.1647C169.709 70.5282 168.834 72.8625 168.834 72.8625C168.834 72.8625 169.925 80.2254 168.561 92.4969C168.534 92.7341 168.509 92.9714 168.487 93.2004C167.298 104.877 169.788 107.632 169.788 107.632C169.788 107.632 143.336 117.722 144.154 104.632C144.411 100.512 144.373 97.5009 144.119 94.9839C143.841 92.4072 143.317 89.863 142.554 87.3865C141.907 85.1258 141.136 82.6469 140.337 79.2709C139.952 77.5865 139.445 75.9323 138.82 74.3214C138.801 74.2723 138.782 74.2232 138.766 74.1769C137.402 70.7927 136.039 69.6991 135.259 69.3446C134.523 69.0243 133.821 68.6296 133.165 68.1666C130.645 66.3477 125.237 62.2708 120.421 57.4549C113.877 50.9101 107.332 35.3662 107.332 35.3662C107.332 35.3662 105.423 26.3671 109.786 19.0042C114.149 11.6413 112.24 33.4573 112.24 33.4573C112.24 33.4573 120.149 44.0926 122.058 49.0012C123.039 51.5264 124.599 52.819 125.875 53.4899C127.984 54.5874 130.003 55.8494 131.913 57.264C133.204 58.2397 134.561 59.1254 135.973 59.9147C139.022 61.5509 142.674 63.397 145.717 63.8825C146.192 63.961 146.673 64.002 147.154 64.0052C147.383 64.0125 147.61 63.967 147.818 63.8725C148.026 63.7779 148.209 63.6367 148.354 63.4598C149.172 62.4971 149.153 60.4246 148.965 58.7202C148.864 57.8373 148.715 56.9606 148.518 56.0941C148.518 56.0941 157.38 50.5038 157.108 57.3213C157.065 58.0746 157.135 58.8301 157.315 59.5629C157.46 60.2355 157.781 60.8576 158.245 61.3654C158.71 61.8733 159.3 62.2488 159.957 62.4535C161.022 62.7656 162.148 62.8022 163.23 62.5599C163.567 62.5022 163.893 62.3908 164.195 62.2299C165.013 61.6845 173.194 59.2302 175.649 58.9575C178.103 58.6848 190.374 52.6854 190.374 52.6854L203.737 34.1418C203.737 34.1418 203.464 23.2338 208.918 18.8706C214.372 14.5074 206.739 37.6842 206.739 37.6842Z" fill="#FABDBD"/>
<g opacity="0.1">
<path opacity="0.1" d="M168.488 91.5646C168.25 93.756 168.145 95.9598 168.175 98.1639C168.202 96.7241 168.297 95.0797 168.488 93.2008C168.51 92.9717 168.535 92.7345 168.562 92.4972C169.039 88.2976 169.267 84.0733 169.244 79.8467C169.202 83.5273 168.974 87.2034 168.562 90.861C168.546 91.0983 168.51 91.3355 168.488 91.5646Z" fill="black"/>
<path opacity="0.1" d="M148.802 55.9199C148.619 56.0263 148.529 56.0917 148.529 56.0917C148.794 57.2583 148.969 58.4435 149.053 59.6368C149.108 58.3924 149.024 57.1457 148.802 55.9199Z" fill="black"/>
<path opacity="0.1" d="M112.368 31.9772C112.502 30.0683 112.701 26.6459 112.663 23.6025C112.617 27.6712 112.254 31.8217 112.254 31.8217L112.368 31.9772Z" fill="black"/>
<path opacity="0.1" d="M144.174 104.313C144.174 104.419 144.174 104.526 144.155 104.632C143.337 117.722 169.789 107.632 169.789 107.632C169.48 107.214 169.246 106.745 169.099 106.246C165.115 107.664 145.093 114.258 144.174 104.313Z" fill="black"/>
<path opacity="0.1" d="M206.739 36.0483C206.739 36.0483 200.195 49.1379 198.013 54.0465C195.831 58.9551 175.924 66.318 173.197 66.5907C172.466 66.691 171.784 67.0192 171.25 67.5288C169.709 68.8923 168.834 71.2266 168.834 71.2266C168.834 71.2266 168.899 71.6711 168.979 72.5165C169.284 71.8156 170.069 70.2067 171.25 69.165C171.784 68.6554 172.466 68.3272 173.197 68.2269C175.924 67.9542 195.831 60.5913 198.013 55.6827C200.195 50.7741 206.739 37.6845 206.739 37.6845C206.739 37.6845 211.351 23.6813 210.843 19.4927C210.423 24.8594 206.739 36.0483 206.739 36.0483Z" fill="black"/>
<path opacity="0.1" d="M144.119 93.348C143.842 90.7713 143.318 88.2272 142.554 85.7506C141.908 83.4899 141.136 81.0111 140.337 77.6351C139.952 75.9506 139.446 74.2964 138.821 72.6856C138.802 72.6365 138.783 72.5874 138.766 72.541C137.403 69.1568 136.039 68.0633 135.259 67.7088C134.523 67.3885 133.821 66.9937 133.165 66.5307C130.645 64.7118 125.238 60.6349 120.422 55.8191C113.877 49.2743 107.332 33.7304 107.332 33.7304C107.09 32.4181 106.955 31.0885 106.929 29.7544C106.862 31.6342 106.997 33.5157 107.332 35.3666C107.332 35.3666 113.877 50.9105 120.422 57.4553C125.238 62.2711 130.645 66.348 133.165 68.1669C133.826 68.6309 134.534 69.0257 135.276 69.345C136.053 69.6995 137.414 70.793 138.783 74.1772C138.799 74.2236 138.818 74.2727 138.837 74.3218C139.459 75.9328 139.963 77.587 140.345 79.2713C141.144 82.6473 141.916 85.1261 142.562 87.3868C143.326 89.8634 143.85 92.4075 144.128 94.9842C144.242 96.1241 144.31 97.3649 144.329 98.7611C144.362 96.9542 144.292 95.1469 144.119 93.348Z" fill="black"/>
</g>
<path d="M171.128 81.5019C170.712 82.1901 170.347 82.9084 170.037 83.6507C169.625 84.7961 169.623 86.0423 169.546 87.2558C169.437 88.9588 169.178 90.6489 168.772 92.3062C168.706 92.6115 168.615 92.9107 168.499 93.2007C168.418 93.3959 168.31 93.5794 168.18 93.7461C168.035 93.9239 167.864 94.0792 167.673 94.2069C167.38 94.4021 167.071 94.5709 166.748 94.7114C162.952 96.484 158.813 98.0493 154.67 97.4384C152.919 97.1323 151.225 96.5622 149.645 95.7477C148.145 95.0196 146.449 94.1551 144.894 94.7605C144.656 94.8816 144.398 94.9618 144.133 94.9978C144.082 94.9986 144.031 94.9941 143.981 94.9841C143.468 94.886 143.468 93.157 143.351 92.6471C142.904 90.6891 142.835 89.102 142.568 87.4004C142.426 86.4593 142.206 85.5317 141.911 84.627C140.82 81.3273 140.49 77.8095 140.49 74.3517C140.49 74.1799 139.263 74.3517 138.854 74.3353C138.75 74.3353 138.693 74.3189 138.718 74.2835C138.741 74.2496 138.769 74.2185 138.799 74.1908C138.942 74.0748 139.109 73.992 139.288 73.9481L139.609 73.8526C141.295 73.3754 143.154 73.1763 144.414 71.9901C145.723 70.7657 146.05 68.8104 145.993 67.0215C145.977 66.4461 145.696 65.0499 145.742 63.8909C146.217 63.9694 146.698 64.0104 147.179 64.0136C147.408 64.0209 147.635 63.9755 147.843 63.8809C148.051 63.7863 148.235 63.6451 148.379 63.4682C148.834 64.349 149.228 65.2602 149.557 66.1952C150.021 67.3351 150.375 68.535 151.054 69.5658C152.145 71.2456 154.158 72.3501 156.159 72.181C158.161 72.0119 160.024 70.4739 160.381 68.4995C160.694 66.7679 159.966 64.2754 159.983 62.4756C161.047 62.7877 162.173 62.8243 163.255 62.5819C163.301 62.6931 163.34 62.8069 163.372 62.9228C163.986 65.0281 164.804 67.4442 166.863 68.1914C168.194 68.6713 169.767 68.3114 170.997 69.0095C171.092 69.0638 171.183 69.1239 171.27 69.1895C171.554 69.4006 171.798 69.6599 171.992 69.9557C172.498 70.7898 172.798 71.7319 172.868 72.7046C173.183 75.7451 172.576 78.8101 171.128 81.5019Z" fill="#29C038"/>
<path opacity="0.1" d="M157.315 59.5606C155.954 60.085 154.49 60.2819 153.039 60.1355C151.589 59.9892 150.193 59.5036 148.965 58.718C148.864 57.8351 148.715 56.9584 148.518 56.0919C148.518 56.0919 157.38 50.5016 157.108 57.3191C157.065 58.0724 157.135 58.8278 157.315 59.5606Z" fill="black"/>
<path d="M153.969 59.6369C159.09 59.6369 163.241 55.4857 163.241 50.3651C163.241 45.2444 159.09 41.0933 153.969 41.0933C148.848 41.0933 144.697 45.2444 144.697 50.3651C144.697 55.4857 148.848 59.6369 153.969 59.6369Z" fill="#FABDBD"/>
<path d="M137.746 73.4082C137.746 73.4082 155.744 61.9547 211.648 74.2263C267.551 86.4978 300.003 76.6806 300.003 76.6806V89.4975C300.003 89.4975 237.282 96.315 213.284 89.4975C189.286 82.68 155.125 78.7476 143.162 89.3038L137.746 73.4082Z" fill="#F86D70"/>
<path opacity="0.1" d="M137.746 73.4082C137.746 73.4082 155.744 61.9547 211.648 74.2263C267.551 86.4978 300.003 76.6806 300.003 76.6806V89.4975C300.003 89.4975 237.282 96.315 213.284 89.4975C189.286 82.68 155.125 78.7476 143.162 89.3038L137.746 73.4082Z" fill="black"/>
<path d="M138.292 73.9536C138.292 73.9536 155.745 62.5002 211.648 74.7717C267.552 87.0432 299.458 77.226 299.458 77.226L299.73 88.9521C299.73 88.9521 237.555 95.7696 213.557 88.9521C189.56 82.1346 155.671 77.3841 143.708 87.9404L138.292 73.9536Z" fill="#F86D70"/>
<path d="M131.731 91.57C131.731 91.57 113.732 103.023 57.8289 90.7519C1.92541 78.4804 4.65241 88.2976 4.65241 88.2976V75.4807C4.65241 75.4807 32.1951 68.6632 56.1927 75.4807C80.1903 82.2982 114.351 86.2305 126.315 75.6743L131.731 91.57Z" fill="#F86D70"/>
<path opacity="0.1" d="M131.731 91.57C131.731 91.57 113.732 103.023 57.8289 90.7519C1.92541 78.4804 4.65241 88.2976 4.65241 88.2976V75.4807C4.65241 75.4807 32.1951 68.6632 56.1927 75.4807C80.1903 82.2982 114.351 86.2305 126.315 75.6743L131.731 91.57Z" fill="black"/>
<path d="M131.185 91.0246C131.185 91.0246 113.732 102.478 57.8286 90.2065C1.9251 77.935 5.1975 87.7522 5.1975 87.7522L4.9248 76.0261C4.9248 76.0261 31.9221 69.2086 55.9197 76.0261C79.9173 82.8436 113.806 87.594 125.769 77.0378L131.185 91.0246Z" fill="#F86D70"/>
<path d="M145.995 51.9001C145.722 50.1984 145.302 48.055 146.726 47.0815C147.233 46.7736 147.821 46.6219 148.414 46.6451C151.362 46.6151 154.179 48.6686 157.069 48.0686C157.989 47.8759 158.834 47.4214 159.502 46.76C160.17 46.0986 160.632 45.2584 160.834 44.3404C161.035 43.4223 160.968 42.4656 160.638 41.5852C160.309 40.7048 159.733 39.9382 158.978 39.3777C157.841 38.5323 156.404 38.2269 155.013 37.9406C151.356 37.1879 147.538 36.438 143.928 37.3952C140.317 38.3523 137.018 41.5893 137.307 45.3035C137.443 47.0815 138.348 48.6959 139.295 50.2121C140.015 51.3629 142.818 56.7569 144.179 56.8387C146.099 56.9505 146.183 53.0127 145.995 51.9001Z" fill="#3F3D56"/>
<path d="M168.971 102.996C168.971 102.996 150.154 107.632 143.882 102.996C143.882 102.996 141.155 113.631 141.973 119.085C141.973 119.085 155.336 119.904 156.699 120.722C156.699 120.722 156.972 118.54 158.335 119.631C158.335 119.631 162.971 114.177 171.425 119.085C171.425 119.085 173.061 106.269 168.971 102.996Z" fill="#29C038"/>
<path opacity="0.1" d="M158.984 39.3779C158.79 39.2373 158.587 39.1097 158.376 38.9961C158.938 39.6358 159.323 40.412 159.492 41.2472C159.661 42.0823 159.607 42.9471 159.337 43.7551C159.067 44.5631 158.589 45.286 157.952 45.8516C157.315 46.4172 156.54 46.8056 155.706 46.978C152.815 47.578 149.998 45.5245 147.05 45.5545C146.457 45.5313 145.87 45.683 145.362 45.9908C143.939 46.9644 144.356 49.1078 144.629 50.8095C144.809 51.9221 144.735 55.8599 142.821 55.7535H142.788C143.314 56.3943 143.805 56.8279 144.184 56.8443C146.093 56.9507 146.172 53.0265 145.992 51.9003C145.72 50.1986 145.302 48.0552 146.726 47.0816C147.234 46.7738 147.821 46.6221 148.414 46.6453C151.362 46.6153 154.179 48.6688 157.069 48.0688C157.989 47.876 158.834 47.4216 159.502 46.7602C160.17 46.0988 160.632 45.2586 160.834 44.3405C161.035 43.4225 160.968 42.4658 160.638 41.5854C160.309 40.705 159.733 39.9384 158.978 39.3779H158.984Z" fill="black"/>
<g opacity="0.1">
<path opacity="0.1" d="M23.5508 26.4249C23.5508 26.4249 3.161 17.8512 0.488537 33.3133C0.488537 33.3133 -0.90496 35.7212 1.03394 37.7119C1.03394 37.7119 1.45117 36.6457 3.42279 37.7501C4.12662 38.1371 4.87348 38.4401 5.64802 38.6528C6.69467 38.9415 7.80681 38.8821 8.81679 38.4837C8.81679 38.4837 15.5225 38.121 21.1619 29.3482C21.1619 29.3482 23.578 27.8538 23.7008 27.2948L19.6593 27.5675C19.6593 27.5675 19.9675 30.5263 18.2958 32.3016C18.2958 32.3016 19.7821 27.712 19.0676 27.5811C18.9231 27.5539 16.9323 27.8184 16.9323 27.8184C16.9323 27.8184 17.4478 32.9615 14.7507 35.6231C14.7507 35.6231 17.2541 30.39 16.1633 27.9111L13.1827 28.4865C13.1827 28.4865 14.0008 33.8969 11.0502 37.0466C11.0502 37.0466 13.4745 31.4835 12.5392 28.6556L9.68126 29.6155C9.68126 29.6155 10.3712 34.9113 7.90325 37.5238C7.90325 37.5238 10.0576 30.8126 9.04314 29.8882C9.04314 29.8882 6.4743 30.9299 5.92345 31.5244C5.92345 31.5244 6.3325 35.3422 4.76175 36.7057C4.76175 36.7057 5.72711 32.0698 5.24988 31.8789C5.24988 31.8789 2.26381 34.1259 1.35572 36.0648C1.35572 36.0648 2.49015 33.1033 4.87355 31.4289C4.87355 31.4289 2.87194 31.0908 1.32845 31.928C1.32845 31.928 2.36199 29.9618 5.59621 30.8944C5.59621 30.8944 7.99324 29.2364 8.47319 29.2582C8.47319 29.2582 5.4135 27.8947 3.2019 28.0611C3.2019 28.0611 5.57167 26.6976 9.22312 28.9774L12.0701 27.9466C12.0701 27.9466 8.11868 25.9204 6.13616 25.9286C6.13616 25.9286 8.77044 24.9114 12.8119 27.7475L15.727 27.1503C15.727 27.1503 12.4546 25.1459 10.2485 24.6796C10.2485 24.6796 12.8964 24.2624 16.5697 27.0139L18.5658 26.8449C18.5658 26.8449 16.1497 25.4241 15.4189 25.0778C14.688 24.7314 14.7207 24.5051 14.7207 24.5051C16.4602 24.8071 18.0814 25.587 19.403 26.7576C19.403 26.7576 23.5317 26.6785 23.5508 26.4249Z" fill="#29C038"/>
</g>
<g opacity="0.1">
<path opacity="0.1" d="M22.7975 11.0553C22.7975 11.0553 15.5601 -5.65305 5.17294 2.00982C5.17294 2.00982 2.97225 2.64794 2.99133 4.92771C2.99133 4.92771 3.84761 4.5323 4.38756 6.3103C4.58944 6.94171 4.86398 7.54752 5.20566 8.11558C5.65757 8.87963 6.34577 9.47594 7.16637 9.8145C7.16637 9.8145 11.355 13.4196 19.7106 11.4207C19.7106 11.4207 21.9985 11.9116 22.3912 11.647L19.836 9.50362C19.836 9.50362 18.3362 11.4371 16.3236 11.5325C16.3236 11.5325 19.8224 9.65088 19.4706 9.16547C19.3997 9.0673 18.0689 8.09103 18.0689 8.09103C18.0689 8.09103 15.4428 11.4398 12.3422 11.4916C12.3422 11.4916 16.8118 9.80632 17.5753 7.71471L15.4783 6.35121C15.4783 6.35121 12.8767 10.0299 9.33434 10.2208C9.33434 10.2208 13.943 8.31192 14.9983 6.08669L12.754 5.02861C12.754 5.02861 10.147 8.57371 7.19909 8.70734C7.19909 8.70734 12.3013 5.94761 12.2222 4.82136C12.2222 4.82136 10.1034 3.97599 9.43251 4.02507C9.43251 4.02507 7.50452 6.52028 5.78378 6.44938C5.78378 6.44938 8.99892 4.24324 8.82166 3.85873C8.82166 3.85873 5.76742 3.49331 4.12304 4.13143C4.12304 4.13143 6.48462 3.01881 8.85439 3.38423C8.85439 3.38423 7.85903 2.03982 6.47099 1.66622C6.47099 1.66622 8.20536 1.08537 9.59613 3.4824C9.59613 3.4824 11.9632 3.86146 12.2386 4.14506C12.2386 4.14506 11.2023 1.58441 9.78429 0.430889C9.78429 0.430889 11.9659 0.976291 12.8385 4.40413L15.1156 5.41585C15.1156 5.41585 13.9239 1.96074 12.7267 0.839939C12.7267 0.839939 14.8729 1.7344 15.6583 5.72127L17.728 7.0275C17.728 7.0275 16.9236 3.97326 15.8819 2.4516C15.8819 2.4516 17.6926 3.70874 18.3089 7.43655L19.5906 8.47281C19.5906 8.47281 18.9634 6.25304 18.7261 5.63128C18.4889 5.00952 18.6389 4.89499 18.6389 4.89499C19.4987 6.06618 20.017 7.45288 20.136 8.90095C20.136 8.90095 22.6503 11.1971 22.7975 11.0553Z" fill="#29C038"/>
</g>
</g>
<defs>
<clipPath id="clip0">
<rect width="300" height="199.611" fill="white"/>
</clipPath>
</defs>
</svg>
